<?xml version="1.0" encoding="UTF-8"?>
<svg id="Layer_1" data-name="Layer 1" xmlns="http://www.w3.org/2000/svg" viewBox="0 0 200 200">
  <defs>
    <style>
      .cls-1 {
        fill: #579b54;
      }

      .cls-2 {
        fill: #b02934;
      }

      .cls-3 {
        fill: #402a2d;
      }

      .cls-4 {
        fill: #3a312c;
      }

      .cls-5 {
        fill: #ae2936;
      }

      .cls-6 {
        fill: #474849;
      }

      .cls-7 {
        fill: #f7c35a;
      }

      .cls-8 {
        fill: #40352a;
      }

      .cls-9 {
        fill: #de304a;
      }

      .cls-10 {
        fill: #c53038;
      }

      .cls-11 {
        fill: #d49a67;
      }

      .cls-12 {
        fill: #f4bf57;
      }

      .cls-13 {
        fill: #24291c;
      }

      .cls-14 {
        fill: #c0bfc1;
      }

      .cls-15 {
        fill: #eaa035;
      }

      .cls-16 {
        fill: #5e4827;
      }

      .cls-17 {
        fill: #323a37;
      }

      .cls-18 {
        fill: #3d1c23;
      }

      .cls-19 {
        fill: #1f1613;
      }

      .cls-20 {
        fill: #6f4f23;
      }

      .cls-21 {
        fill: #e15a5e;
      }

      .cls-22 {
        fill: #2b221e;
      }

      .cls-23 {
        fill: #654b25;
      }

      .cls-24 {
        fill: #352325;
      }

      .cls-25 {
        fill: #5e5f5f;
      }

      .cls-26 {
        fill: #49252b;
      }

      .cls-27 {
        fill: #232319;
      }

      .cls-28 {
        fill: #737374;
      }

      .cls-29 {
        fill: #34241f;
      }

      .cls-30 {
        fill: #eba231;
      }

      .cls-31 {
        fill: #f8c457;
      }

      .cls-32 {
        fill: #a3683c;
      }

      .cls-33 {
        fill: #f7c35e;
      }

      .cls-34 {
        fill: #e89f2e;
      }

      .cls-35 {
        fill: #282a1e;
      }

      .cls-36 {
        fill: #24231b;
      }

      .cls-37 {
        fill: #5a373b;
      }

      .cls-38 {
        fill: #2b281f;
      }

      .cls-39 {
        fill: #56462b;
      }

      .cls-40 {
        fill: #4e4947;
      }

      .cls-41 {
        fill: #f9c761;
      }

      .cls-42 {
        fill: #242c1b;
      }

      .cls-43 {
        fill: #f6f5f6;
      }

      .cls-44 {
        fill: #f7c35d;
      }

      .cls-45 {
        fill: #3c3421;
      }

      .cls-46 {
        fill: #352b25;
      }

      .cls-47 {
        fill: #5b4d38;
      }

      .cls-48 {
        fill: #e89f30;
      }

      .cls-49 {
        fill: #422b21;
      }

      .cls-50 {
        fill: #b32835;
      }

      .cls-51 {
        fill: #f6f6f4;
      }

      .cls-52 {
        fill: #2c2225;
      }

      .cls-53 {
        fill: #493d2b;
      }

      .cls-54 {
        fill: #3f3831;
      }

      .cls-55 {
        fill: #f7c765;
      }

      .cls-56 {
        fill: #3e312a;
      }

      .cls-57 {
        fill: #f4f4f1;
      }

      .cls-58 {
        fill: #3a251a;
      }

      .cls-59 {
        fill: #4b4029;
      }

      .cls-60 {
        fill: #1b1913;
      }

      .cls-61 {
        fill: #322325;
      }

      .cls-62 {
        fill: #2a2b21;
      }

      .cls-63 {
        fill: #eabe93;
      }

      .cls-64 {
        fill: #e89c2f;
      }

      .cls-65 {
        fill: #f7c55f;
      }

      .cls-66 {
        fill: #1b1312;
      }

      .cls-67 {
        fill: #39342f;
      }

      .cls-68 {
        fill: #3d382b;
      }

      .cls-69 {
        fill: #7a5647;
      }

      .cls-70 {
        fill: #453d38;
      }

      .cls-71 {
        fill: #221a11;
      }

      .cls-72 {
        fill: #a42839;
      }

      .cls-73 {
        fill: #f6c55d;
      }

      .cls-74 {
        fill: #393735;
      }

      .cls-75 {
        fill: #3a2b1d;
      }

      .cls-76 {
        fill: #fcfcfb;
      }

      .cls-77 {
        fill: #5f5f61;
      }

      .cls-78 {
        fill: #a66548;
      }

      .cls-79 {
        fill: #453b33;
      }

      .cls-80 {
        fill: #f7f7f6;
      }

      .cls-81 {
        fill: #3e3e3d;
      }

      .cls-82 {
        fill: #544328;
      }

      .cls-83 {
        fill: #604b2d;
      }

      .cls-84 {
        fill: #413121;
      }

      .cls-85 {
        fill: #34181f;
      }

      .cls-86 {
        fill: #453c32;
      }

      .cls-87 {
        fill: #3a312d;
      }

      .cls-88 {
        fill: #c32a3b;
      }

      .cls-89 {
        fill: #f7f8f8;
      }

      .cls-90 {
        fill: #412726;
      }

      .cls-91 {
        fill: #372f2c;
      }

      .cls-92 {
        fill: #3e2522;
      }

      .cls-93 {
        fill: #473b2d;
      }

      .cls-94 {
        fill: #512b24;
      }

      .cls-95 {
        fill: #28201e;
      }

      .cls-96 {
        fill: #34251f;
      }

      .cls-97 {
        fill: #533134;
      }

      .cls-98 {
        fill: #e99e30;
      }

      .cls-99 {
        fill: #f8c55f;
      }

      .cls-100 {
        fill: #342e20;
      }

      .cls-101 {
        fill: #362e2a;
      }

      .cls-102 {
        fill: #e99e2f;
      }

      .cls-103 {
        fill: #a72d3d;
      }

      .cls-104 {
        fill: #151e19;
      }

      .cls-105 {
        fill: #3f3a33;
      }

      .cls-106 {
        fill: #f7c35c;
      }

      .cls-107 {
        fill: #f6c25e;
      }

      .cls-108 {
        fill: #4d282f;
      }

      .cls-109 {
        fill: #4a4c4c;
      }

      .cls-110 {
        fill: #f5c35b;
      }

      .cls-111 {
        fill: #72c270;
      }

      .cls-112 {
        fill: #4f4640;
      }

      .cls-113 {
        fill: #f6c358;
      }

      .cls-114 {
        fill: #f6c65e;
      }

      .cls-115 {
        fill: #a4693d;
      }

      .cls-116 {
        fill: #fff;
      }

      .cls-117 {
        fill: #342f21;
      }

      .cls-118 {
        fill: #f8c55e;
      }

      .cls-119 {
        fill: #574e39;
      }

      .cls-120 {
        fill: #3b3520;
      }

      .cls-121 {
        fill: #f8c75d;
      }

      .cls-122 {
        fill: #e99b23;
      }

      .cls-123 {
        fill: #579a56;
      }

      .cls-124 {
        fill: #5a363c;
      }

      .cls-125 {
        fill: #493130;
      }

      .cls-126 {
        fill: #362721;
      }

      .cls-127 {
        fill: #56482c;
      }

      .cls-128 {
        fill: #f8c55d;
      }

      .cls-129 {
        fill: #1c1a13;
      }

      .cls-130 {
        fill: #f5c35c;
      }

      .cls-131 {
        fill: #f7b62d;
      }

      .cls-132 {
        fill: #3b2b21;
      }

      .cls-133 {
        fill: #2f281f;
      }

      .cls-134 {
        fill: #eeeded;
      }

      .cls-135 {
        fill: #321d1c;
      }

      .cls-136 {
        fill: #2d1a1b;
      }

      .cls-137 {
        fill: #bf3037;
      }

      .cls-138 {
        fill: #473e36;
      }

      .cls-139 {
        fill: #2c231f;
      }

      .cls-140 {
        fill: #7e7f7e;
      }

      .cls-141 {
        fill: #281e21;
      }

      .cls-142 {
        fill: #151e17;
      }

      .cls-143 {
        fill: #f7b634;
      }

      .cls-144 {
        fill: #f7c258;
      }

      .cls-145 {
        fill: #3b3131;
      }

      .cls-146 {
        fill: #482e2a;
      }

      .cls-147 {
        fill: #291111;
      }

      .cls-148 {
        fill: #413b33;
      }

      .cls-149 {
        fill: #29251d;
      }

      .cls-150 {
        fill: #3a3531;
      }

      .cls-151 {
        fill: #46282a;
      }

      .cls-152 {
        fill: #36241d;
      }

      .cls-153 {
        fill: #3a292b;
      }

      .cls-154 {
        fill: #e99b2a;
      }

      .cls-155 {
        fill: #23281b;
      }

      .cls-156 {
        fill: #493824;
      }

      .cls-157 {
        fill: #579b58;
      }

      .cls-158 {
        fill: #f7c25b;
      }

      .cls-159 {
        fill: #75592a;
      }

      .cls-160 {
        fill: #403121;
      }

      .cls-161 {
        fill: #594e3c;
      }

      .cls-162 {
        fill: #554329;
      }

      .cls-163 {
        fill: #463020;
      }

      .cls-164 {
        fill: #3d281a;
      }

      .cls-165 {
        fill: #e8a02f;
      }

      .cls-166 {
        fill: #f6f6f5;
      }

      .cls-167 {
        fill: #e1525d;
      }

      .cls-168 {
        fill: #f3f3f4;
      }

      .cls-169 {
        fill: #261e18;
      }

      .cls-170 {
        fill: #3c2a1d;
      }

      .cls-171 {
        fill: #a56843;
      }

      .cls-172 {
        fill: #433a31;
      }

      .cls-173 {
        fill: #f3f1f0;
      }

      .cls-174 {
        fill: #3b2d1f;
      }

      .cls-175 {
        fill: #3a1c18;
      }

      .cls-176 {
        fill: #f6c45d;
      }

      .cls-177 {
        fill: #e2585d;
      }

      .cls-178 {
        fill: #e49f24;
      }

      .cls-179 {
        fill: #31221f;
      }

      .cls-180 {
        fill: #c32d38;
      }

      .cls-181 {
        fill: #e8a02e;
      }

      .cls-182 {
        fill: #f6c45c;
      }

      .cls-183 {
        fill: #795547;
      }

      .cls-184 {
        fill: #3c191f;
      }

      .cls-185 {
        fill: #589a54;
      }

      .cls-186 {
        fill: #f6c45e;
      }

      .cls-187 {
        fill: #a42939;
      }

      .cls-188 {
        fill: #edc5a0;
      }

      .cls-189 {
        fill: #5aa65b;
      }

      .cls-190 {
        fill: #4b452f;
      }

      .cls-191 {
        fill: #33231d;
      }

      .cls-192 {
        fill: #49443d;
      }

      .cls-193 {
        fill: #c2c1c3;
      }

      .cls-194 {
        fill: #453d39;
      }

      .cls-195 {
        fill: #333634;
      }

      .cls-196 {
        fill: #4f292f;
      }

      .cls-197 {
        fill: #7a6434;
      }

      .cls-198 {
        fill: #352118;
      }

      .cls-199 {
        fill: #483031;
      }

      .cls-200 {
        fill: #3a2f28;
      }

      .cls-201 {
        fill: #3b1f21;
      }

      .cls-202 {
        fill: #32221a;
      }

      .cls-203 {
        fill: #3f2f26;
      }

      .cls-204 {
        fill: #d49b68;
      }

      .cls-205 {
        fill: #442322;
      }

      .cls-206 {
        fill: #e99f2e;
      }

      .cls-207 {
        fill: #f5f7f5;
      }

      .cls-208 {
        fill: #1f1914;
      }

      .cls-209 {
        fill: #444640;
      }

      .cls-210 {
        fill: #535353;
      }

      .cls-211 {
        fill: #4e2a30;
      }

      .cls-212 {
        fill: #e8a033;
      }

      .cls-213 {
        fill: #f5f6f4;
      }

      .cls-214 {
        fill: #332219;
      }

      .cls-215 {
        fill: #f7f8f7;
      }

      .cls-216 {
        fill: #3f2b2b;
      }

      .cls-217 {
        fill: #8c5540;
      }

      .cls-218 {
        fill: #4e3429;
      }

      .cls-219 {
        fill: #e89b2b;
      }

      .cls-220 {
        fill: #532c2f;
      }

      .cls-221 {
        fill: #392728;
      }

      .cls-222 {
        fill: #f5f6f6;
      }

      .cls-223 {
        fill: #f7f6f5;
      }

      .cls-224 {
        fill: #535556;
      }

      .cls-225 {
        fill: #2b271c;
      }

      .cls-226 {
        fill: #202218;
      }

      .cls-227 {
        fill: #bb2934;
      }

      .cls-228 {
        fill: #5c4e33;
      }

      .cls-229 {
        fill: #f9c962;
      }

      .cls-230 {
        fill: #5e383c;
      }
    </style>
  </defs>
  <path class="cls-53" d="M115,71.98c1.88-1.05,3.94-.54,5.79-.2.92.17.48,2.15.85,3.35,1.3-1.27,2.98-.32,4.5-.73-.24-2.84-.46-5.68-.74-8.52-.07-.71.16-1.1.79-1.33.04.05.09.1.15.14-.18.08-.36.16-.54.24,2.1.16,3.85,1.68,5.83.7-.54.59-.63,1.21-.47,2.03.27,1.37.31,2.79.49,4.18.82,6.6,1.66,13.21,2.49,19.81-.08-4.47-.38-8.91-.68-13.35-.03-.44-.16-.98.33-1.2,1.81-.83,1.45-2.35,1.28-3.82-.08-.68-.11-1.36-.16-2.05.06,0,.13,0,.19,0,.13,1.19.34,2.39.37,3.58.02.94.41,1.09,1.24,1.12.97.04.73-.62.77-1.09.16-1.78.29-3.56.39-5.34.04-.69.25-1.19.92-1.43.04.04.08.09.12.13-.24.16-.49.32-.91.6,2.29.59,4.22,1.1,6.15,1.6.66-3.6-.06-4.51-2.98-3.86-.04-.04-.07-.09-.11-.13.85-.68,1.77-.08,2.65-.13.49-.02.77-.08.75-.62,0,0,.09,0,.09,0h.09c-.06,3.01-.13,6.03-.18,9.04q-.06,3.42,3.4,3.37c.16-.01.31-.02.47-.03.16-2.41.32-4.81.47-7.22.07,0,.14,0,.21,0v7.46c2.39-.57,2.67.82,2.7,2.85.04,2.98.4,5.96.63,8.94.02.29.02.63.54.72,0-.28,0-.54,0-.79,0-7.87,0-15.74-.03-23.61,0-.68.12-1.06.87-.98,0,.08,0,.15,0,.23-.12.07-.24.13-.36.2-.03.04-.06.07-.09.11-.05.16-.13.31-.13.47,0,7.94,0,15.88-.02,23.82,0,.62.34.99.61,1.44-.62-.35-1.24-.7-1.85-1.05.06-.14.12-.28.18-.42-.26-3.53-.52-7.06-.83-11.2-.71,1.86-2.58,2.23-2.55,3.9.02,1.67.22,3.35.35,5.02-.07.21-.14.42-.21.63-.15-1.92-.3-3.83-.44-5.75-.03-.33.05-.68-.43-.8-1.77-.44-3.53-.92-5.37-1.4.05.85.09,1.57.13,2.29.5,8.3,1.01,16.59,1.51,24.89-.06,0-.13,0-.19,0-.41-6.13-.83-12.25-1.23-18.38-.28-4.23-.52-8.45-.78-12.71-.38.15-.63.24-.87.33.11-.19.21-.37.42-.73-2.6.4-5.34-1.16-7.67,1.21,1.01.22,1.87.4,2.72.59,0,.07,0,.14,0,.21-.93-.15-1.86-.3-2.81-.45.45,7.24.89,14.36,1.34,21.49-.07.15-.13.3-.2.45-.68-5.24-1.35-10.47-2.08-15.7-.1-.7.23-1.58-.59-2.1-.05-.13-.11-.37-.14-.37-1.94.21-3.94-.45-5.84.38.65-1.3,1.95-.29,2.85-.81-.32-1.97-.64-3.94-.97-5.97-2.76,2.04-3.35,4.24-1.88,6.77-.33.6-.8,1.04-1.47,1.24,1.74-1.62.6-3.52.19-5.12-.22-.89-1.94-.45-3.07-.72.58,3.14,1.12,6.14,1.67,9.13.56,3.03,1.12,6.06,1.68,9.1.05.14.09.29.14.43,0,.06-.02.12-.04.18-.06,0-.11,0-.17,0-.83-4.22-1.69-8.44-2.46-12.68-.68-3.72-1.27-7.46-1.9-11.19-.37.2-.68.37-1,.54.23-.3.45-.6.68-.9h-5.51ZM132.43,81.15c-.55-4.78-1.1-9.55-1.66-14.31-.02-.17-.16-.44-.29-.47-1.58-.34-3.17-.65-4.87-.99.29,3.01.57,5.8.83,8.6.04.4.22.59.59.52,1.24-.24,1.49.44,1.55,1.48.06.95.41,1.9.4,2.85-.03,2.49,1.27,2.95,3.46,2.33ZM142.22,79.79c1.22-.9,1.94-1.61,1.92-2.87-.03-1.86.05-3.71.08-5.57,0-.36,0-.63-.48-.74-1.82-.44-3.63-.94-5.55-1.45-.15,2.26-.3,4.44-.46,6.76,2.49.08,5.76-.84,4.49,3.87ZM128.07,74.74c-1.83,0-3.33-.03-4.83.01-.83.02-1.44.42-1.51,1.32-.07.93.62.92,1.3,1.17,2.48.89,3.41-1.12,5.04-2.49ZM142.13,79.95c5.09,2.33,6.9,2.14,8.61-.67-2.68.7-5.45,0-8.61.67ZM150.93,78.79c-2.44.11-4.99-1.26-7.35.28,2.46.12,4.93.49,7.35-.28Z"/>
  <path class="cls-77" d="M46.75,50.17c0,.42,0,.84,0,1.26-.27.75-.27,1.5,0,2.25.01,5.12.04,10.24.02,15.36,0,.81.2,1.03,1.02,1.03,9.45-.03,18.91-.02,28.36-.02.68,0,1.4-.09,1.84.63-.02.13-.04.25-.06.38-.14-.13-.29-.27-.43-.4-.39-.08-.78-.23-1.17-.23-21.49,0-42.98,0-64.47,0-.51,0-.95.08-1.32.42-.09,0-.18-.01-.27-.02.45-.96,1.41-.57,2.13-.81,9.61,0,19.21-.01,28.82-.02.13,0,.26,0,.4,0,.83,0,1.66,0,2.49,0,1.76.37,2.38-.1,2.36-2.12-.11-11.94-.04-23.88-.03-35.83,0-.37.07-.74.11-1.12.01,6.01.02,12.03.05,18.04,0,.4.1.8.16,1.2Z"/>
  <path class="cls-82" d="M169.19,63.78c2.8-.32,5.63-.93,8.09,1.2.41.35.62.61.6,1.15-.11,3.84-.18,7.68-.28,11.52-.01.54,0,1.02.51,1.34-.04.05-.08.09-.14.13-2.07-1.92-4.52-1.37-6.94-1.08-.13.27-.31.52-.37.8-1.32,6.27-2.6,12.55-3.93,18.81-.91,4.3-1.9,8.58-2.85,12.86.48-.18.92-.35,1.36-.51-.51.71-1.35.83-2.06,1.2,0-.07,0-.14-.01-.21.96-2.12,1.18-4.44,1.86-6.8-.79.19-1.41.4-2.04.47-1.32.13-2.02.66-2.15,2.11-.15,1.65-.62,3.28-.94,4.91-.06,0-.13,0-.19,0,.1-.57.26-1.14.28-1.72.1-2.33,1.96-4.81-.53-6.94.02-.11.04-.22.05-.33.92.5.85,2.25,2.38,1.95,3.54-.71,3.54-.73,2.52-4.1.63.2.54.97,1.15,1.44.97-6.77,3.6-13.12,3.41-20-.07-2.81.11-5.63.18-8.45.06-.08.13-.16.19-.24v10.55c.27-1.35.6-2.75.82-4.17.2-1.32.21-2.74,2.49-2.12,0-3.07-.09-5.95.04-8.83.07-1.51-.17-2.67-1.68-3.27.12-.01.23-.02.35-.03,1.94,1.57,3.85.13,5.84.12-2.35-2.46-5.09-1.88-7.81-1.38l-.02.24c-.13-.06-.27-.11-.4-.17.07-.15.13-.3.2-.45ZM177.38,65.86c-1.02.16-2.16.38-3.31.49-.87.09-1.18.41-1.16,1.34.05,2.71.06,5.43-.08,8.14-.07,1.34.24,1.87,1.63,1.66.93-.14,1.92-.22,2.91,1.06v-12.68Z"/>
  <path class="cls-49" d="M125.21,96.21c.06,0,.11,0,.17,0,.38,1.79.76,3.58,1.15,5.38.04,0,.08-.02.13-.03-.48-3.35-.97-6.71-1.45-10.06.07-.08.13-.15.2-.23.64,3.98,1.28,7.97,1.92,11.95-1.72-1.69-2.32-3.96-3.11-6.12-.17-.47-.21-.89-.88-.91-2.91-.1-5.82-.24-8.73-.4-.8-.05-1.04.24-.93,1,.25,1.73.51,3.45.69,5.18.08.73.41.98,1.1,1.17,4.1,1.13,8.08,2.59,11.84,4.62-.1,0-.21.02-.31.02-.17-.04-.35-.05-.49-.12-7.53-3.85-15.57-5.69-23.97-6.14.15-.05.3-.11.45-.16l.73-.05c3.49.22,6.94.72,10.5,1.51-.26-1.95-.44-3.83-.77-5.69-.23-1.29.13-1.73,1.46-1.65.5.03,1.45.73,1.64-.51.07,0,.13,0,.2,0,.06.25-.02.58.4.6,1.27.06,2.54.13,3.81.2.48.03.31-.33.34-.57.06-.08.13-.15.19-.23,0,.65.31.92.96.84,1.27-.15,2,.3,2.23,1.68.16.93.66,1.8,1.01,2.69.06-.02.12-.04.18-.06-.22-1.31-.44-2.61-.65-3.92Z"/>
  <path class="cls-228" d="M121.47,94.97c-.06.08-.13.15-.19.23-1.24-6.56-2.48-13.12-3.71-19.68-.06-.32.03-.71-.48-.76-1.36-.14-2.72-.3-4.15-.45,1.28,6.96,2.53,13.81,3.79,20.67-.07,0-.13,0-.2,0-1.3-6.82-2.66-13.64-3.85-20.48-.21-1.24,1.49-1.5,2.15-2.37-.06.99-1.23,1.08-1.65,2.05,1.76-.43,3.38.82,5.04-.11.23.56-.5.79-.37,1.46,1.26,6.47,2.43,12.97,3.62,19.46Z"/>
  <path class="cls-93" d="M169.19,63.78c-.07.15-.13.3-.2.45-.01,2.88-.48,5.77-.02,8.65,0,0,.01,0,.01,0-.38-.13-.82-.18-1.15-.39-2.42-1.55-4.83-1.26-7.33,0,.6.39,1.16.76,1.72,1.13-.04.06-.08.11-.13.16-.64-.34-1.28-.68-2.03-1.08v4.5c-.07-1.53-.14-3.05-.21-4.58,0-.63.56-.46.89-.62.39-.19,1.02-.07,1-.8-.02-1.33,0-2.65,0-4.04-1.18.26-2.24.6-3.31.71-.93.09-1.14.41-1.12,1.33.08,3.43.05,6.86.06,10.29-.06,0-.12,0-.18,0-.05-.08-.1-.16-.15-.24-.01-2.26-.24-4.54.02-6.77.37-3.16-.3-5.49-3.66-6.4-.06-.02-.1-.09-.15-.13.03-.04.06-.08.09-.11.76.37,1.59.65,2.28,1.12,2,1.36,3.85.52,5.72-.25l.05-.06c.95.21.54.99.57,1.52.06,1.13.02,2.26.02,3.64,2.39-1.54,4.38-.26,6.68.83,0-2.82-.01-5.4.02-7.98,0-.3-.26-.93.51-.84Z"/>
  <path class="cls-83" d="M189.65,75.54c.52.2.33.55.24.93-1.43,6.14-2.85,12.27-4.26,18.41-.08.36-.08.73-.12,1.1-.14-.06-.28-.12-.42-.19,1.51-6.5,3.02-13,4.58-19.7-1.11,0-2.12.11-3.09-.03-1.18-.17-1.7.06-1.98,1.38-1.26,6-2.66,11.96-4.01,17.94-.08,0-.15,0-.23,0,1.27-5.79,2.5-11.58,3.85-17.36.32-1.39.38-2.51-.99-3.3.11,0,.21,0,.32,0,1.8,1.67,3.96.96,6.02.89.03-.03.05-.05.08-.08Z"/>
  <path class="cls-28" d="M41.61,69.99c-.13,0-.26,0-.4,0,0-13.14.02-26.29.03-39.43,0-.37.07-.74.11-1.11.02,3.01.04,6.02.08,9.02.03,2.25.1,4.49.15,6.74,0,8.26.02,16.52.02,24.78Z"/>
  <path class="cls-65" d="M118.22,74.06c-1.66.93-3.28-.32-5.04.11.42-.97,1.58-1.06,1.65-2.05.06-.05.12-.1.17-.14,1.82,0,3.65,0,5.51,0-.22.3-.45.6-.68.9,0,0,.01,0,.01,0-.45.35-.9.7-1.35,1.04-.09.05-.18.1-.27.15Z"/>
  <path class="cls-16" d="M178.79,79.47c.83.26.49.92.49,1.46-.39,1.65-.79,3.31-1.18,4.96-.08,0-.15,0-.23-.01.39-1.82.78-3.65,1.19-5.57-1.22.13-2.34.35-3.45.35-1.02,0-1.38.37-1.55,1.37-.41,2.39-.98,4.76-1.48,7.13-1.28,6.08-2.57,12.17-3.88,18.39.58-.46,1.06-.84,1.53-1.22.06.06.11.13.17.19-.98.82-1.81,1.85-3.09,2.25.73-.61,1.08-1.37,1.28-2.32,1.2-5.81,2.5-11.6,3.68-17.41.59-2.9,1.49-5.75,1.67-8.74,1.68.28,3.3-.27,5.13-.29-.29-.27-.44-.4-.58-.54.11,0,.21-.01.32-.02Z"/>
  <path class="cls-216" d="M74.3,87.68c-.44,4.08-.88,8.16-1.32,12.24-.27,1.89-.53,3.78-.81,5.79,3.18-1.13,6.23-2.36,9.48-2.96,0,.08.01.17.02.25-4.21,1.1-8.38,2.33-12.2,4.48-.47.25-.95.51-1.42.76-.07.05-.13.1-.2.15h0c-1.74,1.12-3.48,2.23-5.22,3.34-.06,0-.09.04-.1.1-.24.18-.48.35-.72.53-.06-.01-.11-.03-.16-.06,2.79-2.65,6.19-4.36,9.56-6.11.33-.17.7-.23.75-.72.33-2.85.7-5.69,1.03-8.54.36-3.09.7-6.18,1.06-9.26,0-.03.12-.05.19-.06.02,0,.05.05.07.07Z"/>
  <path class="cls-97" d="M23.68,167.15c-2.43-.87-1.89-3.11-2.26-4.93-.73-7.35-1.47-14.71-2.19-22.06-.06-.65-.08-1.3-.12-1.95.05-.17.1-.35.15-.52.79,7.72,1.51,15.45,2.41,23.16.25,2.16-.59,4.86,2.23,6.14-.07.05-.14.11-.21.16Z"/>
  <path class="cls-211" d="M183.6,126.34c-.03.17-.06.35-.09.52,0,0-.04.02-.04.02l.02.04c-1.67,9.59-3.33,19.19-5,28.78-.01-.15-.02-.31-.03-.46.76-4.55,1.49-9.11,2.28-13.65.87-5.09,1.79-10.16,2.69-15.25.06,0,.12,0,.17,0Z"/>
  <path class="cls-112" d="M81.67,103.01c0-.08-.01-.17-.02-.25,7.02-1.8,14.15-2.1,21.34-1.53-.03.04-.04.08-.03.13-.15.05-.3.11-.45.16-1.59-.04-3.18-.08-4.77-.13-3.04-.06-6.08-.07-9.09.43-2.33.4-4.65.79-6.98,1.19Z"/>
  <path class="cls-47" d="M153.7,65.62c0-.08,0-.15,0-.23.15-1.91.29-3.81.45-5.95-.71.51-1.19.86-1.68,1.22,0-.1,0-.19-.01-.29.42-.37.84-.75,1.4-1.24-2.41-.54-4.43-2.89-6.97-.74,0-.09-.01-.18-.02-.27,1.75-1.07,5.93-.58,7.26.93.25.29.17.9.18,1.36.02,1.57,0,3.14,0,4.77,1.44.1,2.9-.53,4.37-.05,0,.09,0,.19-.01.28-1.68-.41-3.31.16-4.97.21Z"/>
  <path class="cls-119" d="M179.45,81.11c.53-2.45,1.08-4.9,1.57-7.35.13-.67.39-.97,1.09-.81,1.74.38,3.63-.36,5.28.69-.04.05-.08.1-.13.14-1.7-.55-3.44-.39-5.34-.49.32.31.49.48.66.64-.11,0-.21,0-.32,0-.25-.17-.5-.33-.77-.51-1,4.4-2,8.78-2.99,13.16-.07-.09-.13-.18-.2-.26.38-1.73.75-3.46,1.13-5.19Z"/>
  <path class="cls-90" d="M185.09,95.79c.14.06.28.12.42.19,3.48-.13,3.47-.13,2.81,3.26-.35,1.81-.67,3.62-1,5.43-.05,0-.11,0-.17,0,.39-2.32.78-4.64,1.18-6.96.17-.98.03-1.56-1.21-1.51-2.63.11-5.28.23-7.9.09-1.28-.07-2.07.09-2.37,1.4-.15.2-.31.39-.46.59.29-1.6.98-2.64,2.86-2.28.45.09,1.09.23,1.12-.6.08,0,.15,0,.23,0,.02.24-.19.61.27.6,1.41-.04,2.81-.12,4.22-.19Z"/>
  <path class="cls-220" d="M13.78,88.15c-.13-1.65-.27-3.3-.4-4.95.06,0,.11,0,.17-.01.08.35.15.7.23,1.05.03.48.05.95.1,1.43.52,5.09,1.04,10.18,1.56,15.28-.06,0-.13,0-.19,0-.49-4.27-.98-8.54-1.46-12.8Z"/>
  <path class="cls-37" d="M19.25,137.69c-.05.17-.1.35-.15.52-.6-5.68-1.21-11.35-1.81-17.03.07,0,.14,0,.21,0,.06.33.15.67.19,1,.53,5.17,1.04,10.34,1.56,15.51Z"/>
  <path class="cls-161" d="M135.09,71.23c-.06,0-.13,0-.19,0-.07-.5-.12-1.01-.21-1.51-.36-1.96-.04-4.02-.81-5.92-2.63-.65-5.24-1.17-7.54.89-.05-.04-.1-.09-.15-.14,2.25-2.52,5.13-1.37,7.82-1.31.42,0,.42.41.44.7.22,2.43.43,4.86.65,7.29Z"/>
  <path class="cls-224" d="M46.75,50.17c-.06-.4-.16-.8-.16-1.2-.02-6.01-.03-12.03-.05-18.04-.05-.47-.11-.94-.16-1.41-.14-.14-.28-.27-.42-.41.08-.07.15-.15.23-.22.47.21.6.6.6,1.09-.02,6.73-.03,13.46-.04,20.19Z"/>
  <path class="cls-196" d="M187.15,104.66c.06,0,.11,0,.17,0-.87,5.04-1.74,10.08-2.62,15.12-.06-.09-.13-.18-.19-.26.05-.23.1-.47.15-.7.83-4.72,1.66-9.44,2.5-14.16Z"/>
  <path class="cls-108" d="M178.47,155.24c.01.15.02.31.03.46-.36,2.31-.73,4.61-1.09,6.92-.38,1.91-.75,3.82-1.13,5.74,0,0,0,.04,0,.04-.11.38.13.88-.36,1.14,0,0-.04,0-.04,0-.11-.08-.21-.17-.32-.25.47-.08.39-.46.45-.8.81-4.42,1.64-8.84,2.46-13.25Z"/>
  <path class="cls-25" d="M77.93,71.06c.02-.13.04-.25.06-.38.76,1.38.25,2.87.34,4.31.09,1.39,0,2.8,0,4.2-.24.26-.48.52-.71.78-.04-.06-.08-.12-.12-.18.34-.33.47-.72.47-1.2-.02-2.51-.01-5.02-.02-7.53Z"/>
  <path class="cls-210" d="M41.59,45.21c-.05-2.25-.12-4.49-.15-6.74-.04-3.01-.05-6.02-.08-9.02.21-.2.41-.4.62-.6.09.08.17.15.26.23-.71.15-.6.71-.6,1.22-.01,4.97-.03,9.94-.04,14.91Z"/>
  <path class="cls-230" d="M15.24,100.95c.06,0,.13,0,.19,0,.39,3.58.78,7.16,1.17,10.74-.06.16-.13.32-.19.48-.39-3.74-.78-7.48-1.16-11.21Z"/>
  <path class="cls-190" d="M146.87,58.12c0,.09.01.18.02.27-.59.48-1.47.52-1.85,1.29-.14,1.99-.27,3.99-.41,5.98h-.09s-.09,0-.09,0c.02-1.53.03-3.06.05-4.59.01-.32.02-.64.04-.96.05-1.52,1.56-1.32,2.34-1.99Z"/>
  <path class="cls-124" d="M16.4,112.16c.06-.16.13-.32.19-.48.3,3.16.6,6.33.9,9.49-.07,0-.14,0-.21,0-.3-3.01-.59-6.01-.89-9.02Z"/>
  <path class="cls-26" d="M184.51,119.53c.06.09.13.18.19.26-.32,1.95-.64,3.89-.96,5.84,0,0-.05.02-.05.02l.03.04c-.04.22-.08.43-.12.65-.06,0-.12,0-.17,0,.36-2.27.72-4.54,1.08-6.81Z"/>
  <path class="cls-140" d="M42.23,29.08c-.09-.08-.17-.15-.26-.23,1.41-.24,2.81-.29,4.22.04-.08.07-.15.15-.23.22-1.24,0-2.49-.02-3.73-.03Z"/>
  <path class="cls-209" d="M158.67,65.41c0-.09,0-.19.01-.28.91.5,1.81,1,2.72,1.5,0,0-.05.06-.05.06-.89-.43-1.79-.85-2.68-1.28Z"/>
  <path class="cls-224" d="M46.75,53.67c-.27-.75-.27-1.5,0-2.25,0,.75,0,1.5,0,2.25Z"/>
  <path class="cls-81" d="M187.4,73.63c.42.35.83.69,1.25,1.04-.04.05-.09.11-.12.16-.42-.36-.84-.71-1.25-1.07.05-.04.09-.08.13-.14Z"/>
  <path class="cls-6" d="M188.65,74.67c.33.29.67.58,1,.86-.03.02-.06.05-.08.08-.35-.26-.7-.52-1.05-.78.04-.06.08-.11.12-.16Z"/>
  <path class="cls-7" d="M144.53,60.11c-.01.32-.02.64-.04.96.01-.32.02-.64.04-.96Z"/>
  <path class="cls-53" d="M138.78,68.07c.27-.21.54-.42.82-.63.04.05.08.09.12.14-.27.21-.55.42-.82.63-.04-.04-.08-.09-.12-.13Z"/>
  <path class="cls-53" d="M139.6,67.44c.28-.2.55-.41.83-.61.04.04.08.09.12.13-.28.21-.55.41-.83.62-.04-.05-.08-.09-.12-.14Z"/>
  <path class="cls-53" d="M140.43,66.83c.21-.14.41-.28.62-.42.04.04.07.09.11.13-.2.14-.4.28-.61.43-.04-.04-.08-.09-.12-.13Z"/>
  <path class="cls-32" d="M102.96,101.36s0-.09.03-.13c.24.03.47.05.7.08-.24.02-.49.03-.73.05Z"/>
  <path class="cls-17" d="M178.79,79.47c-.11,0-.21.01-.32.02-.17-.12-.33-.24-.5-.36.05-.04.1-.08.14-.13.23.16.45.32.68.47Z"/>
  <polygon class="cls-72" points="183.5 126.92 183.48 126.88 183.52 126.86 183.55 126.9 183.5 126.92"/>
  <polygon class="cls-72" points="183.72 125.69 183.69 125.65 183.74 125.63 183.77 125.67 183.72 125.69"/>
  <path class="cls-72" d="M184.51,119.53c-.36,2.27-.72,4.54-1.08,6.81-.9,5.08-1.81,10.16-2.69,15.25-.78,4.55-1.52,9.1-2.28,13.65-.82,4.42-1.65,8.83-2.46,13.25-.06.33.02.71-.45.8,0,0,.02,0,.02,0-.88-1.06-2.03-1.66-3.31-2.07,0,0,0,0,0,0-3.17-2.09-6.65-3.43-10.31-4.36-1.92-.8-3.94-1.2-5.99-1.44-3.09-.56-6.17-1.01-9.29-.2-1.03.08-2.07.13-2.9.88-.03.07-.08.09-.15.07,0-.67-.02-1.34-.02-2.02,5.98-.41,11.96-.91,17.87.59,4.55,1.15,4.99.91,6.35-3.64.04-.13.08-.26.11-.4,2.44-9.64,3.17-19.54,4.52-29.34,1.13-8.22,2.25-16.44,3.62-24.62.28-1.68,1.04-3.31.77-5.08.3-1.3,1.1-1.46,2.37-1.4,2.63.14,5.27.02,7.9-.09,1.24-.05,1.38.53,1.21,1.51-.41,2.32-.79,4.64-1.18,6.96-.83,4.72-1.66,9.44-2.5,14.16-.04.23-.1.47-.15.7Z"/>
  <path class="cls-115" d="M137.36,169.94c-.19.1-.38.21-.56.31-1.81.15-3.47.92-5.35.9-15.5-.12-31-.15-46.51-.17-7.77,0-15.53.09-23.3.14.02-.06.02-.13,0-.19,1.89-.02,3.78.04,5.67-.07,8.51-.5,17.01-1.07,25.52-1.59,5.85-.35,11.63-1.17,17.32-2.62.64-.16,1.64-.21,1.61-1.14-.03-.94-1.01-1.06-1.72-1.18-2.25-.36-4.55-.38-6.55-1.78-3.17-2.24-6.24-2.75-9.14.65-.86,1.01-2.23,1.07-2.97-.39-.48-.94-1.05-.86-1.85-.58-2.08.73-3.77,2.08-5.52,3.35-1.63,1.18-2.93.85-3.94-.81-.54-.87-1.01-1.78-1.52-2.68h.09s.08.02.08.02c.59.39,1.15.86,1.79,1.17,2.02,1,4.9-.03,5.43-1.89.74-2.59,2.05-3.34,4.57-2.6.08.29.29.61.22.86-.55,1.93.8,2.08,2.06,2.12.72.02,1.62-.12,2.15-.55,1.87-1.5,4.05-1.43,6.26-1.53.18.4.08.99.66,1.16,1.11.46,2.34,1.59,3.4.9,2.41-1.56,4.58-1.46,6.69.29,1.44,1.2,2.31.47,3.25-.62.6-.69.26-1.44.29-2.16.02-.54.08-1.04.63-1.31.42-.21.92-.31,1.25.06,1.8,2.02,3.73,1.93,5.79.46.64-.15,1.37-.37,1.62.52.55,2,3.02,3.54,5.14,3.1.95-.2,2.05-.29,2.19-1.6.17-1.7,1.28-1.59,2.36-1.11.65.29,1.14.94,1.7,1.42,1.81,1.28,4.55.36,5.2-1.74.15-.48.22-1.01.95-.99.77.02.77.63.81,1.08.12,1.19.13,2.37-.11,3.57-.33,1.66-1.49,2.88-2.1,4.38-.31.31-.61.61-.92.92-.57.03-.9.37-1.14.84h0c-.59.22-1.25.34-1.49,1.06Z"/>
  <path class="cls-195" d="M61.64,171.13c7.77-.05,15.53-.15,23.3-.14,15.5.01,31.01.05,46.51.17,1.88.01,3.55-.75,5.35-.9-.09.03-.19.07-.28.1,0,0-.07,0-.07,0l-.03.06c-.31.12-.62.24-.93.37,0,0-.06,0-.06,0l-.03.05c-.17.05-.35.11-.52.16,0,0-.06-.01-.06-.01l-.04.05c-.24.06-.48.12-.72.18-.1.03-.2.06-.3.09-1.13.02-2.27.06-3.4.06-22.58,0-45.16,0-67.74,0-.34,0-.68-.05-1.02-.07.03-.04.05-.08.04-.13h0Z"/>
  <path class="cls-151" d="M61.63,170.94c.02.06.03.13,0,.19,0,0,0,0,0,0-.06.01-.12.04-.17.08-1.36-.27-2.69-.73-3.76-1.59-1.04-.83-2.07-.76-3.26-.66-9.25.78-18.51,1.27-27.68-.72-1.06-.23-2.06-.72-3.09-1.09.07-.05.14-.11.21-.16,5.46,2.06,11.16,2.34,16.9,2.25,4.32.22,8.63-.14,12.93-.48.67-.05,1.65.45,2.15-.52.1,0,.2-.01.3-.02,1.67,1.21,3.39,2.31,5.46,2.71Z"/>
  <path class="cls-133" d="M140.91,167.12c.61-1.5,1.77-2.72,2.1-4.38.24-1.2.23-2.38.11-3.57-.04-.45-.04-1.06-.81-1.08-.73-.02-.8.5-.95.99-.65,2.1-3.39,3.01-5.2,1.74.1-.01.19-.02.29-.03,2.05.73,4.01-.14,4.7-2.12.28-.79.72-1,1.57-.83,3.68.72,3.75.65,3.76-2.38.69-1.22,1.26-2.46.83-3.92.48.36.52.91.41,1.39-.39,1.72-.82,3.43-1.3,5.12-.16.57-.59.96-1.26.67-.52-.23-1.14-.76-1.59-.35-.52.47-.05,1.2.05,1.82,0,.67.01,1.34.02,2.02-.87,1.67-1.21,3.62-2.73,4.93Z"/>
  <path class="cls-153" d="M161.97,162.87c3.66.93,7.14,2.27,10.31,4.36-3.22-1.48-6.42-2.99-9.8-4.08,0,0-.02,0-.02,0-.19-.05-.38-.1-.58-.15.04-.02.06-.05.07-.09l.02-.02Z"/>
  <path class="cls-125" d="M146.69,161.23c3.11-.82,6.2-.36,9.29.2,0,.06,0,.12,0,.17-3.09-.41-6.18-.69-9.29-.23,0-.05,0-.09,0-.14Z"/>
  <path class="cls-3" d="M155.97,161.6c0-.06,0-.12,0-.17,2.06.24,4.07.64,5.99,1.44,0,0-.02.02-.02.02-.05,0-.09.03-.12.06-1.95-.45-3.9-.9-5.85-1.35Z"/>
  <path class="cls-153" d="M172.27,167.22c1.28.41,2.44,1.01,3.31,2.07-1.1-.69-2.21-1.38-3.31-2.07Z"/>
  <path class="cls-199" d="M146.69,161.23s0,.09,0,.14c-.97.25-1.94.5-2.9.74.83-.75,1.87-.8,2.9-.88Z"/>
  <path class="cls-46" d="M137.36,169.94c.24-.71.9-.84,1.49-1.06-.5.35-1,.71-1.49,1.06Z"/>
  <path class="cls-96" d="M138.85,168.88c.24-.47.57-.81,1.14-.84-.38.28-.76.56-1.14.84Z"/>
  <path class="cls-115" d="M133.76,171.28c.1-.03.2-.06.3-.09-.1.03-.2.06-.3.09Z"/>
  <path class="cls-72" d="M161.82,162.95s.07-.06.12-.06c0,.04-.03.07-.07.09,0,0-.04.01-.04.01v-.04Z"/>
  <polygon class="cls-72" points="176.27 168.4 176.28 168.36 176.31 168.38 176.27 168.4"/>
  <polygon class="cls-72" points="175.88 169.54 175.91 169.54 175.9 169.59 175.88 169.54"/>
  <polygon class="cls-115" points="136.42 170.4 136.45 170.34 136.52 170.35 136.48 170.4 136.42 170.4"/>
  <polygon class="cls-115" points="135.39 170.81 135.43 170.76 135.49 170.77 135.45 170.82 135.39 170.81"/>
  <polygon class="cls-115" points="134.77 171.01 134.81 170.96 134.87 170.97 134.83 171.03 134.77 171.01"/>
  <path class="cls-115" d="M61.47,171.21s.11-.07.17-.08c0,.05-.01.1-.04.13,0,0-.08.01-.08.01l-.04-.07Z"/>
  <path class="cls-72" d="M162.45,163.14s.02,0,.02,0c0,0-.02,0-.02,0Z"/>
  <path class="cls-110" d="M135.09,99.31c-.44-7.13-.89-14.25-1.34-21.49.96.15,1.89.3,2.81.45.63.61,2.1-.26,2.22,1.21.19,2.32.29,4.65.46,6.97.32,4.16.67,8.32,1,12.48.29,4.37.58,8.74.88,13.29-1.34-.51-2.5-1.01-3.7-1.39-1.26-.4-1.69-1.13-1.73-2.48-.09-3.02-.4-6.03-.62-9.05Z"/>
  <path class="cls-73" d="M153.25,65.94s.09.12.15.13c3.36.92,4.03,3.25,3.66,6.4-.26,2.23-.03,4.51-.02,6.77.04,2.69.08,5.38.12,8.06v6.77c-1.12-.28-2.84.37-2.45-1.82,0-.04-.26-.13-.4-.19l.02.02c-.08-.34-.33-.43-.64-.43h.01c-.27-.44-.61-.81-.61-1.43.03-7.94.02-15.88.02-23.82,0-.16.09-.31.13-.47Z"/>
  <path class="cls-64" d="M141.1,77c.24-.09.48-.19.87-.33.26,4.26.51,8.49.78,12.71.4,6.13.82,12.25,1.23,18.38.07,1.69.15,3.39.23,5.18-1.26-.47-2.85,0-2.92-2.16-.14-4.03-.55-8.05-.85-12.07-.37-5.16-.82-10.31-1.08-15.47-.08-1.57-.85-3.21.1-4.77.59-.44,1.29-.76,1.64-1.46,0,0-.01,0-.01,0Z"/>
  <path class="cls-98" d="M132.23,81.96c.81.52.49,1.4.59,2.1.73,5.23,1.39,10.47,2.08,15.7.2,3.32.4,6.63.61,10.17-1.01-.67-1.84-1.21-2.66-1.75-1.18-7.35-2.32-14.7-3.57-22.03-.19-1.13.01-1.84.92-2.41.71-.56,1.57-.96,2.05-1.78h-.01Z"/>
  <path class="cls-98" d="M152.47,60.66c.49-.35.98-.71,1.68-1.22-.16,2.13-.31,4.04-.45,5.95-.75-.08-.87.3-.87.98.03,7.87.03,15.74.03,23.61,0,.26,0,.51,0,.79-.52-.08-.51-.42-.54-.72-.23-2.98-.58-5.96-.63-8.94-.03-2.02-.31-3.42-2.7-2.85,0-2.55,0-5,0-7.46.07-1.09.01-2.2.24-3.26.38-1.8-.53-3.84.96-5.44h0c.63-.13,1.12-.48,1.46-1.03,0,0-.01,0-.01,0,.28-.15.56-.3.84-.45Z"/>
  <path class="cls-206" d="M118.22,74.06c.09-.05.18-.1.27-.15.69-.04,1.03-.53,1.35-1.04,0,0-.01,0-.01,0,.32-.17.63-.34,1-.54.63,3.74,1.22,7.47,1.9,11.19.78,4.23,1.64,8.45,2.46,12.68.22,1.31.44,2.61.65,3.92-.06.02-.12.04-.18.06-.35-.9-.86-1.77-1.01-2.69-.23-1.38-.96-1.83-2.23-1.68-.65.08-.97-.19-.96-.84-1.19-6.49-2.35-12.98-3.62-19.46-.13-.67.6-.9.37-1.46Z"/>
  <path class="cls-182" d="M144.18,107.77c-.5-8.3-1.01-16.59-1.51-24.89-.04-.72-.08-1.44-.13-2.29,1.84.48,3.6.96,5.37,1.4.48.12.41.47.43.8.15,1.92.3,3.83.44,5.75,0,.53,0,1.06,0,1.59-1.14.09-2.26.17-3.37.26-.85-.03-.57.61-.57,1.02-.01,7.13,0,14.25,0,21.38-.09,0-.18.01-.27.02-.13-1.68-.26-3.36-.39-5.04Z"/>
  <path class="cls-7" d="M144.63,65.66c.14-1.99.27-3.99.41-5.98,0,0,0-.01,0-.01.38.65.95,1.05,1.66,1.25,0,0-.01,0-.01,0,.32.28.59.65.96.83,1.31.65,1.65,1.61,1.47,3.05-.24,1.99-.23,4.02-.32,6.03-.16,2.41-.32,4.81-.47,7.22-.16.01-.31.02-.47.03q-3.45.05-3.4-3.37c.05-3.01.12-6.03.18-9.04Z"/>
  <path class="cls-176" d="M132.43,81.15c-2.19.63-3.49.17-3.46-2.33.01-.95-.34-1.89-.4-2.85-.06-1.04-.31-1.72-1.55-1.48-.37.07-.55-.12-.59-.52-.26-2.8-.54-5.59-.83-8.6,1.7.34,3.29.64,4.87.99.13.03.27.3.29.47.56,4.77,1.11,9.54,1.66,14.31Z"/>
  <path class="cls-15" d="M133.87,63.8c.77,1.9.45,3.96.81,5.92.09.5.14,1.01.21,1.51.05.68.08,1.37.16,2.05.17,1.48.53,2.99-1.28,3.82-.49.23-.36.76-.33,1.2.3,4.44.6,8.89.68,13.35-.83-6.6-1.67-13.21-2.49-19.81-.17-1.39-.22-2.81-.49-4.18-.16-.81-.07-1.44.47-2.03,0,0,0,.01,0,.01.91-.43,1.71-1.01,2.27-1.86h-.01Z"/>
  <path class="cls-118" d="M142.22,79.79c1.28-4.71-1.99-3.79-4.49-3.87.16-2.32.31-4.5.46-6.76,1.92.51,3.73,1.01,5.55,1.45.48.12.49.38.48.74-.04,1.86-.11,3.71-.08,5.57.02,1.26-.7,1.97-1.92,2.87Z"/>
  <path class="cls-84" d="M144.18,107.77c.13,1.68.26,3.36.39,5.04.09,0,.18-.01.27-.02,0-7.13,0-14.25,0-21.38,0-.41-.28-1.05.57-1.02.35.07.69.13,1.04.2-.34.03-.68.06-1.1.09.79.58,1.48,1.09,2.17,1.6-.79-.39-1.58-.79-2.45-1.22,0,7.15,0,14.17,0,21.18,0,.34-.18.82.42.88,1.72.18,3.45.34,5.2.51,0-5.55-.04-10.87.02-16.19.02-1.63.25-3.24-1.56-4.14,1.39,1.06,2.69.7,3.96-.26.04.05.11.09.12.14,0,.05-.05.13-.1.14-2.24.53-2.23,2.19-2.15,4.02.11,2.43.03,4.87.03,7.31,0,2.94,0,5.88,0,8.93,1.18-.08,2.22-.15,3.35-.22,0-4.49,0-8.85,0-13.2.07,2.89.13,5.78.2,8.66v4.44c.14.01.28.02.41.03.14-.6.27-1.21.41-1.81.07,0,.14,0,.22,0-.07.53-.15,1.06-.25,1.85,1.52-.72,3.3-.07,4.37-1.64.06,0,.13,0,.19,0,0,.65.39.38.69.27.86-.32,1.72-.64,2.58-.96,0,.07,0,.14.01.21-7.72,3.47-15.57,3.38-23.48.77-2.96-.97-5.79-2.26-8.1-4.45.26.14.52.28.79.42.14.07.29.15.43.22.82.54,1.64,1.08,2.66,1.75-.21-3.53-.41-6.85-.61-10.17.07-.15.13-.3.2-.45.22,3.02.53,6.03.62,9.05.04,1.34.48,2.08,1.73,2.48,1.2.38,2.36.88,3.7,1.39-.3-4.55-.59-8.92-.88-13.29.06-.08.12-.15.19-.23.3,4.02.71,8.04.85,12.07.07,2.16,1.66,1.69,2.92,2.16-.08-1.79-.15-3.48-.23-5.18.06,0,.13,0,.19,0Z"/>
  <path class="cls-12" d="M125.2,91.49c.48,3.35.97,6.71,1.45,10.06-.04,0-.08.02-.13.03-.38-1.79-.76-3.58-1.15-5.38.02-.06.03-.12.04-.18-.05-.14-.09-.29-.14-.43-.56-3.03-1.12-6.06-1.68-9.1-.55-2.99-1.1-5.99-1.67-9.13,1.13.27,2.84-.17,3.07.72.41,1.61,1.55,3.51-.19,5.12,0,0,.02,0,.02,0-.52,0-.78.31-.72.78.35,2.51.73,5.01,1.1,7.52Z"/>
  <path class="cls-212" d="M149,87.92c-.12-1.67-.32-3.35-.35-5.02-.02-1.67,1.84-2.03,2.55-3.9.31,4.14.57,7.67.83,11.2-1.77.25-3.31.2-3.04-2.28Z"/>
  <path class="cls-144" d="M147.52,92.29c-.69-.51-1.38-1.02-2.17-1.6.42-.03.76-.06,1.1-.09,1.8,0,3.6.01,5.4.02.62.35,1.24.7,1.85,1.05,0,0-.01-.01-.01-.01.08.34.35.4.64.43,0,0-.02-.02-.02-.02.05.21.13.43-.21.44-.33.18-.66.36-.99.54-1.26.96-2.56,1.32-3.96.26v.02c-.41-.55-.99-.87-1.65-1.04,0,0,.02.01.02.01Z"/>
  <path class="cls-154" d="M126.26,81.96c-1.47-2.53-.88-4.73,1.88-6.77.33,2.02.65,4,.97,5.97-.91.52-2.21-.49-2.85.81h.01Z"/>
  <path class="cls-130" d="M140.55,66.96c.2-.14.4-.28.61-.43,2.92-.64,3.64.27,2.98,3.86-1.93-.5-3.86-1-6.15-1.6.43-.28.67-.44.91-.6.27-.21.55-.42.82-.63.28-.21.55-.41.83-.62Z"/>
  <path class="cls-73" d="M126.33,64.69c2.31-2.06,4.92-1.54,7.54-.89,0,0,.01,0,.01,0-.92.43-1.67,1.05-2.27,1.86,0,0,0-.01,0-.01-1.98.98-3.73-.54-5.83-.7.18-.08.36-.16.54-.24Z"/>
  <path class="cls-33" d="M126.25,81.97c1.9-.83,3.9-.17,5.84-.38.03,0,.09.24.14.37,0,0,.01-.01.01-.01-.69.5-1.37,1-2.06,1.49-1.74,1.73-3.57.25-5.36.15,0,0,0-.26,0-.4,0,0-.02,0-.02,0,.67-.2,1.13-.64,1.47-1.24,0,0-.01.01-.01.01Z"/>
  <path class="cls-114" d="M128.07,74.74c-1.63,1.38-2.56,3.39-5.04,2.49-.68-.24-1.37-.24-1.3-1.17.07-.9.68-1.3,1.51-1.32,1.5-.04,3-.01,4.83-.01Z"/>
  <path class="cls-158" d="M136.57,78.06c-.85-.18-1.71-.37-2.72-.59,2.34-2.36,5.07-.81,7.67-1.21-.21.36-.32.55-.42.73,0,0,.01,0,.01,0-.66.48-1.31.96-1.97,1.44-.86-.12-1.72-.25-2.57-.37Z"/>
  <path class="cls-229" d="M158.67,65.41c.89.43,1.79.85,2.68,1.28-1.88.77-3.73,1.6-5.72.25-.69-.47-1.52-.75-2.28-1.12.12-.07.24-.13.36-.2,1.66-.05,3.29-.62,4.97-.21Z"/>
  <path class="cls-113" d="M142.13,79.95c3.15-.67,5.93.04,8.61-.67-1.7,2.81-3.51,3-8.61.67Z"/>
  <path class="cls-39" d="M136.57,78.06c.86.12,1.72.25,2.57.37.11,0,.22.01.32.02-.95,1.56-.18,3.2-.1,4.77.25,5.16.7,10.32,1.08,15.47-.06.08-.12.15-.19.23-.34-4.16-.69-8.32-1-12.48-.18-2.32-.28-4.65-.46-6.97-.12-1.47-1.59-.6-2.22-1.21,0-.07,0-.14,0-.21Z"/>
  <path class="cls-113" d="M150.93,78.79c-2.42.77-4.89.4-7.35.28,2.36-1.54,4.91-.17,7.35-.28Z"/>
  <path class="cls-59" d="M148.79,70.82c.09-2.01.08-4.04.32-6.03.17-1.43-.17-2.4-1.47-3.05-.37-.18-.64-.55-.96-.83,1.28.09,1.86,2.2,3.51,1.23-1.49,1.6-.58,3.63-.96,5.44-.22,1.05-.17,2.17-.24,3.26-.07,0-.14,0-.21,0Z"/>
  <path class="cls-197" d="M151.85,90.62c-1.8,0-3.6-.01-5.4-.02-.35-.07-.69-.13-1.04-.2,1.12-.09,2.23-.17,3.37-.26v-1.59c.07-.21.14-.42.21-.63-.27,2.47,1.27,2.52,3.04,2.28-.06.14-.12.28-.18.42Z"/>
  <path class="cls-206" d="M125.28,95.59c.05.14.09.29.14.43-.05-.14-.09-.29-.14-.43Z"/>
  <path class="cls-113" d="M147.85,78.06c.16-.01.31-.02.47-.03-.16.01-.31.02-.47.03Z"/>
  <path class="cls-187" d="M13.77,84.24c-.08-.35-.15-.7-.23-1.05,0-.31.08-.65-.02-.92-.62-1.83.26-2.01,1.83-2,19.39.05,38.78.04,58.18.04.41,0,.81,0,1.2,0,.11.5.19.89.27,1.28-.03.18-.06.36-.1.54-.05-.05-.09-.1-.14-.14,0,0-.07.03-.07.04.08,1.1-.55,2.17-.1,3.28-.04.24-.08.48-.12.72-.05-.11-.09-.21-.35-.83.13,1,.19,1.48.25,1.96-.03.17-.05.35-.08.52-.02-.03-.05-.08-.07-.07-.07,0-.19.03-.19.06-.36,3.09-.69,6.18-1.06,9.26-.33,2.85-.7,5.69-1.03,8.54-.06.49-.42.55-.75.72-3.37,1.74-6.77,3.45-9.56,6.11,0,0,0,0,0,0-.13.02-.25.03-.38.05.58-5.98,1.74-11.89,1.95-17.92.08-2.27-.52-3.96-2.28-4.38-5.13-1.22-10.36-1.83-15.57-2.5-5.15-.66-10.3-1.27-15.47-1.81-5.37-.56-10.75-1-16.13-1.5Z"/>
  <path class="cls-109" d="M13.11,80.77c-.16-.7-.72-.48-1.15-.47-1.25,0-1.96-.56-1.9-1.84.11-2.54-.3-5.1.22-7.63.09,0,.18.01.27.02-.36,2.73-.15,5.47-.11,8.21.01.67.66.89,1.3.89,16.08-.02,32.16-.04,48.24-.06,1.65.01,3.3.05,4.94.04,4.19-.03,8.38-.09,12.57-.13.04.06.08.12.12.18-.77.57-1.7.11-2.51.38-.28-.08-.56-.23-.84-.23-20.08,0-40.16,0-60.24,0-.5,0-.89.03-.9.65Z"/>
  <path class="cls-85" d="M13.11,80.77c0-.62.41-.65.9-.65,20.08,0,40.16,0,60.24,0,.28,0,.56.15.84.23-.03.41-.06.83-.09,1.24-.08-.39-.17-.79-.27-1.28-.39,0-.79,0-1.2,0-19.39,0-38.78.01-58.18-.04-1.58,0-2.46.17-1.83,2,.09.28.02.61.02.92-.06,0-.11,0-.17.01-.09-.81-.18-1.62-.26-2.43Z"/>
  <path class="cls-85" d="M74.59,85.31c-.45-1.11.18-2.18.1-3.28,0-.01.06-.05.07-.04.05.04.1.09.14.14-.1,1.06-.21,2.12-.31,3.17Z"/>
  <path class="cls-85" d="M74.38,87.17c-.06-.48-.12-.95-.25-1.96.26.61.3.72.35.83-.03.38-.06.75-.09,1.13Z"/>
  <path class="cls-116" d="M59.98,79.88c-16.08.02-32.16.04-48.24.06-.65,0-1.29-.21-1.3-.89-.04-2.74-.26-5.48.11-8.21.38-.34.82-.42,1.32-.42,21.49,0,42.98,0,64.47,0,.39,0,.78.15,1.17.23-10.98.2-21.96.41-32.92,1.14.94.15,1.89.2,2.83.27,3.62.27,7.26.41,10.74,1.63.56.2,1.35.28,1.4,1.02.05.73-.71.96-1.23,1.24-2.02,1.07-4.23,1.63-6.45,2.07-2.08.42-4.19.72-6.28,1.08,3.52.4,7.03.37,10.53.42,1.29.02,2.58.23,3.86.35Z"/>
  <path class="cls-193" d="M59.98,79.88c-1.29-.12-2.57-.33-3.86-.35-3.5-.05-7-.02-10.53-.42,2.09-.36,4.2-.66,6.28-1.08,2.22-.45,4.43-1,6.45-2.07.52-.27,1.28-.5,1.23-1.24-.05-.74-.84-.83-1.4-1.02-3.47-1.22-7.12-1.36-10.74-1.63-.94-.07-1.89-.12-2.83-.27,10.97-.73,21.95-.94,32.92-1.14.14.13.29.27.43.4,0,2.51,0,5.02.02,7.53,0,.48-.12.87-.47,1.2-4.19.04-8.38.1-12.57.13-1.65.01-3.3-.03-4.94-.04Z"/>
  <path class="cls-116" d="M42.23,29.08c1.24,0,2.49.02,3.73.03.14.14.28.27.42.41.05,1.25-1.03.77-1.61,1.05-.6.29-1.83.11-1.63,1.01.59,2.66.69,5.33.87,8.03.34,5.13.93,10.25.84,15.39-.09,5-.49,9.99-.76,14.99-.83,0-1.66,0-2.49,0,0-8.26-.02-16.52-.02-24.78.01-4.97.03-9.94.04-14.91,0-.51-.11-1.07.6-1.22Z"/>
  <path class="cls-14" d="M44.1,69.99c.27-5,.67-9.99.76-14.99.09-5.14-.5-10.26-.84-15.39-.18-2.69-.28-5.37-.87-8.03-.2-.9,1.03-.73,1.63-1.01.58-.28,1.66.2,1.61-1.05.05.47.11.94.16,1.41-.04.37-.11.74-.11,1.12-.02,11.94-.09,23.89.03,35.83.02,2.03-.6,2.49-2.36,2.12Z"/>
  <path class="cls-9" d="M131.62,107.53c2.31,2.19,5.14,3.48,8.1,4.45,7.91,2.6,15.76,2.69,23.48-.77.7-.37,1.55-.5,2.06-1.2,0,0,0,.02,0,.02.82-.2,1.52-.59,2.07-1.24h-.02c1.29-.4,2.11-1.43,3.09-2.25.74-.72,1.65-1.29,2.09-2.29h0c.53-.25.92-.64,1.04-1.24h0c.21-.2.42-.41.63-.62.35-.55.69-1.09,1.04-1.64.54-.77,1.11-1.52,1.22-2.49h-.01c.15-.19.31-.38.46-.58.27,1.77-.49,3.39-.77,5.08-1.37,8.19-2.48,16.41-3.62,24.62-1.35,9.8-2.08,19.71-4.52,29.34-.03.13-.07.26-.11.4-1.36,4.56-1.8,4.79-6.35,3.64-5.91-1.49-11.89-.99-17.87-.59-.1-.62-.57-1.36-.05-1.82.45-.41,1.07.12,1.59.35.67.29,1.1-.1,1.26-.67.48-1.7.91-3.41,1.3-5.12.11-.48.07-1.03-.41-1.39,0,0,0,0,0,0-.08-.21-.17-.41-.25-.62-.19-.14-.39-.28-.58-.42h0c-1.66-.35-2.44-1.69-3.3-2.94-.18-.26-.54-.38-.82-.57-.02-.03-.04-.06-.04-.09,0-.02.02-.06.04-.06.37-.09.74-.18,1.1-.26.6-.67.35-1.2-.29-1.65h0c-.14-.2-.28-.41-.42-.62l.02.02c-.06-.07-.13-.14-.19-.21-.56-1.1-1.12-2.2-1.68-3.31,0-.05,0-.1,0-.16,1.99-.21,2.03-2.41,3.37-3.28.83-.35,1.67-.7,2.5-1.05.57-.64.02-.87-.42-1.14-.08-.06-.16-.11-.24-.17-.72-.59-1.57-.68-2.45-.63-.86-.16-.69-.69-.52-1.3,1.05-3.7,1.13-7.35-.66-10.87-.93-2.24-2.33-4.16-4.02-5.87-.05-.09-.1-.18-.15-.28-.7-.63-1.41-1.26-2.11-1.89h0c-.77-.7-1.54-1.4-2.31-2.1-.81-.59-1.61-1.19-2.42-1.78-.22-.08-.43-.16-.65-.25,0,0,0,0,0,0-1.17-.76-2.34-1.51-3.51-2.27-3.75-2.03-7.74-3.49-11.84-4.62-.69-.19-1.02-.44-1.1-1.17-.18-1.73-.44-3.46-.69-5.18-.11-.76.14-1.04.93-1,2.91.17,5.82.3,8.73.4.67.02.71.44.88.91.79,2.16,1.39,4.43,3.11,6.12,0,0-.02,0-.02,0,.11.53.36.93.93,1.04l.07.02.02.08c.44,1.1,1.3,1.8,2.28,2.38h-.01c.21.44.53.75,1.04.83v-.02Z"/>
  <path class="cls-130" d="M173.94,80.31c-.18,2.98-1.08,5.83-1.67,8.74-1.19,5.81-2.49,11.6-3.68,17.41-.2.95-.55,1.71-1.28,2.32,0,0,.02,0,.02,0-.78.26-1.48.66-2.07,1.24,0,0,0-.02,0-.02-.44.17-.88.33-1.36.51.95-4.29,1.93-8.57,2.85-12.86,1.33-6.27,2.62-12.54,3.93-18.81.06-.28.24-.53.37-.8,0,0-.01-.02-.01-.02.22.44.53.77,1.05.84h-.01c.46.68,1.11,1.14,1.87,1.45h0Z"/>
  <path class="cls-30" d="M169.17,73.53c-.07,2.82-.26,5.64-.18,8.45.18,6.88-2.45,13.23-3.41,20-.61-.47-.52-1.23-1.15-1.44h.01c-.06-.43-.16-.86-.16-1.3-.01-7.79-.01-15.58-.01-23.37,0-.36-.1-.75.43-.91,1.5-.46,2.99-.95,4.48-1.43Z"/>
  <path class="cls-165" d="M177.38,65.86v12.68c-.99-1.28-1.98-1.2-2.91-1.06-1.4.21-1.7-.32-1.63-1.66.14-2.71.13-5.42.08-8.14-.02-.93.29-1.25,1.16-1.34,1.15-.11,2.29-.33,3.31-.49Z"/>
  <path class="cls-186" d="M168.97,72.89c-.46-2.88,0-5.77.02-8.65.13.06.27.11.4.17.55.35,1.09.7,1.64,1.05,1.51.61,1.75,1.76,1.68,3.27-.13,2.87-.04,5.76-.04,8.83-2.28-.62-2.28.79-2.49,2.12-.22,1.42-.55,2.82-.82,4.17v-10.55c.04-.3-.07-.45-.39-.4Z"/>
  <path class="cls-107" d="M159.72,111.69c-1.07,1.57-2.85.92-4.37,1.64.11-.79.18-1.32.25-1.85.71-3.52,1.43-7.05,2.15-10.64.62.79,1.17,1.49,1.72,2.19,2.49,2.14.62,4.61.53,6.94-.02.58-.19,1.15-.28,1.72Z"/>
  <path class="cls-181" d="M163.19,110.99c-.86.32-1.72.65-2.58.96-.3.11-.68.38-.69-.27.33-1.64.79-3.26.94-4.91.14-1.45.84-1.98,2.15-2.11.63-.06,1.25-.28,2.04-.47-.69,2.36-.91,4.67-1.86,6.8Z"/>
  <path class="cls-41" d="M164.43,100.54c1.02,3.37,1.02,3.39-2.52,4.1-1.53.31-1.46-1.45-2.38-1.95-.52-.75-1.04-1.5-1.58-2.28.56-.09,1.05-.16,1.54-.24,1.64.23,3.36-.63,4.95.37h-.01Z"/>
  <path class="cls-84" d="M164.44,100.55c-1.58-1.01-3.31-.14-4.95-.37-.01-.1-.03-.2-.04-.3v-4.73c-1.69.8-3.22,1.53-4.76,2.26-.21-.18-.14-.31.07-.41,1.49-.68,2.98-1.37,5.05-2.32-2.12-.22-3.6-.38-5.07-.54-.08-.22-.16-.44-.24-.65.03-.4-.01-.76-.4-.99.35-.01.27-.23.21-.44.14.07.41.15.4.19-.39,2.18,1.33,1.54,2.45,1.82,0-2.27,0-4.52,0-6.77.01-2.61.02-5.21.03-7.82.06,0,.12,0,.18,0,.03,4.05.13,8.1.05,12.15-.03,1.71.02,3.07,2.31,2.82,0-3.05,0-6.21,0-9.36.05.37.14.73.14,1.1.03,3.43.05,6.86.07,10.29,0,1.12,0,2.24,0,3.47,1.42-.06,2.73-.12,4.06-.18,0-7.47-.05-14.81.04-22.15.02-1.73-.15-3.14-1.95-3.84.05-.05.09-.1.13-.16,2.03,1.08,5.63.69,6.76-.74,0,0-.01,0-.01,0,.32-.05.43.11.39.4-.06.08-.13.16-.19.24-1.49.48-2.98.98-4.48,1.43-.53.16-.43.55-.43.91,0,7.79,0,15.58.01,23.37,0,.44.11.87.16,1.31Z"/>
  <path class="cls-31" d="M177.98,79.13c.17.12.33.24.5.36.14.13.29.27.58.54-1.83.02-3.44.57-5.13.29,0,0,0,0,0,0-.47-.69-1.12-1.13-1.87-1.46h.01c-.21-.44-.58-.7-1.05-.83,0,0,.01.02.01.02,2.41-.29,4.87-.84,6.94,1.08Z"/>
  <path class="cls-55" d="M169.41,64.16c2.72-.5,5.46-1.08,7.81,1.38-1.99,0-3.9,1.44-5.84-.12-.66-.42-1.31-.84-1.97-1.26Z"/>
  <path class="cls-23" d="M159.45,99.88c.01.1.03.2.04.3-.49.08-.98.15-1.54.24.54.78,1.06,1.53,1.58,2.28-.02.11-.04.22-.05.33-.55-.7-1.1-1.4-1.72-2.19-.73,3.59-1.44,7.12-2.15,10.64-.07,0-.14,0-.22,0,.59-3.11,1.29-6.21,1.73-9.35.21-1.54.58-2.5,2.34-2.26Z"/>
  <path class="cls-93" d="M169.41,64.16c.66.42,1.31.84,1.97,1.26-.12.01-.23.02-.35.03-.55-.35-1.09-.7-1.64-1.05,0-.08.01-.16.02-.24Z"/>
  <path class="cls-32" d="M131.44,110.27c.81.59,1.61,1.19,2.42,1.78.47,1.03,1.4,1.55,2.31,2.11h0c.61.73,1.1,1.61,2.11,1.89.05.09.1.18.15.28,1.15,2.03,2.92,3.66,3.76,5.88,1.93,3.94,1.55,7.95.39,11.99-.16.05-.32.15-.48.15-16.85,0-33.7,0-50.54.01.63-.13,1.26-.27,1.9-.37,4.45-.68,8.98-.53,13.41-1.62,8.53-2.1,11.13-10.93,10.12-16.75.09-.43.49-.88-.04-1.29-.89-2.6-2.29-4.79-4.76-6.17.2-.35.88-.56.58-1.04-.41-.67-1.15-.49-1.81-.41-1.1-1.18-2.56-1.77-3.98-2.42-2.95-1.37-6.14-1.97-9.24-2.88,1.59.04,3.18.08,4.77.13,8.4.46,16.44,2.29,23.97,6.14.15.08.33.08.49.12,0,.52-1.45-.29-.78.85.22.48.55.84,1.05,1.03,1.09,1.05,2.36.35,3.55.37h0c.14.27.26.6.65.24ZM133.47,116.43c.69.36,1.29.23,1.83-.31-.12.08-.24.16-.35.25-.06-.17-.12-.35-.18-.52.24-.81-.48-.94-.91-1.2-.61-.35-1.32-.45-1.98-.15-.46.21-.14.49.08.71.32.64.8,1.08,1.52,1.22ZM120.89,111.48c.21.3.38.66.85.61h0c.15.39.47.63.7.18.31-.63.23-1.38-.13-1.97-.31-.52-.55-1.28-1.43-1.13-.08.34-.16.67-.23,1.01-.09-.32-.17-.64-.32-1.21-.08,1.09,0,1.87.58,2.52ZM127.25,116.64c-.38-1.72-2-2.68-3.44-2.04.48,1.7,1.92,2.56,3.44,2.04ZM118.08,105.49c-1.49-.07-2.65.48-3.27,1.92-.18.42.19.54.52.55,1.57.02,2.48-.79,2.81-2.3,0-.03-.02-.06-.06-.16Z"/>
  <path class="cls-44" d="M128.32,104.35l-.02-.08-.07-.02c-.31-.35-.62-.7-.93-1.04,0,0,.02,0,.02,0-.64-3.98-1.28-7.97-1.92-11.95-.34-2.43-.68-4.85-1.03-7.37,1.07.2,1.98.47,2.89.52,1.16.06,1.61.49,1.73,1.7.24,2.32.72,4.6,1.08,6.91.78,4.97,1.56,9.95,2.34,14.93-.26-.14-.52-.28-.79-.42,0,0,0,.02,0,.02-.23-.43-.56-.72-1.04-.83,0,0,.01,0,.01,0-.76-.79-1.52-1.59-2.28-2.38Z"/>
  <path class="cls-106" d="M116.73,94.97c-1.26-6.85-2.51-13.7-3.79-20.67,1.43.16,2.79.32,4.15.45.51.05.42.43.48.76,1.23,6.56,2.47,13.12,3.71,19.68-.03.24.13.6-.34.57-1.27-.07-2.54-.14-3.81-.2-.42-.02-.34-.35-.4-.6Z"/>
  <path class="cls-162" d="M132.41,107.95c-.78-4.98-1.55-9.95-2.34-14.93-.36-2.3-.85-4.59-1.08-6.91-.12-1.21-.58-1.64-1.73-1.7-.92-.05-1.82-.32-2.89-.52.35,2.51.69,4.94,1.03,7.37-.07.08-.13.15-.2.23-.37-2.5-.75-5.01-1.1-7.52-.06-.47.19-.78.72-.78,0,.14,0,.4,0,.4,1.79.1,3.63,1.58,5.36-.15,0,.1,0,.19,0,.29-.91.58-1.11,1.29-.92,2.41,1.25,7.33,2.39,14.68,3.57,22.03-.14-.07-.29-.15-.43-.22Z"/>
  <path class="cls-126" d="M126.2,108.63c-.67-1.14.78-.33.78-.85.1,0,.21-.02.31-.02,1.17.76,2.34,1.51,3.51,2.27-1.2-.02-2.47.68-3.55-.37.03-.04.07-.08.1-.12.66.26,1.32.52,2.2.38-.9-1.05-1.74-1.93-3.22-1.39-.04.03-.09.07-.13.1Z"/>
  <path class="cls-128" d="M162.09,73.78c1.8.7,1.97,2.11,1.95,3.84-.09,7.34-.04,14.68-.04,22.15-1.34.06-2.64.12-4.06.18,0-1.22,0-2.35,0-3.47.04-6.43.08-12.86.12-19.29v-4.5c.75.4,1.39.74,2.03,1.08Z"/>
  <path class="cls-102" d="M159.73,85.09v9.36c-2.29.25-2.34-1.11-2.31-2.82.08-4.05-.02-8.1-.05-12.15,0-3.43.02-6.86-.06-10.29-.02-.92.19-1.24,1.12-1.33,1.08-.11,2.13-.45,3.31-.71,0,1.39-.01,2.71,0,4.04.01.73-.62.61-1,.8-.33.16-.89-.01-.89.62-.04,4.16-.08,8.31-.13,12.47Z"/>
  <path class="cls-99" d="M168.98,72.88c-1.13,1.43-4.73,1.82-6.76.74-.56-.37-1.12-.74-1.72-1.13,2.5-1.26,4.91-1.55,7.33,0,.33.21.76.26,1.15.39Z"/>
  <path class="cls-20" d="M159.73,85.09c.04-4.16.09-8.31.13-12.47.07,1.53.14,3.05.21,4.58-.04,6.43-.08,12.86-.12,19.29-.02-3.43-.04-6.86-.07-10.29,0-.37-.09-.73-.14-1.1Z"/>
  <path class="cls-102" d="M157.2,79.49c-.01,2.61-.02,5.21-.03,7.82-.04-2.69-.08-5.38-.12-8.06.05.08.1.16.15.24Z"/>
  <path class="cls-34" d="M185.09,95.79c-1.41.06-2.81.14-4.22.19-.46.01-.26-.36-.27-.6,1.35-5.98,2.75-11.94,4.01-17.94.28-1.31.8-1.55,1.98-1.38.97.14,1.98.03,3.09.03-1.56,6.7-3.07,13.2-4.58,19.7Z"/>
  <path class="cls-176" d="M180.37,95.39c-.03.83-.67.69-1.12.6-1.88-.36-2.57.68-2.86,2.28,0,0,.01-.01.01-.01-.14.14-.28.29-.41.43.04-.3.07-.61.13-.91.8-3.74,1.6-7.47,2.4-11.21.99-4.38,1.99-8.76,2.99-13.16.27.18.52.34.77.51.32.27.64.54.95.81,1.37.79,1.31,1.91.99,3.3-1.34,5.77-2.57,11.57-3.85,17.36Z"/>
  <path class="cls-176" d="M188.52,74.84c.35.26.7.52,1.05.78-2.06.08-4.22.79-6.02-.89-.32-.27-.64-.54-.95-.82-.17-.16-.34-.33-.66-.64,1.9.1,3.64-.05,5.34.49.42.36.84.71,1.25,1.07Z"/>
  <path class="cls-117" d="M182.59,73.91c.32.27.64.54.95.82-.11,0-.21,0-.32,0-.32-.27-.64-.54-.95-.81.11,0,.21,0,.32,0Z"/>
  <path class="cls-156" d="M119.85,72.87c-.32.52-.67,1-1.35,1.04.45-.35.9-.7,1.35-1.04Z"/>
  <path class="cls-165" d="M170.23,106.34c-.47.38-.95.76-1.53,1.22,1.31-6.22,2.59-12.31,3.88-18.39.5-2.38,1.07-4.74,1.48-7.13.17-1,.53-1.37,1.55-1.37,1.12,0,2.23-.21,3.45-.35-.41,1.92-.8,3.74-1.19,5.57-1.03,4.75-2.06,9.5-3.08,14.25-.23.66-.45,1.32-.68,1.98-.2.3-.4.6-.6.9h0c-.47.3-.85.69-1.04,1.24,0,0,0,0,0,0-.75.7-1.5,1.4-2.26,2.1Z"/>
  <path class="cls-127" d="M174.79,100.13c1.03-4.75,2.06-9.5,3.08-14.25.08,0,.15,0,.23.01-.02.27-.03.54-.05.81-.14.62-.27,1.24-.41,1.87-.21,1.03-.41,2.07-.62,3.1v-.02c-.17.69-.36,1.38-.54,2.08-.03.28-.05.55-.08.83v-.02c-.11.42-.24.83-.36,1.25-.07.34-.14.69-.2,1.03-.02.21-.04.42-.06.63v-.02c-.06.28-.13.56-.21.85,0,0,0-.02,0-.02-.06.21-.12.43-.18.64-.08.34-.16.69-.24,1.03,0,0,0-.02,0-.02-.07.07-.15.15-.22.22-.05,0-.11,0-.16,0Z"/>
  <path class="cls-18" d="M170.23,106.34c.75-.7,1.5-1.4,2.26-2.1-.43,1-1.34,1.57-2.09,2.29-.06-.06-.11-.13-.17-.19Z"/>
  <path class="cls-11" d="M116.98,115.61c1.01,5.82-1.58,14.65-10.12,16.75-4.42,1.09-8.96.94-13.41,1.62-.64.1-1.26.25-1.9.37-.55,0-1.09,0-1.64,0-.37-.05-.73-.15-1.1-.15-4.08-.01-8.17,0-12.25,0-4.07,0-8.16.19-12.18-.64-2.41-.5-4.64-1.78-7.28-1.27-2.06.4-3.56-.64-4.52-2.46-.08-.78-.21-1.56-.24-2.34-.13-2.78,1.18-5.14,2.28-7.55h0c.14-.2.28-.41.42-.62h0c.14-.2.28-.41.42-.62h0c.36-.15.59-.42.63-.83h0c.52-.26.85-.69,1.04-1.24h0c1.1-1.09,2.21-2.2,3.31-3.3h-.01c.43-.29.85-.58,1.28-.87.06-.01.1-.05.12-.1.24-.18.48-.35.71-.53.05-.01.09-.04.1-.1,1.74-1.11,3.48-2.23,5.22-3.34-.27.66-.96.83-1.46,1.22-3.98,3.04-7.68,6.31-9.29,11.3-1.09,3.39.06,4.95,3.56,4.56,1.68-.19,3.55-.25,3.38-2.99-.11-1.8.7-3.6,1.98-5.03,1.23.47,2.27.19,2.5-.66.1-.1.2-.2.3-.3.85.01.65-.79,1.08-1.27-.43-.04-.73-.06-1.02-.08,1.42-.09,1.87-1.38,2.7-2.2,0,0,0,0,0,0,.07-.07.14-.14.21-.21,2.2-2.05,4.76-3.62,7.18-5.37.59,1.52,1.29.28,1.95.08.21-.21.42-.42.63-.64.11-.23.23-.45.34-.67.06-.34.12-.67.18-1.01,1.98-1.53,4.44-2.11,6.6-3.29,3.01-.5,6.05-.49,9.09-.43,3.09.91,6.29,1.51,9.24,2.88,1.41.66,2.88,1.24,3.98,2.42-.82.3-2.08.66-1.73,1.55.29.74,1.62.49,2.51.14.16-.06.3-.16.45-.24,2.46,1.38,3.87,3.58,4.76,6.17-1.69.24-2.67,1.19-2.99,2.97.81-.03,1.54.09,1.97-.68h0c.66,0,.72-.65,1.07-1ZM86.88,118.95c.24-.39.48-.78.75-1.22-1.95-.3-3.18.54-3.66,2.4.77.34,1.44.13,2.08-.33.28-.28.55-.56.83-.84ZM92.21,114.59c-1.04.65-1.06,1.58-.83,2.71,1.76-.65,2.57-1.74,2.37-3.62-.69.18-1.3.23-1.55.92h0ZM98.64,106.68c-.79,0-.66.64-.86,1.08,1.69.45,3.26-.61,3.51-2.36-.74.23-1.72-.37-2.13.77-.17.17-.35.34-.52.51ZM84.64,108.64c-2.12.83-2.93,2.34-2.14,3.81,1.55-.76,2.42-1.87,2.14-3.81ZM103.26,116.47c-1.76-.03-3.03.58-3.53,2.39,1.52.55,3.01-.46,3.53-2.39ZM92.73,108.96c-1.8.82-2.29,2.65-1.1,3.91,1.46-.96,1.68-2.28,1.1-3.91ZM100.1,112.19c1.84-.13,3.09-1.42,2.9-2.95-2,.3-2.92,1.22-2.9,2.95ZM87.37,105.53c.81,2.06,2.14,2.79,3.74,2.07-.75-1.56-1.87-2.39-3.74-2.07ZM74.7,113.99c.56,1.96,2.18,2.82,3.72,1.96-.74-1.6-1.96-2.26-3.72-1.96ZM109.58,113.65c-1.24-1.62-2.83-2.04-4.13-1.14.95,1.7,2.49,2.14,4.13,1.14Z"/>
  <path class="cls-63" d="M71.56,112.93c-.82.83-1.27,2.11-2.7,2.2-.52.14-1.13.11-1.43.7h.01c-.07.06-.14.13-.22.21h0c-.7.22-.79.96-1.23,1.41-1.28,1.44-2.09,3.23-1.98,5.03.17,2.75-1.7,2.81-3.38,2.99-3.49.39-4.65-1.17-3.56-4.56,1.61-4.99,5.31-8.26,9.29-11.3.5-.38,1.19-.55,1.46-1.22,0,0,0,0,0,0,.07-.05.13-.1.2-.15.47-.25.95-.51,1.42-.76.01.51.03,1.01.04,1.52-.7.62-1.5,1.16-1.46,2.25,1.28.33,1.97,1.88,3.51,1.67Z"/>
  <path class="cls-188" d="M69.51,109.01c-.01-.51-.03-1.01-.04-1.52,3.83-2.15,7.99-3.38,12.2-4.48,2.33-.4,4.65-.79,6.98-1.19-2.16,1.18-4.62,1.76-6.6,3.29-.11,0-.21.01-.32.02-.09.04-.18.07-.27.11-.5.27-1,.55-1.5.82-.55.26-.81.75-1.02,1.29-2.42,1.75-4.97,3.33-7.18,5.37-.07.07-.14.14-.21.21,0,0,0,0,0,0-1.54.21-2.23-1.34-3.51-1.67.45,0,.9-.01,1.34-.02.1-.04.2-.08.3-.13.07-.02.14-.03.21-.05.06-.05.13-.09.19-.14.77-.55,1.45-1.17,1.74-2.31-.72.07-1.31.13-1.91.18-.08.05-.15.09-.23.14-.06.04-.12.06-.19.06Z"/>
  <path class="cls-187" d="M61.8,112.36c-.02.06-.06.09-.12.1,0-.06-.02-.11-.04-.16,0,0,0,0,0,0,.05.03.1.05.16.06Z"/>
  <path class="cls-187" d="M62.62,111.74c-.01.05-.05.09-.1.1.01-.06.05-.09.1-.1Z"/>
  <path class="cls-11" d="M68.05,108.25c-.07.05-.13.1-.2.15.07-.05.13-.1.2-.15Z"/>
  <path class="cls-9" d="M13.77,84.24c5.38.49,10.76.94,16.13,1.5,5.16.54,10.32,1.15,15.47,1.81,5.22.66,10.45,1.27,15.57,2.5,1.76.42,2.36,2.11,2.28,4.38-.2,6.03-1.36,11.94-1.95,17.92-.29.33-.57.67-.86,1,0,0,.01,0,.01,0-1.36.85-2.46,1.95-3.31,3.31h0c-.53.25-.88.67-1.04,1.24h0c-.37.14-.6.41-.63.83h0c-.32.08-.46.29-.42.62h0c-.33.07-.45.3-.42.62h0c-2.25,2.93-2.9,6.27-2.46,9.87.08,1.75-.79,3.29-1.06,4.96-.36.32-.73.65-1.09.97-.62.28-1.24.56-1.85.84-.61.28-.61.29-.36.87,1.32.24,2.58.47,3.7-.72.45-.47,1.8-.82,1.79.26-.02,2.05.2,3.59,2.86,3.65-.47.35-.72.52-.96.7-.35.2-.69.4-1.04.61-.46.3-.92.59-1.38.89-.16.12-.32.24-.48.36-.28.2-.56.4-.84.6-.88.71-2.06,1.26-1.37,2.75.48.85,1.36.77,2.21.88-.61,1.36-.77,2.7.03,4.01.32.53-.2.61-.38.88-.81,1.16-2.49.45-3.32,1.55-.06,0-.09.04-.1.1-.52.07-.5.49-.54.85-.26,2.19.97,3.29,3.34,2.97.98-.13,2.04-.29,1.62,1.24-.44,1.56-.4,3.09-.15,4.65-.41.31-.82.61-1.23.93-3.19,2.49-7.02,3.47-10.78,4.61-5.75.09-11.44-.19-16.9-2.25-2.82-1.28-1.97-3.98-2.23-6.14-.9-7.71-1.62-15.44-2.41-23.16-.52-5.17-1.04-10.34-1.56-15.51-.03-.34-.12-.67-.19-1-.3-3.16-.6-6.33-.9-9.49-.39-3.58-.78-7.16-1.17-10.74-.52-5.09-1.04-10.18-1.56-15.28-.05-.47-.07-.95-.1-1.43Z"/>
  <path class="cls-128" d="M150.19,62.13c-1.65.97-2.23-1.14-3.51-1.23,0,0,.01,0,.01,0-.43-.59-.96-1.03-1.66-1.25,0,0,0,.01,0,.01.38-.77,1.27-.81,1.85-1.29,2.54-2.15,4.55.2,6.97.74-.56.5-.98.87-1.4,1.24-.28.25-.55.49-.83.74h.01c-.59.19-1.1.5-1.46,1.03h0Z"/>
  <path class="cls-75" d="M151.63,61.11c.28-.25.55-.49.83-.74,0,.1,0,.19.01.29-.28.15-.56.3-.84.45Z"/>
  <path class="cls-127" d="M178.52,86.57c-.8,3.74-1.6,7.47-2.4,11.21-.06.3-.09.61-.13.91,0,0,.02-.02.02-.02-.06.01-.13.02-.19.02-.07,0-.13,0-.2,0,0-.14-.02-.29-.03-.43,0,0,0,.02,0,.02.07-.28.14-.56.22-.85,0,0-.01.02-.01.02.06-.21.12-.42.17-.63.07-.34.15-.69.22-1.03.08-.42.16-.83.24-1.25,0,0,0,.02,0,.02.06-.28.12-.56.19-.84.15-.69.29-1.38.44-2.07,0,0,0,.02,0,.02.26-1.04.53-2.07.79-3.11.14-.62.27-1.24.41-1.86.03-.13.07-.26.1-.39.07.09.13.18.2.26Z"/>
  <path class="cls-204" d="M61.63,170.94c-2.07-.4-3.8-1.5-5.46-2.71-.39-.41-.79-.83-1.18-1.24-.45-.67-.9-1.34-1.36-2.02-.08-.08-.16-.16-.24-.25,0,0,0,0,0,0-.43-1.96-1.03-3.93.04-5.91.89.27,1.8.32,2.73.23,1.04-.1,2.13-.4,3.01.5.74.85,1.68,1.02,2.76.94.87-.06,1.73-.46,2.61-.11,1.1.62,2.52.83,2.87,2.4.05.23.54.37.83.56,1.11.41,2,.26,2.22-1.07.15-.9.78-.91,1.37-.79,1.12.22,1.84-.22,2.37-1.14.28-.33.56-.66.84-.98.83.55,1.66,1.11,2.49,1.66,0,0,0,0,0,0,.07.07.14.13.21.2.27.29.53.59.8.88.5.89.98,1.8,1.52,2.68,1.02,1.66,2.31,1.99,3.94.81,1.75-1.26,3.45-2.61,5.52-3.35.79-.28,1.37-.36,1.85.58.74,1.46,2.11,1.41,2.97.39,2.9-3.4,5.96-2.89,9.14-.65,2,1.41,4.3,1.42,6.55,1.78.71.11,1.69.24,1.72,1.18.03.93-.97.98-1.61,1.14-5.68,1.44-11.46,2.26-17.32,2.62-8.51.51-17.01,1.08-25.52,1.59-1.88.11-3.78.05-5.67.07Z"/>
  <path class="cls-13" d="M123.15,158.49c-2.06,1.47-3.99,1.56-5.79-.46-.33-.37-.83-.27-1.25-.06-.55.27-.61.77-.63,1.31-.03.73.31,1.47-.29,2.16-.95,1.09-1.81,1.81-3.25.62-2.11-1.75-4.27-1.85-6.69-.29-1.06.69-2.29-.44-3.4-.9.03-.04.07-.08.1-.12,1.74.88,3.32.93,5.15-.16,2.27-1.35,3.9.87,5.79,1.59.29.11.6.78.98.08.94-.73,1.42-1.53,1.31-2.87-.14-1.6.88-2.2,2.44-1.7,1.61,2.34,3.56,1.56,5.53.61,0,.06,0,.12,0,.18Z"/>
  <path class="cls-35" d="M123.15,158.49c0-.06,0-.12,0-.18.41-.07.83-.15,1.24-.22.22.15.44.3.65.45.05.08.1.16.15.23h0c-.31,1.52,1.57,3.06,3.86,3.06,1.12,0,2.54.19,2.75-1.42.2-1.51.96-1.79,2.28-1.5,1.12.25,1.72,1.07,2.36,1.88-.1.01-.19.02-.29.04-.56-.49-1.05-1.13-1.7-1.42-1.08-.48-2.19-.59-2.36,1.11-.13,1.32-1.23,1.41-2.19,1.6-2.13.44-4.59-1.1-5.14-3.1-.24-.89-.97-.66-1.62-.52Z"/>
  <path class="cls-155" d="M101.85,160.87c-.59-.17-.48-.76-.66-1.16-2.21.09-4.39.03-6.26,1.53-.53.43-1.43.57-2.15.55-1.26-.04-2.61-.2-2.06-2.12.07-.24-.14-.57-.22-.86.03-.03.05-.07.08-.1.68.25.3.85.42,1.28,0,.13,0,.27-.01.4-.14.86.53.93,1.08,1.04,1.48.27,2.71-.34,3.91-1.13,2.01-1.32,5.26-1.04,5.97.46-.03.04-.07.08-.1.12Z"/>
  <path class="cls-27" d="M90.49,158.8c-2.51-.73-3.83.02-4.57,2.6-.53,1.86-3.41,2.89-5.43,1.89-.63-.31-1.19-.78-1.79-1.17.04-.05.08-.1.12-.15.23.15.46.3.68.45,2.93,1.94,5.32,1.12,6.33-2.19.52-1.69,3-2.49,4.72-1.53-.03.03-.06.06-.08.1Z"/>
  <path class="cls-169" d="M78.54,162.11c-.27-.29-.53-.59-.8-.88-.07-.07-.14-.13-.21-.2,0,0,0,0,0,0-.08-.26-.16-.52-.25-.77.52.58,1.04,1.15,1.55,1.73-.04.05-.08.1-.13.15,0,0-.08-.02-.08-.02h-.09Z"/>
  <path class="cls-72" d="M53.63,164.97c.45.67.9,1.34,1.36,2.02-.16.74.56.86.88,1.26-.51.96-1.49.46-2.15.52-4.3.34-8.61.7-12.93.48,3.76-1.14,7.6-2.12,10.78-4.61.4-.31.82-.62,1.23-.93.2.34.4.69.61,1.03,0,0,0,0,0,0,0,.15-.1.41.24.25Z"/>
  <path class="cls-136" d="M55.87,168.24c-.33-.4-1.05-.52-.88-1.26.39.41.79.83,1.18,1.24-.1,0-.2.01-.29.02Z"/>
  <path class="cls-111" d="M90.98,160.39c0-.13,0-.27.01-.4.24-.86.99-1.93-.62-2.2-1.33-.22-2.72-.24-3.89.54-3.01,2.02-6.05,3.43-9.6,1.27-.47-.36-.94-.72-1.41-1.08-.62-1.29-1.27-.3-1.75.06-2.77,2.04-4.45,1.72-6.01-1.21-.31-.58-.66-1.19-1.46-1.45-.26,1.11,1.04,1.7.85,2.91-1.43-.62-2.97-.95-4.06-1.83-1.45-1.17-2.97.28-4.31-.54-.17-.11-.38-.16-.56-.26-.69-.42-1.47-.46-2.19-.24-1.8.55-3.64.55-5.49.55-1.44,0-2.22-.57-2.09-2.09.04-.13.08-.27.12-.4,0-.06.04-.09.1-.1,1.17-.61,2.76-.21,3.63-1.54,1.06-.22,1.33.99,2.17,1.18.33.18.65.37.98.55,4.16,2.27,8.72,1,13.08,1.48.15.02.33-.21.5-.32.23-.28.46-.55.68-.81.43.31.75.54,1.07.77,1.61,1.4,3.4,1.8,5.46,1.15.84-.26,1.81-.52,2.63-.36,3.82.75,7.68.59,11.51.52,3.7-.07,8.27,2.18,10.47-3.14.1-.24.48-.37.73-.55.2-.08.4-.16.59-.24.56.07,1.11.15,1.67.22.02.06.06.1.12.12.02.04.05.07.09.09.01.06.04.1.1.12.4,1,.47,2.22,1.73,2.66.77.17,1.53.47,2.3.48,6.97.07,13.94.08,20.91.14.67,0,.86-.41,1.11-.87.61-1.11,5.35-2.02,6.28-1.21.13.12.19.36.22.56.16,1.1.88,1.27,1.81,1.11,1.27-.22,2.44-.68,3.5-1.41,1.65-.95,2.7-2.29,2.74-4.36.65.09,1.22.17,1.78.26h0c.11.14.21.28.32.42.17.21.34.41.51.62,0,0,0,0,0,0,.43,1.46-.14,2.7-.83,3.92-1.31.75-2.71,1.16-4.23,1.03-.77-.06-1.24.25-1.48.97-.73,2.15-2.88,2.6-4.59,1.01-.72-.68-1.46-1.38-2.3-1.88-.87-.51-1.94-.75-2.64.31-1.93,2.96-2.88,3.29-6.04,1.87,0,0,0,0,0,0-.05-.08-.1-.16-.15-.23-.22-.15-.44-.3-.65-.45-.35-.12-.7-.35-1.05-.34-1.91.04-3.82.72-5.73-.04-1.56-.5-2.57.09-2.44,1.7.11,1.34-.37,2.14-1.31,2.87-1.66-1.78-3.69-2.78-6.14-2.45-2.38.32-3.66-.7-4.31-2.9-.27-.92-.76-2.01-1.72-2.13-.85-.11-.72,1.17-1.19,1.72-.04.05-.08.11-.13.16-2.41,3.08-5.75,3.8-9.41,3.73Z"/>
  <path class="cls-157" d="M125.19,158.77c3.15,1.41,4.11,1.09,6.04-1.87.69-1.07,1.77-.82,2.64-.31.85.49,1.58,1.2,2.3,1.88,1.71,1.59,3.86,1.13,4.59-1.01.24-.72.71-1.04,1.48-.97,1.52.13,2.92-.28,4.23-1.03,0,3.04-.08,3.11-3.76,2.38-.85-.17-1.29.04-1.57.83-.69,1.98-2.65,2.85-4.7,2.12-.64-.8-1.24-1.63-2.36-1.88-1.32-.29-2.07,0-2.28,1.5-.22,1.61-1.63,1.43-2.75,1.42-2.29,0-4.18-1.54-3.86-3.06Z"/>
  <path class="cls-84" d="M154.33,92.08c-.29-.03-.56-.09-.64-.43.31,0,.56.09.64.43Z"/>
  <path class="cls-203" d="M139.47,78.46c-.11,0-.22-.01-.32-.02.66-.48,1.31-.96,1.97-1.44-.35.71-1.06,1.02-1.64,1.46Z"/>
  <path class="cls-163" d="M130.19,83.73c0-.1,0-.19,0-.29.69-.5,1.37-1,2.06-1.49-.48.82-1.34,1.22-2.05,1.78Z"/>
  <path class="cls-160" d="M150.18,62.14c.35-.53.87-.84,1.46-1.04-.34.55-.82.9-1.46,1.04Z"/>
  <path class="cls-190" d="M145.03,59.66c.7.22,1.24.66,1.66,1.25-.72-.2-1.28-.6-1.66-1.25Z"/>
  <path class="cls-161" d="M131.61,65.65c.6-.81,1.36-1.43,2.27-1.86-.57.85-1.36,1.43-2.27,1.86Z"/>
  <path class="cls-44" d="M149.16,93.3c1.8.9,1.58,2.51,1.56,4.14-.06,5.32-.02,10.65-.02,16.19-1.75-.17-3.48-.33-5.2-.51-.59-.06-.42-.55-.42-.88,0-7.01,0-14.03,0-21.18.87.43,1.66.83,2.45,1.22,0,0-.02-.01-.02-.01.44.54.97.92,1.67,1.04v-.02Z"/>
  <path class="cls-48" d="M154.1,92.51c.39.23.43.59.4.99-.33,2.22-.15,4.44-.14,6.67v13.2c-1.13.08-2.17.14-3.35.22,0-3.05,0-5.99,0-8.93,0-2.44.08-4.88-.03-7.31-.08-1.83-.09-3.49,2.15-4.02.04-.01.1-.1.1-.14,0-.05-.07-.09-.12-.14.33-.18.66-.36.99-.54Z"/>
  <path class="cls-219" d="M159.45,99.88c-1.75-.24-2.12.72-2.34,2.26-.44,3.14-1.14,6.23-1.73,9.35-.14.6-.27,1.21-.41,1.81-.14-.01-.28-.02-.41-.03,0-1.48,0-2.96,0-4.44.04-3.8.09-7.61.13-11.41,1.54-.73,3.07-1.46,4.76-2.26v4.73Z"/>
  <path class="cls-159" d="M154.69,97.41c-.04,3.8-.09,7.61-.13,11.41-.07-2.89-.13-5.78-.2-8.66-.01-2.22-.19-4.45.14-6.67.08.22.16.44.24.65,0,.95.02,1.9.02,2.86-.21.1-.28.23-.07.41Z"/>
  <path class="cls-68" d="M149.17,93.32c-.7-.13-1.23-.51-1.67-1.04.67.17,1.24.49,1.67,1.04Z"/>
  <path class="cls-95" d="M60.4,113.35c.29-.33.57-.67.86-1,.13-.02.25-.03.38-.05.02.05.03.11.04.16-.43.29-.85.59-1.28.88Z"/>
  <path class="cls-218" d="M105.83,155.8c-1.26-.44-1.33-1.66-1.73-2.66,0-.06-.04-.1-.1-.12-.04-.02-.06-.06-.09-.09,0,0,.02-.07.02-.07,0-.09,0-.19,0-.28.9.3.38,1.81,1.65,1.85,6.31.2,12.62.56,18.9-.43,2.6-.41,5.13-.99,7.01-3.06.72-.79.62-1.72.44-2.63-.12-.6-.63-.87-1.23-.91-1.27-.07-2.53-.19-3.8-.2-4.77-.04-9.52.25-14.28.59-5.52.39-10.65,1.8-15.12,5.2-1.13.86-1.03,1.62.15,2.27.47.26,1.02.39,1.53.57-1.26.21-2.51.57-3.77.6-2.29.05-4.6-.3-6.88-.14-4.8.35-9.59-1.28-14.37-.02-1.4.37-2.22-.99-3.45-1.08-.32-.23-.64-.46-1.07-.77-.22.26-.45.54-.68.81-3.29-.41-6.59.25-9.88-.19-1.67-.22-3.04-1.24-4.67-1.52-.83-.19-1.11-1.4-2.17-1.18-.1,0-.2,0-.31-.01.17-.27.7-.35.38-.88-.79-1.3-.64-2.65-.03-4.01-.85-.12-1.73-.04-2.21-.88.09,0,.18-.01.27-.02.57.55,1.3.45,2,.46.17.19.14.52.65.31,2.89-1.19,5.97-1.51,9.05-1.78-1.7,1.26-3.73,1.37-5.72,1.67-1.34.2-3.13-.1-3.67,1.48-.5,1.44,1.02,2.13,1.96,2.95.08.07.14.15.22.21,2.7,2.27,6.02,3.5,8.99,1.65,2.14-1.34,3.47-.48,5.16-.02.51.14.96.51,1.45.75,1.1.54,2.13,1.62,3.37,1.38,3.97-.8,8.05-.3,11.99-1.21.51-.12,1.22-.09,1.37-.72.16-.68-.5-1.05-.95-1.35-3.38-2.28-6.94-4.09-11.05-4.77-2.04-.34-4.27-.41-5.92-2,.28-.07.55-.13.83-.2,6.59.96,12.57,3.57,18.17,7.04,2.34,1.45,4.44,2.23,6.84.41,1.03.07,1.76-.6,2.54-1.07,5.05-3.11,10.54-4.87,16.43-5.38,1.56-.16,3.12-.37,4.69-.47,5.5-.36,11.01-.68,16.51.02,2.37.3,4.72.72,7.09,1.09.28.19.65.31.82.57.86,1.26,1.63,2.59,3.3,2.94-.56-.08-1.13-.16-1.78-.26-.04,2.07-1.09,3.41-2.74,4.36-1.91.24-3.66,2.41-5.78-.44-.82-1.1-4.22-.92-5.59.58-1.34,1.47-2.65,1.35-4.14,1.32-6.87-.13-13.75.32-20.62-.25Z"/>
  <path class="cls-122" d="M95.1,152.8c-2.4,1.82-4.5,1.04-6.84-.41-5.59-3.47-11.57-6.08-18.17-7.04-.2-.03-.4-.06-.61-.08-.14-.03-.27-.06-.41-.08-.71-.08-1.41-.16-2.12-.24.92-.07,1.85-.29,2.76-.2,6.81.67,13.12,2.91,18.77,6.73,2.37,1.61,4.42,1.75,6.81.28,2.13-1.32,4.28-2.65,6.55-3.66,5.62-2.5,11.71-2.93,17.72-3.57,2.09-.22,4.2-.23,6.55-.36-.35-.24-.46-.38-.6-.42-3.3-.9-6.61-1.8-9.91-2.69-.41-.11-.78-.06-.88.43-.28,1.34-1.17,1.94-2.46,2.07-1.22.12-2.45.24-3.67.35-7.01.61-13.96.73-20.59-2.2-.37-.16-.96-.58-1.21-.07-1.15,2.4-3.43,1.87-5.31,1.99-4.55.29-9.12.22-13.67.5-3.61.22-6.98-.52-10.28-1.86-.69-.28-.89-.69-.64-1.36.16-.03.33-.11.49-.09,7.53,1.09,15.07.99,22.6-.01,1.46-.19,3.05-1.17,4.32-.84,7.31,1.92,14.69,1.6,22.12,1.4,3.45-.09,6.61-1.68,10.29-.89,7.99,1.71,16.11,1.43,24.18.16,0,.05,0,.1,0,.16-1.34,1.25-2.66,2.54-4.57,2.87-1.83.32-3.66.63-5.37.92,3.83.32,7.77.64,12.02.99-1.32.97-2.51-.21-3.49.56-.29-.05-.58-.11-.87-.16.08-.04.17-.07.25-.11-.04-.03-.09-.1-.11-.09-.11.05-.21.11-.31.17-.35-.06-.7-.12-1.05-.18.08-.04.17-.08.25-.12-.01-.04-.03-.08-.04-.12-.2.07-.39.13-.59.2-.35-.05-.7-.1-1.05-.15-.07,0-.13-.02-.2-.03-7.24-.71-14.46-.35-21.67.45-.29.05-.58.09-.86.14-6.68.48-12.51,3.26-18.11,6.67Z"/>
  <path class="cls-214" d="M140.88,140.64c-8.07,1.27-16.19,1.56-24.18-.16-3.68-.79-6.84.8-10.29.89-7.43.2-14.81.52-22.12-1.4-1.28-.34-2.86.64-4.32.84-7.53,1-15.06,1.1-22.6.01-.15-.02-.32.06-.49.09-.53.18-1.07.36-1.6.53-.02-.03-.05-.07-.07-.09.24-.18.49-.36.96-.7-2.66-.06-2.88-1.6-2.86-3.65.01-1.08-1.34-.73-1.79-.26-1.13,1.19-2.38.96-3.7.72,0-.06,0-.12,0-.18,1.28.03,2.54.22,3.62-.84.63-.61,1.56-.49,2.3.01,1.48,1.01,3.03,1.52,4.82,1.02-1.74,1.17-3.24.19-4.76-.61-.51,1.94-.14,3.19,2.04,3.49,4.88.66,9.76,1.02,14.68.82,3.85.07,7.65-.3,11.45-.98,1.72-.31,2.04-1.16,1.6-2.72-.42.11-.84.26-1.27.33-2.18.36-4.41,1.6-6.54.66-2.79-1.24-5.55-.55-8.34-.56-2.61-.32-5.29.07-7.83-.83.28-.14.55-.28.83-.42-.06.83.64.57.98.58,2.54.12,5.08.18,7.62.24.52.01,1.03,0,1.55-.02.47-.03.93-.11,2.03-.25-4.46-1.1-8.33-.81-12.19-.54.44-.14.89-.4,1.33-.41,4.56-.06,9.16-.49,13.41,1.78.35.19.79.24,1.19.29,2.7.27,5.18-.78,7.76-1.27.1.01.2.03.29.04-.34.18-.41.45-.44.83-.24,2.52,1.81,1.85,3.09,2.25,4.82,1.19,9.72,1.07,14.63,1.01,3.8-.01,7.6-.13,11.27-1.26,1.32-.41.97-1.59.8-2.44-.16-.85-1.04-.44-1.57-.32-1.57.36-3.12.86-4.71.14,0-.06,0-.13,0-.19.71.07,1.43.26,2.13.19,1.25-.12,2.53-.73,3.71-.55,2.75.42,5.45.88,8.2.12.1.09.2.23.31.25,3.2.61,6.43.34,9.65.31.38,0,.32-.26.12-.49.44.18.87.38,1.32.55,3.79,1.37,7.57,2.16,11.27-.26.03.04.06.08.07.12-1.34.88-1.38,3.08-3.37,3.28ZM132.01,141.16c3.09,0,6.16-.3,9.17-1.01,1.32-.31,1.62-.74,1.42-1.7-1.88.78-3.85.65-5.78.37-2.82-.41-5.56-1.63-8.5-.92-3.64-.02-7.26-.79-10.91-.25-.71-.11-1.43-.18-2.12-.33-.95-.21-1.24.09-1.24,1.08.01,2.42,2.02,1.41,3.14,1.93,4.91.9,9.86,1.02,14.83.82Z"/>
  <path class="cls-131" d="M139.47,146.14c.98-.77,2.17.42,3.49-.56-4.25-.35-8.19-.68-12.02-.99,1.71-.29,3.54-.61,5.37-.92,1.92-.33,3.23-1.62,4.57-2.87.56,1.1,1.12,2.2,1.68,3.31.06.07.13.14.19.21,0,0-.02-.02-.02-.02.03.29.09.55.42.63h0c.11.53.58,1.08-.04,1.61-.52,0-1.03,0-1.55,0-.29-.05-.58-.09-.87-.14-.19-.02-.39-.04-.58-.06-.22-.05-.45-.09-.67-.14l.02-.06Z"/>
  <path class="cls-104" d="M50.02,135.76c.36-.32.73-.65,1.09-.97.83-.2,1.65-.41,2.48-.61.07,0,.14,0,.21,0,.16.06.31.17.47.17,11.89,0,23.77,0,35.66,0,.55,0,1.09,0,1.64,0,16.85,0,33.7,0,50.54-.01.16,0,.32-.1.48-.15.35.05.7.11,1.05.16.88-.05,1.73.04,2.45.63,0,0-.04.04-.04.04-1.21-.46-2.48-.45-3.75-.45-29.29,0-58.59.01-87.88-.02-1.61,0-3.07.17-4.28,1.32-.04-.04-.07-.09-.11-.13Z"/>
  <path class="cls-208" d="M140.12,146.33c.19.02.39.04.58.06.29.05.58.09.87.14.52,0,1.03,0,1.55,0,.11.01.22.02.33.03-.37.09-.74.17-1.1.26-.02,0-.05.04-.04.06,0,.03.03.06.04.09-2.36-.37-4.72-.78-7.09-1.09-5.5-.7-11.01-.39-16.51-.02-1.57.1-3.12.31-4.69.47,0-.06,0-.13,0-.19,0-.05,0-.11,0-.16,7.21-.8,14.43-1.16,21.67-.45.07,0,.13.02.2.03.35.05.7.1,1.05.15.13.01.25.03.38.04.35.06.7.12,1.05.18,0,0,.08.04.08.04h.09c.29.05.58.1.87.16,0,0-.02.06-.02.06.22.05.45.09.67.14Z"/>
  <path class="cls-205" d="M143.63,134.36c-.35-.05-.7-.11-1.05-.16,1.16-4.04,1.54-8.05-.39-11.99.09,0,.17-.01.26-.02,1.8,3.53,1.71,7.18.66,10.87-.17.61-.34,1.14.52,1.3Z"/>
  <path class="cls-135" d="M142.45,122.19c-.09,0-.17.01-.26.02-.85-2.22-2.62-3.85-3.76-5.88,1.69,1.71,3.09,3.63,4.02,5.87Z"/>
  <path class="cls-94" d="M175.61,98.69c.07,0,.13,0,.2,0,.02.06.04.12.06.18.04-.06.09-.13.13-.19,0,0-.02.02-.02.02.14-.14.28-.29.41-.43-.12.97-.68,1.73-1.22,2.49-.07-.06-.14-.13-.21-.19.07-.22.14-.43.2-.65v.02c.12-.34.24-.69.37-1.03.02-.07.04-.14.07-.21Z"/>
  <path class="cls-201" d="M128.32,104.35c.76.79,1.52,1.59,2.28,2.38-.99-.58-1.85-1.27-2.28-2.38Z"/>
  <path class="cls-179" d="M136.17,114.16c-.9-.56-1.83-1.08-2.31-2.11.77.7,1.54,1.41,2.31,2.11Z"/>
  <path class="cls-184" d="M138.28,116.05c-1.02-.28-1.51-1.15-2.11-1.89.7.63,1.41,1.26,2.11,1.89Z"/>
  <path class="cls-174" d="M174.97,100.56c.07.06.14.13.21.19-.35.55-.69,1.09-1.04,1.64,0-.09-.02-.18-.02-.27.23-.66.45-1.32.68-1.98.05,0,.11,0,.16,0,0,.14.01.28.02.42Z"/>
  <path class="cls-104" d="M146.75,136.31c-.83.35-1.67.7-2.5,1.05-.02-.05-.04-.09-.07-.12.63-.82,1.57-.88,2.49-1.01.03.03.06.06.08.08Z"/>
  <path class="cls-146" d="M165.25,110.03c.59-.59,1.29-.98,2.07-1.24-.55.65-1.25,1.04-2.07,1.24Z"/>
  <path class="cls-218" d="M143.46,146.57c-.11-.01-.22-.02-.33-.03.61-.53.14-1.08.04-1.62.64.45.89.98.29,1.65Z"/>
  <path class="cls-170" d="M172.48,104.25c.19-.55.57-.94,1.04-1.25-.12.6-.51.98-1.04,1.25Z"/>
  <path class="cls-132" d="M127.29,103.21c.31.35.62.7.93,1.04-.57-.11-.82-.52-.93-1.04Z"/>
  <path class="cls-191" d="M130.59,106.72c.48.11.82.4,1.04.83-.51-.08-.83-.39-1.04-.83Z"/>
  <path class="cls-104" d="M146.32,135.16c.44.27.99.5.42,1.14-.03-.03-.06-.06-.08-.08.15-.45-.19-.7-.39-1.01l.05-.05Z"/>
  <path class="cls-58" d="M174.11,102.12c0,.09.02.18.02.27-.21.21-.42.42-.63.63.2-.3.4-.6.6-.9Z"/>
  <path class="cls-126" d="M131.44,110.27c-.39.36-.5.03-.65-.25.22.08.43.16.65.25Z"/>
  <path class="cls-218" d="M143.17,144.93c-.34-.08-.4-.34-.42-.63.14.21.28.42.42.63Z"/>
  <path class="cls-218" d="M146.79,150.91c-.11-.14-.21-.28-.32-.42.19.14.39.28.58.42-.09,0-.18,0-.26,0Z"/>
  <path class="cls-133" d="M146.79,150.91c.09,0,.18,0,.26,0,.08.21.17.41.25.62-.17-.21-.34-.41-.51-.62Z"/>
  <path class="cls-218" d="M142.77,144.31c-.06-.07-.13-.14-.19-.21.06.07.13.14.19.21Z"/>
  <path class="cls-104" d="M146.08,135c.08.06.16.11.24.17,0,0-.05.05-.05.05-.08-.06-.16-.12-.23-.17l.04-.04Z"/>
  <path class="cls-45" d="M172.07,78.86c.75.33,1.4.77,1.87,1.46-.76-.31-1.41-.77-1.87-1.46Z"/>
  <path class="cls-120" d="M171.03,78.03c.47.13.84.39,1.05.84-.52-.07-.83-.4-1.05-.84Z"/>
  <path class="cls-121" d="M154.77,97c0-.95-.02-1.9-.02-2.86,1.48.16,2.95.31,5.07.54-2.07.95-3.56,1.63-5.05,2.32Z"/>
  <path class="cls-173" d="M120.63,110.16c.08-.34.16-.67.23-1.01.39.41.97.76,1.13,1.24.16.5.96,1.32-.27,1.68h0c-.28-.3-.55-.6-.83-.91-.09-.33-.19-.67-.28-1Z"/>
  <path class="cls-43" d="M134.77,115.85c.06.17.12.35.18.52-.3,0-.59,0-.89,0-.1-.03-.21-.06-.31-.08-.66-.16-1.12-.61-1.56-1.09-.3-.49.07-.46.37-.49.98-.09,1.65.42,2.21,1.14Z"/>
  <path class="cls-150" d="M127.25,116.64c-1.51.52-2.96-.34-3.44-2.04,1.44-.64,3.06.33,3.44,2.04ZM124.1,114.73c.59,1.22,1.43,1.84,2.85,1.8-.55-1.3-1.41-1.89-2.85-1.8Z"/>
  <path class="cls-56" d="M118.08,105.49c.04.1.06.13.06.16-.33,1.51-1.24,2.32-2.81,2.3-.32,0-.7-.12-.52-.55.62-1.43,1.77-1.98,3.27-1.92ZM115.16,107.51c1.44.27,2.17-.41,2.68-1.69-1.28.07-2.23.41-2.68,1.69Z"/>
  <path class="cls-4" d="M116.98,115.61c-.34.35-.41.99-1.07,1.01.29-.61,1-1.01.87-1.92-1.43.16-2.12.97-2.46,2.44.65-.22,1.12-.37,1.6-.53-.43.77-1.16.64-1.97.68.32-1.78,1.29-2.73,2.99-2.97.53.41.13.86.04,1.29Z"/>
  <path class="cls-145" d="M112.18,108.14c-.15.08-.29.18-.45.24-.89.34-2.22.6-2.51-.14-.35-.89.91-1.25,1.73-1.55.66-.08,1.4-.25,1.81.41.29.48-.38.69-.58,1.04ZM112.61,107.2c-1.41-.58-2.35-.11-3.29.93,1.34.45,2.36.27,3.29-.93Z"/>
  <path class="cls-87" d="M134.77,115.85c-.56-.72-1.24-1.23-2.21-1.14-.3.03-.67,0-.37.49-.08,0-.16,0-.23.01-.22-.22-.54-.5-.08-.71.66-.3,1.38-.2,1.98.15.43.25,1.15.39.91,1.2Z"/>
  <path class="cls-139" d="M121.72,112.07c1.22-.36.43-1.18.27-1.68-.16-.49-.73-.83-1.13-1.24.88-.15,1.12.61,1.43,1.13.36.59.44,1.34.13,1.97-.23.45-.55.22-.7-.18Z"/>
  <path class="cls-202" d="M120.63,110.16c.09.33.19.67.28,1,0,.1-.01.21-.02.31-.58-.65-.66-1.43-.58-2.52.15.57.24.89.32,1.21Z"/>
  <path class="cls-22" d="M131.95,115.21c.08,0,.16,0,.23-.01.44.47.9.92,1.56,1.09-.03.04-.06.09-.07.15-.06,0-.13,0-.19,0-.72-.14-1.2-.58-1.52-1.22Z"/>
  <path class="cls-198" d="M133.47,116.43c.06,0,.13,0,.19,0,.13-.02.26-.04.38-.06.3,0,.59,0,.89,0,.12-.08.24-.16.36-.25-.53.54-1.14.67-1.83.31Z"/>
  <path class="cls-126" d="M127.25,109.66c-.5-.19-.83-.55-1.05-1.03.04-.03.09-.07.13-.1.34.34.68.68,1.02,1.02-.03.04-.07.08-.1.12Z"/>
  <path class="cls-19" d="M120.89,111.48c0-.1.01-.21.02-.31.28.31.55.61.83.92-.46.05-.63-.31-.85-.61Z"/>
  <path class="cls-134" d="M127.35,109.55c-.34-.34-.68-.68-1.02-1.02,1.48-.53,2.32.35,3.22,1.39-.88.14-1.54-.12-2.2-.38Z"/>
  <path class="cls-32" d="M89.92,134.36c-11.89,0-23.77,0-35.66,0-.16,0-.31-.11-.47-.17-.46-1.44-1.12-2.82-1.2-4.36.96,1.82,2.46,2.86,4.52,2.46,2.63-.51,4.87.77,7.28,1.27,4.02.84,8.11.64,12.18.64,4.08,0,8.17,0,12.25,0,.37,0,.73.1,1.1.15Z"/>
  <path class="cls-92" d="M52.6,129.83c.08,1.54.74,2.92,1.2,4.36-.07,0-.14,0-.21,0-.47-1.45-.94-2.9-1.42-4.35-.44-3.61.21-6.95,2.46-9.89-1.11,2.41-2.42,4.77-2.28,7.55.04.78.16,1.56.24,2.34Z"/>
  <path class="cls-166" d="M68.81,116.48c-.1.1-.2.2-.3.3-.56.45-1.17.68-1.95.52.26-.48.47-.88.68-1.28h0c.07-.06.14-.14.22-.21,0,0-.01.01-.01.01.6-.14,1.21-.29,2.08-.5-.33.54-.52.85-.7,1.15Z"/>
  <path class="cls-79" d="M84.64,108.64c.29,1.94-.59,3.05-2.14,3.81-.79-1.47.02-2.97,2.14-3.81ZM84.35,109.19c-1.5.66-1.95,1.42-1.72,2.78,1.2-.52,1.78-1.39,1.72-2.78Z"/>
  <path class="cls-207" d="M98.64,106.68c.17-.17.35-.34.52-.51.56-.33,1.14-.55,1.87-.37-.66,1.12-1.38,1.97-2.91,1.71.21-.33.36-.58.52-.84Z"/>
  <path class="cls-138" d="M103.26,116.47c-.52,1.93-2,2.94-3.53,2.39.5-1.81,1.77-2.41,3.53-2.39ZM100.1,118.7c1.46.08,2.21-.65,2.77-1.86-1.43-.05-2.27.55-2.77,1.86Z"/>
  <path class="cls-172" d="M92.21,114.6c.25-.69.87-.74,1.55-.92.2,1.89-.62,2.98-2.37,3.62-.24-1.13-.21-2.07.83-2.71-.25.71-.85,1.34-.55,2.27,1.25-.52,1.89-1.37,1.78-2.83-.45.21-.84.39-1.23.57Z"/>
  <path class="cls-86" d="M92.73,108.96c.58,1.63.36,2.94-1.1,3.91-1.18-1.25-.7-3.08,1.1-3.91ZM91.58,112.56c1.17-.9,1.37-1.9.94-3.19-1.19.79-1.41,1.8-.94,3.19Z"/>
  <path class="cls-54" d="M100.1,112.19c-.02-1.73.9-2.64,2.9-2.95.19,1.52-1.05,2.82-2.9,2.95ZM100.35,111.96c1.39-.32,2.09-1.08,2.46-2.38-1.44.21-2.2.9-2.46,2.38Z"/>
  <path class="cls-67" d="M87.37,105.53c1.87-.32,2.99.51,3.74,2.07-1.6.72-2.93-.01-3.74-2.07ZM87.87,105.8c.58,1.45,1.52,1.98,2.84,1.58-.71-.98-1.47-1.78-2.84-1.58Z"/>
  <path class="cls-101" d="M74.7,113.99c1.76-.3,2.97.36,3.72,1.96-1.54.86-3.15,0-3.72-1.96ZM74.98,114.22c.71,1.23,1.51,2.01,2.97,1.74-.56-1.33-1.29-1.77-2.97-1.74Z"/>
  <path class="cls-91" d="M109.58,113.65c-1.63,1.01-3.18.56-4.13-1.14,1.3-.9,2.89-.48,4.13,1.14ZM109.08,113.67c-.69-1.25-2-1.67-3.21-.97.85,1.11,1.89,1.5,3.21.97Z"/>
  <path class="cls-192" d="M98.64,106.68c-.16.25-.31.5-.52.84,1.53.26,2.26-.59,2.91-1.71-.74-.18-1.31.04-1.87.37.41-1.14,1.38-.54,2.13-.77-.26,1.75-1.82,2.81-3.51,2.36.2-.44.07-1.09.86-1.08Z"/>
  <path class="cls-105" d="M86.05,119.8c-.64.46-1.31.67-2.08.33.48-1.86,1.71-2.69,3.66-2.4-.27.43-.51.83-.75,1.22-.04-.03-.08-.07-.12-.11.12-.29.24-.59.37-.91-1.58.09-2.25.57-2.74,1.94.56.26,1.05-.08,1.56-.2.04.04.08.08.11.13Z"/>
  <path class="cls-24" d="M57.1,116.65c.85-1.36,1.96-2.46,3.31-3.31-1.1,1.1-2.21,2.21-3.31,3.31Z"/>
  <path class="cls-70" d="M67.23,116.03c-.21.4-.42.79-.68,1.28.78.16,1.39-.07,1.95-.52-.23.86-1.27,1.13-2.5.66.43-.45.53-1.2,1.23-1.42Z"/>
  <path class="cls-194" d="M78.94,107.35c.2-.54.47-1.03,1.02-1.29.04.04.07.07.11.11-.29.45-.84.76-.76,1.55.53-.16,1-.3,1.47-.43.05.04.09.08.12.13-.66.21-1.36,1.44-1.95-.08Z"/>
  <path class="cls-70" d="M68.81,116.48c.19-.3.37-.61.7-1.15-.87.21-1.48.35-2.08.5.3-.6.91-.56,1.43-.7.3.02.59.05,1.02.08-.43.48-.23,1.28-1.08,1.27Z"/>
  <path class="cls-148" d="M79.96,106.06c.5-.27,1-.55,1.5-.82.09-.04.18-.07.27-.11.11,0,.21-.01.32-.02-.06.34-.12.67-.18,1.01-.06,0-.12,0-.18,0,.03-.18.06-.36.13-.73-.67.3-1.21.54-1.75.79-.03-.04-.07-.08-.11-.11Z"/>
  <path class="cls-221" d="M56.07,117.89c.16-.57.51-.99,1.04-1.25-.19.54-.53.97-1.04,1.25Z"/>
  <path class="cls-8" d="M86.88,118.95c-.28.28-.55.56-.83.84-.03-.05-.07-.09-.11-.13.27-.27.55-.55.82-.82.04.04.08.08.12.11Z"/>
  <path class="cls-61" d="M55.45,118.71c.02-.42.25-.68.63-.84-.04.4-.27.67-.63.84Z"/>
  <path class="cls-200" d="M81.53,106.79c-.21.21-.42.42-.63.64-.03-.05-.07-.1-.12-.13.2-.21.41-.41.61-.62.04.04.09.08.14.12Z"/>
  <path class="cls-141" d="M54.63,119.95c-.02-.32.09-.55.42-.63-.14.21-.28.42-.42.63Z"/>
  <path class="cls-52" d="M55.04,119.33c-.03-.33.11-.54.42-.63-.14.21-.28.42-.42.63Z"/>
  <path class="cls-74" d="M81.68,106.11c.06,0,.12,0,.18,0-.11.22-.23.45-.34.67-.05-.04-.09-.08-.14-.12.1-.19.2-.37.3-.56Z"/>
  <path class="cls-63" d="M71.55,112.93c.07-.07.14-.14.21-.21-.07.07-.14.14-.21.21Z"/>
  <path class="cls-40" d="M69.93,108.8c.59-.06,1.19-.12,1.91-.18-.29,1.14-.97,1.76-1.74,2.31-.06.05-.13.09-.19.14-.07.02-.14.03-.21.05-.1.04-.2.08-.3.13-.45,0-.9.01-1.34.02-.04-1.09.76-1.64,1.46-2.25.07,0,.13-.02.19-.06.08-.05.15-.09.23-.14ZM68.35,110.96c1.56.02,2.39-.72,3.05-1.93-1.5-.06-2.46.49-3.05,1.93Z"/>
  <path class="cls-70" d="M67.44,115.82c-.07.07-.14.14-.22.22.07-.07.14-.14.22-.22Z"/>
  <path class="cls-63" d="M69.39,111.24c.1-.04.2-.08.3-.13-.1.04-.2.08-.3.13Z"/>
  <path class="cls-63" d="M69.9,111.07c.06-.05.13-.09.19-.14-.06.05-.13.09-.19.14Z"/>
  <path class="cls-63" d="M69.93,108.8c-.08.05-.15.09-.23.14.08-.05.15-.09.23-.14Z"/>
  <path class="cls-11" d="M81.72,105.13c-.09.04-.18.07-.27.11.09-.04.18-.07.27-.11Z"/>
  <path class="cls-38" d="M48.53,153.99c-.04.13-.08.27-.11.4-.61,1.91.24,3.08,2.18,3.15.88.03,2.03-.54,2.6.36.47.74.99.75,1.67.88,1.66.31,3.26-.6,5.09.44,1.72.98,4.24-.11,6.1,1.47.4.34.98.41,1.16,1.07.32,1.2,1.1,1.57,2.27,1.12-.23.65-.8.39-1.25.47-.29-.18-.77-.32-.83-.56-.35-1.57-1.78-1.78-2.87-2.4-.03-.68-.53-.57-.97-.6-1.47-.07-2.93-.16-4.4-.24-.88-.9-1.97-.61-3.01-.5-.93.09-1.83.04-2.73-.23-1.07,1.98-.47,3.95-.04,5.91-.2-.34-.4-.69-.61-1.03-.25-1.56-.28-3.09.15-4.65.43-1.52-.64-1.37-1.62-1.24-2.37.31-3.6-.79-3.34-2.97.04-.36.02-.78.54-.85Z"/>
  <path class="cls-103" d="M52.17,129.83c.47,1.45.94,2.9,1.42,4.35-.83.2-1.65.41-2.48.61.27-1.67,1.14-3.22,1.06-4.96Z"/>
  <path class="cls-62" d="M51.95,152.35c.1,0,.2,0,.31.01-.87,1.32-2.46.93-3.63,1.53.84-1.09,2.52-.39,3.32-1.55Z"/>
  <path class="cls-104" d="M47.82,137.29c0,.06,0,.12,0,.18-.25-.58-.25-.59.36-.87.62-.28,1.23-.56,1.85-.84.04.04.07.09.11.13-.49.93-1.77.56-2.31,1.4Z"/>
  <path class="cls-29" d="M50.37,146.55c-.09,0-.18.01-.27.02-.69-1.49.49-2.04,1.37-2.75.04.04.07.08.11.11-.44.52-.87,1.04-1.31,1.57-.35.39-.03.71.1,1.05Z"/>
  <path class="cls-152" d="M52.78,142.86c.46-.3.92-.59,1.38-.89.03.04.07.08.11.12-.41.27-.81.53-1.22.8-.09,0-.18-.02-.27-.03Z"/>
  <path class="cls-164" d="M54.16,141.97c.35-.2.69-.4,1.04-.61.03.03.05.06.07.09-.34.21-.67.42-1.01.64-.04-.04-.07-.08-.11-.12Z"/>
  <path class="cls-100" d="M51.47,143.82c.28-.2.56-.4.84-.6.04.04.07.08.1.12-.28.2-.56.4-.84.59-.04-.04-.07-.07-.11-.11Z"/>
  <path class="cls-225" d="M52.78,142.86c.09,0,.18.02.27.03-.21.15-.43.3-.64.45-.03-.05-.07-.09-.1-.12.16-.12.32-.24.47-.36Z"/>
  <path class="cls-176" d="M176.01,98.67c-.04.06-.09.13-.13.19-.02-.06-.04-.12-.06-.18.06,0,.13,0,.19-.02Z"/>
  <path class="cls-78" d="M68.24,163.34c.44-.08,1.02.18,1.25-.47,0,0,0,0,0,0,.16-1.42.78-2.18,2.37-1.86.73.15,1.5.04,2.06-.6.1-.02.2-.05.3-.07-.53.91-1.25,1.36-2.37,1.14-.6-.12-1.22-.11-1.37.79-.22,1.33-1.11,1.48-2.22,1.07Z"/>
  <path class="cls-171" d="M59.18,159.55c1.47.08,2.93.16,4.4.24.44.02.94-.08.97.6-.88-.35-1.75.05-2.61.11-1.08.07-2.02-.09-2.76-.94Z"/>
  <path class="cls-217" d="M77.29,160.25c.08.26.16.52.25.77-.83-.55-1.66-1.11-2.49-1.66.23-.5.54-.53.95-.18.42.37.86.71,1.29,1.07h0Z"/>
  <path class="cls-36" d="M77.29,160.25c-.43-.35-.87-.7-1.29-1.07-.41-.35-.71-.32-.95.18-.28.33-.56.66-.84.98-.1.02-.2.05-.3.07-.1,0-.19-.02-.29-.02.62-.63,1.24-1.26,1.86-1.89.47.36.94.72,1.41,1.08.13.22.27.44.4.66Z"/>
  <path class="cls-38" d="M53.63,164.97c-.34.17-.23-.09-.24-.25.08.08.16.16.24.25Z"/>
  <path class="cls-217" d="M77.53,161.02c.07.07.14.13.21.2-.07-.07-.14-.13-.21-.2Z"/>
  <path class="cls-185" d="M90.98,160.39c3.66.07,7-.64,9.41-3.73.04-.05.08-.11.13-.16.47-.56.33-1.83,1.19-1.72.97.12,1.46,1.22,1.72,2.13.65,2.2,1.92,3.22,4.31,2.9,2.45-.32,4.48.67,6.14,2.45-.38.7-.68.03-.98-.08-1.9-.72-3.53-2.94-5.79-1.59-1.83,1.09-3.41,1.04-5.15.16-.71-1.49-3.96-1.78-5.97-.46-1.21.79-2.43,1.41-3.91,1.13-.55-.1-1.22-.18-1.08-1.04Z"/>
  <path class="cls-189" d="M117.62,157.7c1.91.76,3.82.08,5.73.04.35,0,.7.22,1.05.34-.41.07-.83.15-1.24.22-1.97.95-3.92,1.73-5.53-.61Z"/>
  <path class="cls-157" d="M125.05,158.53c.05.08.1.16.15.23-.05-.08-.1-.16-.15-.23Z"/>
  <path class="cls-123" d="M77.29,160.25c-.13-.22-.27-.44-.4-.66,3.54,2.16,6.59.74,9.59-1.27,1.17-.78,2.57-.76,3.89-.54,1.61.27.86,1.34.62,2.2-.12-.43.27-1.03-.42-1.28-1.73-.96-4.21-.16-4.72,1.53-1.01,3.31-3.4,4.14-6.33,2.19-.23-.15-.46-.3-.68-.45-.52-.58-1.04-1.15-1.55-1.73,0,0,0,0,0,0Z"/>
  <path class="cls-185" d="M75.48,158.51c-.62.63-1.24,1.26-1.86,1.89-.7.13-1.41.43-2.09.36-1.69-.17-2.34.47-2.05,2.12,0,0,0,0,0,0-1.16.45-1.95.08-2.27-1.12-.17-.66-.75-.73-1.16-1.07-1.86-1.58-4.38-.49-6.1-1.47-1.83-1.04-3.43-.13-5.09-.44-.68-.12-1.2-.14-1.67-.88-.58-.9-1.72-.33-2.6-.36-1.95-.07-2.8-1.24-2.18-3.15-.13,1.52.65,2.09,2.09,2.09,1.85,0,3.69,0,5.49-.55.72-.22,1.49-.18,2.19.24.17.11.38.16.56.26,1.33.82,2.86-.64,4.31.54,1.09.88,2.63,1.21,4.06,1.83.19-1.2-1.11-1.79-.85-2.91.8.26,1.15.87,1.46,1.45,1.57,2.93,3.24,3.25,6.01,1.21.48-.36,1.13-1.35,1.75-.06Z"/>
  <path class="cls-60" d="M105.83,155.8c6.87.57,13.75.13,20.62.25,1.5.03,2.8.15,4.14-1.32,1.37-1.49,4.77-1.68,5.59-.58,2.12,2.85,3.87.69,5.78.44-1.06.73-2.24,1.19-3.5,1.41-.93.16-1.65-.01-1.81-1.11-.03-.19-.09-.44-.22-.56-.92-.81-5.67.1-6.28,1.21-.25.46-.44.88-1.11.87-6.97-.06-13.94-.07-20.91-.14-.77,0-1.53-.31-2.3-.48Z"/>
  <path class="cls-129" d="M70.73,155.2c1.23.09,2.05,1.45,3.45,1.08,4.78-1.26,9.57.37,14.37.02,2.28-.17,4.59.19,6.88.14,1.26-.03,2.51-.39,3.77-.6.6-1.15.62-2.73,2.29-3.08l.05.06c-.25.18-.63.3-.73.55-2.2,5.32-6.77,3.07-10.47,3.14-3.83.08-7.69.23-11.51-.52-.83-.16-1.79.09-2.63.36-2.07.65-3.86.25-5.46-1.15Z"/>
  <path class="cls-226" d="M54.43,153.54c1.63.28,3,1.29,4.67,1.52,3.29.44,6.6-.22,9.88.19-.17.11-.34.34-.5.32-4.36-.48-8.92.8-13.08-1.48-.33-.18-.65-.37-.98-.55Z"/>
  <path class="cls-129" d="M103.94,152.57c0,.09,0,.19,0,.28-.04-.04-.09-.06-.14-.05-.56-.07-1.11-.15-1.67-.22l-.02-.03c.62-.39,1.23-.24,1.84.01Z"/>
  <path class="cls-129" d="M102.13,152.59c-.2.08-.4.16-.59.24,0,0-.05-.06-.05-.06.21-.07.41-.14.62-.2l.02.03Z"/>
  <path class="cls-69" d="M103.8,152.81c.05,0,.1,0,.14.05,0,0-.02.08-.02.08-.06-.02-.1-.06-.12-.12Z"/>
  <path class="cls-69" d="M104,153.02c.06.02.09.06.1.12-.05-.02-.09-.06-.1-.12Z"/>
  <path class="cls-183" d="M69.27,145.55c1.66,1.59,3.88,1.66,5.92,2,4.11.68,7.67,2.5,11.05,4.77.45.3,1.11.67.95,1.35-.15.63-.86.61-1.37.72-3.94.91-8.02.41-11.99,1.21-1.24.25-2.27-.84-3.37-1.38-.49-.24-.94-.61-1.45-.75-1.69-.47-3.02-1.32-5.16.02-2.97,1.85-6.29.62-8.99-1.65-.08-.07-.15-.15-.22-.21-.93-.81-2.45-1.51-1.96-2.95.54-1.58,2.34-1.28,3.67-1.48,1.99-.3,4.02-.41,5.72-1.67,2.4-.38,4.81-.28,7.21.01Z"/>
  <path class="cls-69" d="M102.1,152.56c-.21.07-.41.14-.62.2-1.67.35-1.69,1.93-2.29,3.08-.51-.19-1.06-.31-1.53-.57-1.19-.65-1.29-1.41-.15-2.27,4.47-3.4,9.6-4.81,15.12-5.2,4.76-.34,9.51-.63,14.28-.59,1.27.01,2.53.13,3.8.2.6.04,1.11.31,1.23.91.19.91.28,1.83-.44,2.63-1.88,2.07-4.41,2.65-7.01,3.06-6.28.99-12.59.63-18.9.43-1.27-.04-.75-1.55-1.65-1.85-.61-.25-1.22-.41-1.84-.01Z"/>
  <path class="cls-178" d="M50.37,146.55c-.13-.34-.44-.67-.1-1.05.24.52.72.45,1.16.45,2.66-.04,5.16-.96,7.76-1.35,2.08-.31,4.16-.61,6.18.3-4.41.23-8.77.77-13,2.11-.7-.01-1.42.09-2-.46Z"/>
  <path class="cls-66" d="M114.07,146.15c0,.06,0,.13,0,.19-5.9.51-11.38,2.27-16.43,5.38-.77.48-1.51,1.15-2.54,1.07,5.6-3.42,11.43-6.19,18.11-6.67.29,0,.57.02.86.03Z"/>
  <path class="cls-71" d="M52.36,147.01c4.23-1.34,8.59-1.88,13-2.11.53.01,1.07.03,1.6.04.71.08,1.41.16,2.12.24.14.03.27.06.41.08.2.03.4.06.61.08-.28.07-.55.13-.83.2-2.4-.3-4.8-.4-7.21-.01-3.08.28-6.16.59-9.05,1.78-.51.21-.48-.12-.65-.31Z"/>
  <path class="cls-143" d="M66.96,144.95c-.53-.01-1.07-.03-1.6-.04-2.02-.91-4.1-.61-6.18-.3-2.6.39-5.1,1.31-7.76,1.35-.44,0-.92.07-1.16-.45.44-.52.87-1.04,1.31-1.57.28-.2.56-.4.84-.59.21-.15.43-.3.64-.45.41-.27.81-.53,1.22-.8.34-.21.67-.42,1.01-.64.53-.18,1.07-.36,1.6-.53-.25.67-.05,1.08.64,1.36,3.3,1.34,6.67,2.08,10.28,1.86,4.55-.28,9.12-.21,13.67-.5,1.89-.12,4.17.4,5.31-1.99.25-.51.84-.09,1.21.07,6.63,2.94,13.58,2.82,20.59,2.2,1.23-.11,2.45-.23,3.67-.35,1.29-.13,2.18-.73,2.46-2.07.1-.49.47-.54.88-.43,3.31.89,6.61,1.79,9.91,2.69.14.04.26.17.6.42-2.35.12-4.46.13-6.55.36-6.02.64-12.1,1.07-17.72,3.57-2.28,1.01-4.43,2.34-6.55,3.66-2.38,1.47-4.43,1.33-6.81-.28-5.65-3.82-11.96-6.05-18.77-6.73-.9-.09-1.84.13-2.76.2Z"/>
  <path class="cls-131" d="M137.38,145.76c-.13-.01-.25-.03-.38-.04.2-.07.39-.13.59-.2.01.04.03.08.04.12-.08.04-.17.08-.25.12Z"/>
  <path class="cls-218" d="M114.07,146.15c-.29,0-.57-.02-.86-.03.29-.05.58-.09.86-.14,0,.05,0,.11,0,.16Z"/>
  <path class="cls-131" d="M138.6,145.97h-.09s-.08-.03-.08-.03c.1-.06.2-.12.31-.17.02,0,.07.06.11.09-.08.04-.17.07-.25.11Z"/>
  <path class="cls-183" d="M69.49,145.27c-.14-.03-.27-.06-.41-.08.14.03.27.06.41.08Z"/>
  <path class="cls-131" d="M135.95,145.56c-.07,0-.13-.02-.2-.03.07,0,.13.02.2.03Z"/>
  <path class="cls-1" d="M47.82,137.29c.55-.83,1.83-.46,2.31-1.4,1.21-1.15,2.67-1.32,4.28-1.32,29.29.03,58.59.03,87.88.02,1.27,0,2.54-.01,3.75.45.08.06.16.12.23.17.2.31.54.57.39,1.01-.92.12-1.85.19-2.49,1.01-3.7,2.42-7.48,1.63-11.27.26-.45-.16-.88-.36-1.31-.54-.16-.09-.32-.19-.49-.28-3.22-.77-6.42-.64-9.61.2h0c-2.75.75-5.45.3-8.2-.12-1.18-.18-2.46.43-3.71.55-.7.07-1.42-.12-2.13-.19-1.94-1.18-4.09-.92-6.2-.86-2.69.08-5.39-.32-8.07.17-.33.15-.66.3-.99.45-.22.12-.45.25-.67.37-2,1.12-3.95.84-5.87-.2-.52-.28-1.04-.32-1.56.02-2.58.48-5.06,1.53-7.76,1.27-.41-.04-.84-.1-1.19-.29-4.25-2.27-8.86-1.84-13.41-1.78-.45,0-.89.27-1.33.41h0c-.28.13-.55.28-.83.42h0c-.41-.03-.77.08-1.04.41h0c-1.78.48-3.34-.02-4.82-1.03-.73-.5-1.66-.62-2.3-.01-1.09,1.05-2.35.87-3.62.84Z"/>
  <path class="cls-167" d="M59.58,137.08c2.55.9,5.23.51,7.83.83,1.29.85,3.6.73,3.1,3.27-4.92.2-9.81-.16-14.68-.82-2.18-.3-2.56-1.55-2.04-3.49,1.53.8,3.03,1.78,4.76.61,0,0,0,0,0,0,.35-.14.7-.28,1.04-.42h0Z"/>
  <path class="cls-177" d="M117.41,137.65c3.65-.54,7.27.22,10.91.25,1.56.72,3.44,1.07,3.7,3.26-4.97.19-9.92.07-14.83-.82.19-.88-.82-1.87.23-2.68Z"/>
  <path class="cls-10" d="M107.46,137.3c1.6.73,3.14.22,4.71-.14.53-.12,1.41-.53,1.57.32.16.85.51,2.03-.8,2.44-3.67,1.13-7.47,1.24-11.27,1.26-.16-.66-.61-1.12-1.06-1.59-.95-1-2.45-.83-3.46-1.69.85-.01,1.7,0,2.56-.04,2.47-.08,4.97.17,7.39-.56.12,0,.25,0,.37,0Z"/>
  <path class="cls-21" d="M97.15,137.9c1.01.86,2.51.69,3.46,1.69.46.48.9.93,1.06,1.59-4.9.07-9.81.19-14.63-1.01.07-.69.14-1.39.21-2.08,1.53.45,2.96.18,4.32-.62.07-.04.14-.07.21-.11.07,0,.14-.01.2-.02.08.03.16.06.23.09,1.64.16,3.29.31,4.93.47Z"/>
  <path class="cls-180" d="M70.52,141.19c.5-2.54-1.81-2.43-3.1-3.27,2.78,0,5.54-.68,8.34.56,2.13.95,4.36-.29,6.54-.66.43-.07.85-.22,1.27-.33.44,1.56.12,2.41-1.6,2.72-3.79.68-7.6,1.05-11.45.98Z"/>
  <path class="cls-137" d="M132.01,141.16c-.26-2.19-2.14-2.54-3.7-3.26,2.95-.71,5.68.5,8.5.92,1.93.28,3.9.41,5.78-.37.21.96-.09,1.38-1.42,1.7-3.01.71-6.08,1.01-9.17,1.01Z"/>
  <path class="cls-5" d="M60.4,136.67c3.86-.26,7.73-.56,12.19.54-1.1.14-1.56.22-2.03.25-.51.03-1.03.04-1.55.02-2.54-.07-5.08-.13-7.62-.24-.34-.02-1.04.25-.98-.58,0,0,0,0,0,0Z"/>
  <path class="cls-2" d="M131.1,136.67c.16.09.33.19.49.28.2.22.25.48-.13.49-3.22.02-6.45.29-9.65-.31-.12-.02-.21-.17-.31-.25,0,0,0,0,0,0,3.19-.44,6.4-.59,9.61-.2Z"/>
  <path class="cls-88" d="M87.25,138.09c-.07.69-.14,1.39-.21,2.08-1.28-.4-3.33.27-3.09-2.25.04-.37.11-.65.44-.83,1.06.01,1.93.59,2.86.99Z"/>
  <path class="cls-227" d="M117.41,137.65c-1.04.81-.04,1.8-.23,2.68-1.11-.53-3.12.48-3.14-1.93,0-.99.29-1.29,1.24-1.08.7.15,1.42.22,2.12.33Z"/>
  <path class="cls-147" d="M107.46,137.3c-.12,0-.25,0-.37,0-.1-.01-.2-.02-.3-.04-.61-.45-1.28-.81-2.04-.82-3.84,0-7.67.02-11.51.04l-.05-.07c2.68-.49,5.38-.09,8.07-.17,2.1-.06,4.26-.32,6.2.86,0,.06,0,.13,0,.19Z"/>
  <path class="cls-149" d="M87.25,138.09c-.93-.4-1.79-.98-2.86-.99-.1-.01-.2-.03-.29-.04.51-.34,1.04-.3,1.56-.02,1.92,1.04,3.87,1.32,5.87.2.03.03.07.05.1.08-.02.05-.04.1-.06.15-1.35.8-2.78,1.07-4.32.62Z"/>
  <path class="cls-218" d="M141.58,146.53c-.29-.05-.58-.09-.87-.14.29.05.58.09.87.14Z"/>
  <path class="cls-218" d="M140.12,146.33c-.22-.05-.45-.09-.67-.14.22.05.45.09.67.14Z"/>
  <path class="cls-32" d="M134.05,116.37c-.13.02-.26.04-.38.06.02-.05.04-.1.07-.15.11.03.21.06.31.08Z"/>
  <path class="cls-89" d="M124.1,114.73c1.44-.09,2.3.5,2.85,1.8-1.42.04-2.26-.58-2.85-1.8Z"/>
  <path class="cls-57" d="M115.16,107.51c.45-1.28,1.4-1.62,2.68-1.69-.5,1.28-1.24,1.97-2.68,1.69Z"/>
  <path class="cls-215" d="M115.92,116.61c-.47.16-.94.31-1.6.53.34-1.47,1.03-2.28,2.46-2.44.13.9-.59,1.31-.87,1.92,0,0,0,0,0,0Z"/>
  <path class="cls-80" d="M112.61,107.2c-.92,1.2-1.95,1.37-3.29.93.93-1.03,1.88-1.51,3.29-.93Z"/>
  <path class="cls-215" d="M84.35,109.19c.07,1.4-.52,2.26-1.72,2.78-.24-1.36.22-2.12,1.72-2.78Z"/>
  <path class="cls-215" d="M100.1,118.7c.5-1.3,1.34-1.9,2.77-1.86-.56,1.21-1.3,1.94-2.77,1.86Z"/>
  <path class="cls-223" d="M92.21,114.6c.39-.18.78-.36,1.23-.57.11,1.46-.52,2.31-1.78,2.83-.3-.93.3-1.55.55-2.27,0,0,0,0,0,0Z"/>
  <path class="cls-223" d="M91.58,112.56c-.47-1.39-.24-2.39.94-3.19.43,1.28.23,2.29-.94,3.19Z"/>
  <path class="cls-215" d="M100.35,111.96c.26-1.48,1.03-2.17,2.46-2.38-.37,1.3-1.07,2.06-2.46,2.38Z"/>
  <path class="cls-213" d="M87.87,105.8c1.37-.2,2.13.6,2.84,1.58-1.32.4-2.26-.13-2.84-1.58Z"/>
  <path class="cls-43" d="M74.98,114.22c1.68-.03,2.41.41,2.97,1.74-1.46.27-2.26-.51-2.97-1.74Z"/>
  <path class="cls-168" d="M109.08,113.67c-1.33.53-2.36.13-3.21-.97,1.21-.7,2.52-.28,3.21.97Z"/>
  <path class="cls-51" d="M86.76,118.84c-.27.27-.55.55-.82.82-.51.13-.99.46-1.56.2.49-1.36,1.16-1.85,2.74-1.94-.13.32-.25.62-.37.91Z"/>
  <path class="cls-222" d="M81.68,106.11c-.1.19-.2.37-.3.56-.2.21-.41.41-.61.62-.47.14-.94.28-1.47.43-.08-.79.48-1.1.76-1.55.54-.24,1.08-.49,1.75-.79-.06.36-.1.54-.13.73Z"/>
  <path class="cls-76" d="M68.35,110.96c.59-1.44,1.55-2,3.05-1.93-.65,1.21-1.48,1.95-3.05,1.93Z"/>
  <path class="cls-142" d="M69.48,162.88c-.29-1.65.36-2.3,2.05-2.12.68.07,1.39-.23,2.09-.36.1,0,.19.02.29.02-.56.64-1.33.75-2.06.6-1.58-.32-2.21.44-2.37,1.86Z"/>
  <path class="cls-175" d="M106.79,137.26c.1.01.2.02.3.04-2.42.73-4.92.48-7.39.56-.85.03-1.7.03-2.56.04-1.64-.16-3.29-.31-4.93-.47-.08-.03-.16-.06-.23-.09-.07,0-.14.01-.2.02-.05-.02-.1-.04-.15-.04-.03-.02-.07-.05-.1-.08.22-.12.45-.25.67-.37l.04.03c.17.41.55.34.88.37,4.56.38,9.11.29,13.66,0Z"/>
  <path class="cls-42" d="M131.1,136.67c-3.21-.39-6.41-.24-9.61.2,3.19-.84,6.39-.97,9.61-.2Z"/>
  <path class="cls-214" d="M59.59,137.08c-.35.14-.7.28-1.04.42.27-.33.63-.44,1.04-.42Z"/>
  <path class="cls-147" d="M92.2,136.87c.33-.15.66-.3.99-.45,0,0,.05.07.05.07-.33.14-.67.28-1,.42,0,0-.04-.03-.04-.03Z"/>
  <path class="cls-50" d="M91.63,137.32c.05,0,.1.02.15.04-.07.04-.14.07-.21.11.02-.05.04-.1.06-.15Z"/>
  <path class="cls-50" d="M91.98,137.34c.08.03.16.06.23.09-.08-.03-.16-.06-.23-.09Z"/>
  <path class="cls-50" d="M92.25,136.9c.33-.14.67-.28,1-.42,3.84-.02,7.67-.04,11.51-.04.76,0,1.43.37,2.04.82-4.56.3-9.11.38-13.67,0-.33-.03-.71.04-.88-.37Z"/>
</svg>