<?xml version="1.0" encoding="UTF-8"?>
<svg id="Layer_1" data-name="Layer 1" xmlns="http://www.w3.org/2000/svg" viewBox="0 0 2500 2500">
  <defs>
    <style>
      .cls-1, .cls-2, .cls-3 {
        fill-rule: evenodd;
      }

      .cls-2 {
        fill: #d52b1e;
      }

      .cls-3 {
        fill: #fdc82f;
      }
    </style>
  </defs>
  <g>
    <path class="cls-2" d="M126.28,0C56.53,0,0,74.62,0,166.64v2166.69c0,92.04,56.53,166.67,126.28,166.67h2247.43c69.74,0,126.29-74.62,126.29-166.67V166.64c0-92.02-56.54-166.64-126.29-166.64H126.28Z"/>
    <path class="cls-3" d="M1250.01,1116.62c34.02-251.54,146.16-705.21,360.02-705.21,249.68,0,543.04,838.68,542.97,1533.03h-230.24c0-728.27-178.38-1384.46-306.73-1384.48-133.89-.01-251.22,446.35-251.22,1296.77h-229.93c0-850.42-116.63-1296.77-251.23-1296.77s-306.37,656.34-306.37,1384.48h-230.24c.22-694.94,292.83-1533.12,542.96-1533.03,213.57.07,325.74,453.62,360.04,705.21"/>
  </g>
  <g>
    <path class="cls-3" d="M1250,1189.47c150,0,271.6,168.09,271.6,375.45,0,196.3-108.99,357.39-247.88,374l-10.9,40.72-12.83,47.93-12.83-47.93-10.9-40.72c-138.89-16.62-247.88-177.7-247.88-374,0-207.35,121.6-375.45,271.6-375.45h0Z"/>
    <path d="M1250,1173.49c80.42,0,152.86,44.55,204.97,116.58,51.04,70.55,82.61,167.74,82.61,274.84,0,100.91-28.03,193.01-73.96,262.32-44.91,67.76-107.02,113.94-177.19,125.96l-36.42,136.09-36.42-136.09c-70.18-12.02-132.28-58.2-177.19-125.96-45.93-69.3-73.96-161.41-73.96-262.32,0-107.1,31.57-204.29,82.61-274.84,52.11-72.03,124.55-116.58,204.97-116.58h0ZM1429.13,1308.79c-46.19-63.85-109.55-103.35-179.13-103.35s-132.94,39.5-179.13,103.35c-47.26,65.33-76.49,155.87-76.49,256.12,0,94.55,26,180.44,68.6,244.72,42.09,63.51,100.3,105.67,165.18,113.44l10.75,1.29,11.11,41.49,11.1-41.49,10.75-1.29c64.88-7.76,123.08-49.92,165.18-113.44,42.6-64.28,68.59-150.17,68.59-244.72,0-100.25-29.23-190.79-76.49-256.12h0Z"/>
    <path class="cls-1" d="M1250,923.19c110.29,0,199.7,89.41,199.7,199.7s-89.41,199.7-199.7,199.7-199.7-89.41-199.7-199.7,89.41-199.7,199.7-199.7h0Z"/>
    <path d="M1250,922.94c55.22,0,105.2,22.38,141.39,58.57,36.18,36.18,58.57,86.17,58.57,141.39s-22.38,105.21-58.57,141.39c-36.18,36.18-86.17,58.57-141.39,58.57s-105.21-22.38-141.39-58.57c-36.18-36.18-58.57-86.17-58.57-141.39s22.38-105.21,58.57-141.39c36.18-36.18,86.17-58.57,141.39-58.57h0ZM1391.04,981.86c-36.09-36.09-85.96-58.42-141.03-58.42s-104.94,22.33-141.03,58.42c-36.09,36.09-58.42,85.96-58.42,141.03s22.32,104.94,58.42,141.03c36.09,36.09,85.96,58.42,141.03,58.42s104.94-22.33,141.03-58.42c36.09-36.09,58.42-85.96,58.42-141.03s-22.32-104.94-58.42-141.03h0Z"/>
    <path d="M1489.49,1387.71c-70.9,33.27-152.61,52.26-239.49,52.26s-168.59-18.99-239.49-52.26c9.97-25.7,22.05-49.61,35.91-71.29,60.07,27.81,129.5,43.67,203.58,43.67s143.51-15.86,203.58-43.67c13.86,21.68,25.94,45.58,35.91,71.29h0Z"/>
    <path d="M1521.46,1576.37c-77.82,43.35-171.2,68.64-271.46,68.64s-193.64-25.29-271.46-68.64c-.08-3.81-.14-7.62-.14-11.46,0-26.98,2.08-53.28,5.99-78.65,71.86,49.26,164.39,78.86,265.61,78.86s193.75-29.6,265.61-78.86c3.91,25.37,5.99,51.67,5.99,78.65,0,3.83-.05,7.65-.14,11.46h0Z"/>
    <path d="M1453.89,1812.92c-62.14,23.82-131.21,37.12-203.89,37.12s-141.74-13.29-203.89-37.12c-21.17-33.23-38.15-71.68-49.81-113.76,70.04,44.53,157.99,70.99,253.7,70.99s183.66-26.47,253.7-70.99c-11.67,42.08-28.64,80.53-49.81,113.76h0Z"/>
    <path class="cls-3" d="M1887.13,993.13c106.78-16.18,97.9,433.52-224.89,444.27-64.59,2.15-343.62-62.79-338.7-126.76,1.43-18.53,21.28-39.22,47.37-58.77,88.2-66.07,436.94-246.73,516.21-258.74h0Z"/>
    <path d="M1884.76,977.34c30.12-4.56,52.8,15.17,66.12,49.75,9.04,23.48,13.76,54.46,13.26,88.92-.49,33.88-6,71.42-17.36,108.72-34.22,112.38-121.26,223.16-284.03,228.59-5.43.18-11.74-.01-18.75-.55-43.49-3.35-125.02-19.94-195.73-43.13-75.3-24.7-139.43-58.46-140.68-96.08-.05-1.58-.04-2.95.05-4.1.99-12.9,7.68-25.71,18.18-38.11,9.18-10.85,21.57-21.72,35.56-32.2,47.37-35.49,168.04-103.16,282.84-160.7,102.8-51.52,201.6-95.19,240.55-101.1h0ZM1921.17,1038.58c-7.68-19.93-18.68-31.62-31.67-29.66-35.68,5.41-130.95,47.79-231.07,97.98-113.34,56.81-231.99,123.26-277.97,157.71-12.1,9.07-22.69,18.32-30.32,27.33-6.31,7.46-10.26,14.26-10.69,19.89l-.05.73c.7,20.96,54.91,45.82,118.71,66.75,68.39,22.43,146.73,38.44,188.24,41.64,6.34.49,11.53.68,15.38.55,145.64-4.85,223.73-104.7,254.58-206,10.46-34.36,15.53-68.83,15.99-99.86.44-30.45-3.52-57.28-11.14-77.06h0Z"/>
    <path class="cls-3" d="M612.87,993.13c-106.78-16.18-97.9,433.52,224.89,444.27,64.59,2.15,343.62-62.79,338.7-126.76-1.43-18.53-21.28-39.22-47.38-58.77-88.2-66.07-436.94-246.73-516.21-258.74h0Z"/>
    <path d="M1333.39,968.09c0,8.82-7.15,15.98-15.98,15.98s-15.98-7.15-15.98-15.98c0-55.15,22.35-105.07,58.49-141.21,36.14-36.14,86.07-58.49,141.21-58.49,8.82,0,15.98,7.15,15.98,15.98s-7.15,15.98-15.98,15.98c-46.33,0-88.26,18.78-118.62,49.13-30.36,30.36-49.13,72.29-49.13,118.62h0Z"/>
    <path d="M1198.56,968.09c0,8.82-7.15,15.98-15.98,15.98s-15.98-7.15-15.98-15.98c0-46.33-18.78-88.26-49.13-118.62-30.36-30.36-72.29-49.13-118.62-49.13-8.82,0-15.98-7.15-15.98-15.98s7.15-15.98,15.98-15.98c55.15,0,105.07,22.35,141.21,58.49,36.14,36.14,58.49,86.07,58.49,141.21h0Z"/>
    <path d="M610.5,1008.92c-12.99-1.97-23.99,9.72-31.67,29.66-7.62,19.78-11.58,46.62-11.13,77.06.45,31.03,5.52,65.5,15.99,99.86,30.85,101.3,108.94,201.14,254.58,206,3.85.13,9.04-.06,15.38-.55,41.51-3.19,119.85-19.21,188.24-41.64,63.8-20.92,118.01-45.79,118.71-66.75l-.05-.73c-.43-5.63-4.38-12.44-10.69-19.89-7.63-9.01-18.22-18.27-30.32-27.33-45.98-34.45-164.63-100.9-277.97-157.71-100.12-50.18-195.38-92.57-231.07-97.98h0ZM549.13,1027.09c13.32-34.58,36-54.31,66.12-49.75,38.95,5.9,137.75,49.57,240.55,101.1,114.8,57.54,235.47,125.22,282.84,160.7,13.99,10.48,26.38,21.35,35.56,32.2,10.5,12.41,17.19,25.21,18.18,38.11.09,1.14.1,2.51.05,4.1-1.25,37.62-65.38,71.39-140.68,96.08-70.71,23.19-152.24,39.79-195.73,43.13-7.01.54-13.32.73-18.75.55-162.77-5.42-249.81-116.21-284.03-228.59-11.36-37.3-16.86-74.84-17.36-108.72-.5-34.46,4.21-65.43,13.26-88.92h0Z"/>
  </g>
</svg>