<?xml version="1.0" encoding="UTF-8"?>
<svg id="Layer_1" data-name="Layer 1" xmlns="http://www.w3.org/2000/svg" viewBox="0 0 200 200">
  <defs>
    <style>
      .cls-1 {
        fill: #e6b987;
      }

      .cls-2 {
        fill: #e59f32;
      }

      .cls-3 {
        fill: #f5dbc4;
      }

      .cls-4 {
        fill: #f5e0cf;
      }

      .cls-5 {
        fill: #fdfdfc;
      }

      .cls-6 {
        fill: #e8b787;
      }

      .cls-7 {
        fill: #c13327;
      }

      .cls-8 {
        fill: #a61e22;
      }

      .cls-9 {
        fill: #f5dfcc;
      }

      .cls-10 {
        fill: #c18b68;
      }

      .cls-11 {
        fill: #f6d3b1;
      }

      .cls-12 {
        fill: #e5b17d;
      }

      .cls-13 {
        fill: #e5b885;
      }

      .cls-14 {
        fill: #fbe0c6;
      }

      .cls-15 {
        fill: #f8d9c2;
      }

      .cls-16 {
        fill: #f7dec8;
      }

      .cls-17 {
        fill: #e3a038;
      }

      .cls-18 {
        fill: #f7dfc5;
      }

      .cls-19 {
        fill: #f6dbc9;
      }

      .cls-20 {
        fill: #c08c68;
      }

      .cls-21 {
        fill: #e5a034;
      }

      .cls-22 {
        fill: #e5b07d;
      }

      .cls-23 {
        fill: #fdfdfb;
      }

      .cls-24 {
        fill: #e6b986;
      }

      .cls-25 {
        fill: #f5e0c7;
      }

      .cls-26 {
        fill: #e5bf31;
      }

      .cls-27 {
        fill: #e59f31;
      }

      .cls-28 {
        fill: #f6dfc6;
      }

      .cls-29 {
        fill: #aa7552;
      }

      .cls-30 {
        fill: #a81f23;
      }

      .cls-31 {
        fill: #fbd5b2;
      }

      .cls-32 {
        fill: #f4d5b1;
      }

      .cls-33 {
        fill: #fcd268;
      }

      .cls-34 {
        fill: #b32025;
      }

      .cls-35 {
        fill: #f7e0cc;
      }

      .cls-36 {
        fill: #dc2c36;
      }

      .cls-37 {
        fill: #e5a232;
      }

      .cls-38 {
        fill: #be813a;
      }

      .cls-39 {
        fill: #b5272e;
      }

      .cls-40 {
        fill: #cc882a;
      }

      .cls-41 {
        fill: #f5dac5;
      }

      .cls-42 {
        fill: #654232;
      }

      .cls-43 {
        fill: #b5b3b5;
      }

      .cls-44 {
        fill: #a42522;
      }

      .cls-45 {
        fill: #d63828;
      }

      .cls-46 {
        fill: #fdfefd;
      }

      .cls-47 {
        fill: #e9b986;
      }

      .cls-48 {
        fill: #e6b886;
      }

      .cls-49 {
        fill: #fdfeff;
      }

      .cls-50 {
        fill: #f6e2cd;
      }

      .cls-51 {
        fill: #f8e2c6;
      }

      .cls-52 {
        fill: #f8e3c9;
      }

      .cls-53 {
        fill: #f6dfc5;
      }

      .cls-54 {
        fill: #f4ddc5;
      }

      .cls-55 {
        fill: #e8a230;
      }

      .cls-56 {
        fill: #e8b885;
      }

      .cls-57 {
        fill: #3b6b33;
      }

      .cls-58 {
        fill: #f1d1b6;
      }

      .cls-59 {
        fill: #b97d3b;
      }

      .cls-60 {
        fill: #f8d3ae;
      }

      .cls-61 {
        fill: #eed3bb;
      }

      .cls-62 {
        fill: #f6d7bd;
      }

      .cls-63 {
        fill: #f8e4ce;
      }

      .cls-64 {
        fill: #e5b784;
      }

      .cls-65 {
        fill: #f4dcc4;
      }

      .cls-66 {
        fill: #f3dec9;
      }

      .cls-67 {
        fill: #f4d3b6;
      }

      .cls-68 {
        fill: #e6b984;
      }

      .cls-69 {
        fill: #bd2d26;
      }

      .cls-70 {
        fill: #7e4a2e;
      }

      .cls-71 {
        fill: #e65940;
      }

      .cls-72 {
        fill: #f7dbc7;
      }

      .cls-73 {
        fill: #f7dfc6;
      }

      .cls-74 {
        fill: #f6e3cd;
      }

      .cls-75 {
        fill: #e5a032;
      }

      .cls-76 {
        fill: #ee3b3b;
      }

      .cls-77 {
        fill: #f4ddc9;
      }

      .cls-78 {
        fill: #dca927;
      }

      .cls-79 {
        fill: #f4dfcb;
      }

      .cls-80 {
        fill: #376531;
      }

      .cls-81 {
        fill: #edd3bd;
      }

      .cls-82 {
        fill: #e9a431;
      }

      .cls-83 {
        fill: #c08b68;
      }

      .cls-84 {
        fill: #f05250;
      }

      .cls-85 {
        fill: #f6e0c5;
      }

      .cls-86 {
        fill: #f1ccaa;
      }

      .cls-87 {
        fill: #e6b985;
      }

      .cls-88 {
        fill: #cf914b;
      }

      .cls-89 {
        fill: #aa7451;
      }

      .cls-90 {
        fill: #f2decc;
      }

      .cls-91 {
        fill: #d3954c;
      }

      .cls-92 {
        fill: #f7e3d0;
      }

      .cls-93 {
        fill: #f4d9c3;
      }

      .cls-94 {
        fill: #623420;
      }

      .cls-95 {
        fill: #c22c27;
      }

      .cls-96 {
        fill: #e39d39;
      }

      .cls-97 {
        fill: #e3a134;
      }

      .cls-98 {
        fill: #c9932b;
      }

      .cls-99 {
        fill: #f9e1c9;
      }

      .cls-100 {
        fill: #e0dede;
      }

      .cls-101 {
        fill: #74a541;
      }

      .cls-102 {
        fill: #c18b66;
      }

      .cls-103 {
        fill: #f7dcc5;
      }

      .cls-104 {
        fill: #d09449;
      }

      .cls-105 {
        fill: #83431e;
      }

      .cls-106 {
        fill: #f5ceac;
      }

      .cls-107 {
        fill: #b5b3b4;
      }

      .cls-108 {
        fill: #e3a035;
      }

      .cls-109 {
        fill: #e19e38;
      }

      .cls-110 {
        fill: #f9dac0;
      }

      .cls-111 {
        fill: #c28c68;
      }

      .cls-112 {
        fill: #465e2d;
      }

      .cls-113 {
        fill: #f7ddc2;
      }

      .cls-114 {
        fill: #f3e0c8;
      }

      .cls-115 {
        fill: #c08c69;
      }
    </style>
  </defs>
  <path class="cls-102" d="M149.16,73.97c.47-.01.69.18.8.67,4.16,19.01,7.33,38.18,10.06,57.44.03.2,0,.4,0,.6-.27.33-.57.65-.81,1.01-2.38,3.65-5.04,7.09-8,10.27-9.12,9.83-19.98,17.21-32.18,22.69-16.39,7.36-33.62,10.9-51.52,11.48-.05-.3-.14-.59-.16-.89-.74-12.55-1.44-25.11-2.62-37.63-.85-9.06-1.93-18.07-3.52-27.03-1.57-8.82-2.95-17.67-4.41-26.5.35.05.71.09,1.06.14.6,0,1.21.02,1.81.03,1.19.39,2.41.12,3.62.18,1.07-.06,2.15-.12,3.22-.18.2,0,.41,0,.61,0,.94-.06,1.89-.12,2.83-.18.47.18.95.29,1.41-.03.73,0,1.46,0,2.18-.01,1.61-.07,3.22-.13,4.84-.2.95-.08,1.92.21,2.84-.19,1.2,0,2.4-.02,3.6-.03.8-.06,1.59-.12,2.39-.18.88-.06,1.75-.13,2.63-.19.25,0,.51,0,.76-.01,1.1-.07,2.19-.13,3.29-.2.86-.06,1.71-.13,2.57-.19.35,0,.69-.01,1.04-.02.8-.07,1.6-.14,2.39-.2,1.13-.12,2.27-.24,3.4-.37,5.35-.3,10.64-1.04,15.9-2.03,1.41-.27,2.82-.51,4.22-.81,3.68-.78,7.36-1.58,11.04-2.36.07,0,.13,0,.2,0,5.41.48,10.7.62,14.06-4.87.07-.12.28-.15.43-.22ZM91.8,147.06c0-.66,0-1.09,0-1.51-.04-11.16-.07-22.32-.13-33.47,0-.83.2-1.16,1.06-1.27,13.16-1.66,26.31-3.34,39.46-5.04.59-.08.86.04.86.7,0,8.78.02,17.56.04,26.34,0,.4-.02.68-.57.71-1.7.08-3.4.28-5.1.36-.97.05-1.35.43-1.33,1.43.05,3.65.03,7.3.03,10.96q0,4.96,4.91,4.3c2.75-.37,4.26-2.02,4.31-4.79.04-2.24.11-4.5-.02-6.73-.1-1.71.26-3.03,1.57-4.25,1.41-1.33,2.39-3.05,3.32-4.76,4.58-8.47,2.99-18.44-3.03-24.78-2.36-2.49-4.33-2.29-7.01-1.93-13.44,1.79-26.9,3.49-40.35,5.21-.48.06-.88.15-.79.76.1.63-.24.95-.71,1.29-8.46,6.21-11.74,16.53-8.09,25.81,2.07,5.28,5.84,8.87,11.58,10.67ZM111.77,132.26c1.42.07,2.17-.4,1.78-2.29-1-4.91-1.93-9.85-2.63-14.81-.34-2.41-1.27-3.17-3.56-2.47-.85.26-1.92,0-2.11,1.35-.83,6.13-1.69,12.25-2.55,18.38-.09.65.16.88.82.91,2,.1,2.92-.79,2.85-2.81-.07-2.15,1.72-1.66,2.88-1.8,1.19-.14.63,1.05.89,1.63.34.75-.11,2.06,1.62,1.92ZM124.09,143.06s.05,0,.08,0c0-1.41.04-2.81,0-4.22-.08-2.77-1.11-4.1-3.16-4.18-3.56-.14-5.83,1.29-6.04,4.03-.27,3.57-.24,7.15.03,10.73.08,1.1.53,2.09,1.59,2.64,2.84,1.48,7.01-.44,7.46-3.6.26-1.77.05-3.6.05-5.4ZM112.98,144.41s.02,0,.04,0c0-1.34.01-2.68,0-4.02-.04-2.9-1.11-4.29-3.33-4.34-3.72-.07-5.86,1.44-5.93,4.37-.09,3.41-.03,6.83,0,10.25.01,1.23.43,2.31,1.6,2.93,3.06,1.62,7.34-.64,7.6-4.07.13-1.7.02-3.41.02-5.12ZM123.08,125.83c.18-2.28-1.24-4.04-3.06-5.6-.81-.7-1.68-1.34-2.42-2.1-.74-.76-.9-1.73-.42-2.69.48-.96,1.4-1.07,2.34-.98.91.09,1.86.46,1.97-1.02.11-1.46-.36-2.37-1.96-2.34-2.23.03-4.28.56-5.26,2.78-1.15,2.59-.85,5.16,1.02,7.33.97,1.13,2.25,1.99,3.38,2.98.96.84,1.36,1.89.7,3.04-.67,1.19-1.82,1.33-3.07,1.05-.66-.15-1.65-.99-1.85.27-.17,1.1-.72,2.62,1.13,3.16,3.96,1.13,7.54-1.5,7.51-5.87ZM94.67,124.2h.05c0,2.78-.02,5.56.01,8.34,0,.74-.41,1.89,1.03,1.77,1.14-.09,2.55.13,2.38-1.83-.12-1.43.14-2.9-.07-4.31-.33-2.26.64-3.04,2.73-2.91,1.54.1,1.62-.9,1.54-2.06-.09-1.34-.96-.97-1.75-.85-.6.09-1.19.17-1.79.23-.35.03-.72,0-.72-.47.01-1.67-.36-3.5.21-4.96.4-1,2.31-.52,3.53-.77.07-.01.13,0,.2-.03,1.31-.37.82-1.45.82-2.27,0-.84-.7-.73-1.28-.65-1.92.25-3.85.53-5.77.75-.82.09-1.16.43-1.14,1.28.04,2.91.01,5.83.01,8.74ZM125.42,121.98c0,2.35,0,4.69,0,7.04,0,.68-.18,1.62.95,1.4.98-.2,2.54.46,2.52-1.56-.05-4.62.02-9.25-.06-13.87-.02-1.39.27-2.07,1.84-2.12,1.67-.05.84-1.51.95-2.36.12-.85-.56-.83-1.17-.75-2.29.31-4.58.58-6.87.93-1.67.26-.95,1.61-.96,2.5-.01,1.03.83.75,1.42.58,1.11-.33,1.41.08,1.38,1.17-.06,2.34-.02,4.69-.02,7.04ZM94.82,146.59h.03c0,2.31.11,4.62-.04,6.92-.1,1.64.42,2.09,1.98,1.71.79-.19,1.15-.49,1.1-1.33-.06-1.07.09-2.15-.03-3.21-.27-2.31.02-3.98,3-3.76,1.06.08.85-1,.82-1.7-.03-.8-.62-.72-1.18-.64-.56.08-1.14.11-1.69.24-.75.17-.92-.14-.94-.83-.11-3.68-.13-3.68,3.39-4.24.13-.02.27-.02.39-.07,1.02-.41.61-1.29.61-2,0-.67-.54-.65-1.03-.59-1.83.22-3.65.45-5.48.66-.69.08-.96.41-.95,1.13.03,2.58.01,5.15.01,7.73ZM136.9,149.85c-.04-.56-.39-.82-.86-.82-.54,0-.98.26-.96.91.02.51.32.82.82.82.59,0,.9-.36.99-.9Z"/>
  <path class="cls-29" d="M67.52,178.13c17.9-.58,35.13-4.12,51.52-11.48,12.2-5.48,23.06-12.86,32.18-22.69,2.96-3.19,5.61-6.63,8-10.27.23-.36.54-.67.81-1.01.67,5.41,1.4,10.81,2,16.23,1.03,9.39,1.39,18.83,1.79,28.26.08,1.96-.68,2.76-2.48,2.97-9.61,1.12-19.21,2.31-28.82,3.37-12.34,1.37-24.69,2.69-37.04,3.94-8.62.87-17.27,1.58-25.9,2.36-.4-.02-.8-.03-1.2-.05-.28-3.88-.56-7.76-.85-11.63Z"/>
  <path class="cls-89" d="M40.59,184.15c-.58-.29-.48-.83-.48-1.32.23-17.46,1.47-34.86,3-52.24,1.34-15.18,2.89-30.33,4.7-45.45.17-1.46.38-2.91.58-4.37.1,1.9,2.78,4.01,5.45,4.26.76.84,1.93.54,2.83,1-.07.38-.21.77-.2,1.14.18,4.97.42,9.94.57,14.92.23,7.65.55,15.3.58,22.95.05,13.28-.09,26.57-.18,39.85-.01,2.06-.23,4.12-.36,6.18-2.34,1.84-4.68,3.68-7.01,5.53-3.17,2.51-6.33,5.03-9.49,7.54Z"/>
  <path class="cls-12" d="M102.29,25.87c2.33-4.93,6.71-6.74,11.67-7.35,8.76-1.07,16.61,1.9,24.16,5.93,2.31,2.17,4.62,4.32,6.91,6.5,1.26,1.19,2.48,2.42,3.73,3.63.34.2.67.41,1.01.61.06.17.07.36.17.49,4.08,5.33,3.99,13.08-3.79,16.19-5.84,2.34-11.52.86-17.07-1.22-7.54-2.83-14.24-7.11-20.09-12.6-3.49-3.27-6.8-6.83-6.7-12.17ZM136.19,38.57c-.78.2-1.46.37-1.59,1.2-.05.33.28.42.57.35.73-.16,1.18-.55,1.03-1.56ZM138.87,32.18c.9.73,1.65,1.04,2.67.57-.75-.82-1.55-.91-2.67-.57ZM133.58,30.15c.1,1.34.89,1.85,1.96,1.28-.53-.6-1.12-1.01-1.96-1.28ZM112.97,27.49c.52-.16,1.01-.43,1.16-1.05.06-.25-.04-.52-.35-.45-.59.14-1.16.37-1.28,1.08-.05.3.12.42.46.42ZM150.22,38.19c-.03.94-.36,1.7.38,2.28.07.05.42-.08.45-.19.22-.78-.06-1.41-.83-2.1ZM121.42,33.6c-.32,0-.46.2-.39.46.16.59.56.98,1.17,1.08.29.05.45-.18.39-.44-.14-.62-.64-.89-1.17-1.1ZM117.43,26.1c.96.67,1.64,1.13,2.56.29-.74-.67-1.49-.53-2.56-.29ZM127.68,29.54c-.74.57-1.07,1.12-.57,1.97.9-.45,1.25-.99.57-1.97ZM134.01,34.6c-.53.13-.79.54-.92,1.04-.08.31.09.55.43.46.5-.12.96-.37,1.06-.91.06-.33-.23-.51-.57-.59ZM122.85,30.34c-.67.71-.38,1.27.08,1.8.17.2.45.27.57-.02.32-.73-.05-1.25-.65-1.78ZM124.47,24.29c-.77-.86-1.48-1.16-2.64-1.12.71,1.05,1.51,1.16,2.64,1.12ZM137.8,35.94c.43-.11.78-.36.84-.83.05-.37-.2-.66-.56-.68-.56-.02-.65.47-.74.88-.07.33.06.58.47.63ZM118.23,29.91c.47-.15.86-.42.89-.95.02-.32-.16-.63-.54-.56-.52.09-.81.43-.78.99.01.29.05.54.44.52ZM147.66,35.66c-.5,1.06-.2,1.68.63,2.39.14-.97.07-1.64-.63-2.39ZM118.54,20.54c.84.56,1.48.99,2.52.46-.81-.61-1.47-.89-2.52-.46ZM111.91,20.94c.62.76,1.32.63,2,.44.08-.02.15-.44.1-.47-.66-.36-1.33-.34-2.11.02ZM110.76,23.4c.6.94,1.3.97,2.19.83-.41-1.02-1.14-.96-2.19-.83ZM125.58,21.16c.55.85,1.05,1.4,2.1,1.25-.36-1.05-1.11-1.16-2.1-1.25ZM141.24,40.69c.82-.08,1.08-.59,1.06-1.3,0-.28-.21-.46-.48-.31-.63.35-.88.87-.58,1.61ZM142.96,35.43c-.29.68-.46,1.29.08,1.84.19.19.49.06.56-.18.2-.66.01-1.2-.64-1.66ZM130.99,29.34c-.27.9-.14,1.55.7,2.13.3-1,.17-1.64-.7-2.13ZM145.49,46.62c.68-.26,1.12-.64,1.01-1.4-.04-.26-.26-.43-.52-.28-.63.37-.79.92-.49,1.68ZM137.42,27.96c.57.89,1.13,1.3,2.2,1.31-.45-1.05-1.15-1.22-2.2-1.31ZM137.54,26.99c-.21-1.12-.72-1.58-1.72-1.92.26,1.05.71,1.58,1.72,1.92ZM134,28.66c.16-1.07-.11-1.66-1.01-2.03-.21.93.1,1.5,1.01,2.03ZM146.51,41.95c.67-.33.99-.75.76-1.44-.08-.25-.32-.38-.54-.17-.46.43-.75.92-.22,1.61ZM128.85,25.77c-.92-.59-1.53-.43-2.26.45.93.16,1.58.25,2.26-.45ZM150.03,45.58c.86-.72,1.11-1.3.64-2.33-.67.73-.75,1.32-.64,2.33ZM124.78,27.19c-.42.15-.97.15-1.06.72-.05.34.27.43.55.4.47-.06.95-.2,1.05-.73.07-.34-.24-.41-.54-.39ZM116.47,23.08c.81.62,1.47.79,2.31.44-.64-.74-1.33-.71-2.31-.44ZM141.87,30.49c.27.7.68,1.02,1.3,1.02.1,0,.32-.33.28-.4-.3-.58-.76-.88-1.58-.63ZM129.23,24.24c.46.7.91,1.13,1.89.8-.5-.71-.98-1.07-1.89-.8ZM146.12,34.16c.04-.34-.04-.58-.39-.58-.45,0-.61.34-.73.68-.1.28,0,.59.31.6.45.02.64-.37.8-.7ZM133.03,24.56c.02-1.07-.45-1.44-1.3-1.63.02.89.6,1.17,1.3,1.63Z"/>
  <path class="cls-36" d="M81.8,33.57c1.15,7.83,2.31,15.67,3.47,23.5.05.36.19.7.29,1.05-.49.7-1.81.65-1.81,1.67.01,1.58.27,3.16.43,4.74-.12-.02-.25-.04-.37-.06-.03-.06-.08-.09-.15-.1-.28-.08-.56-.16-.83-.23-.93.13-1.3,1.02-2.02,1.44-.33-2.41-.85-4.81-.92-7.23-.07-2.47-1.1-3.63-3.51-3.67-1.94.86-2.89,2.7-2.54,4.72.49,2.85.91,5.71,1.36,8.56-.02.04-.03.08-.04.12-.87.9-2.41,1.51-1.4,3.23-.32.16-.64.32-1.02.5-2.05-4.96-4.18-9.82-6.05-14.78-.78-2.05-2.16-1.96-3.78-1.8-1.08,1.67-1.93,3.23-.86,5.41,1.33,2.72,2.21,5.65,3.29,8.49-.14,0-.27,0-.41-.01-.06-.01-.12-.03-.18-.04-.07-.15-.11-.33-.22-.44-4.26-4.4-7.71-9.39-10.68-14.73-1.32-2.38-2.61-4.77-3.52-7.42.33-.03.52-.07.72-.07,8.69-.11,16.88-2.21,24.42-6.52,2.62-1.5,5.58-2.88,6.35-6.34Z"/>
  <path class="cls-88" d="M148.76,34.57c-1.24-1.21-2.47-2.44-3.73-3.63-2.29-2.18-4.61-4.33-6.91-6.5,8.4,4.5,15.62,10.31,19.78,19.11,2.67,5.66,2.29,11.31-1.52,16.51-2.99,2.43-6.46,2.06-9.79,1.32-15.97-3.56-29.37-11.75-40.76-23.32-2.47-2.51-4.72-5.36-4.56-9.28.25-1,.44-2.03,1.02-2.92-.1,5.34,3.22,8.9,6.7,12.17,5.85,5.49,12.55,9.77,20.09,12.6,5.54,2.08,11.22,3.56,17.07,1.22,7.78-3.11,7.87-10.86,3.79-16.19-.1-.13-.12-.33-.17-.49.05-1.01-.63-1.56-1.52-2.38.16.67.24,1.01.32,1.35.05.08.1.15.14.23.01.06.03.12.04.18ZM156.33,46.89c.66-.94.58-1.62-.21-2.38-.49.92-.45,1.6.21,2.38ZM154.85,40.34c-.09,1,.13,1.62,1.02,1.98.23-.96-.21-1.47-1.02-1.98Z"/>
  <path class="cls-39" d="M81.8,33.57c-.77,3.46-3.72,4.84-6.35,6.34-7.54,4.32-15.73,6.42-24.42,6.52-.2,0-.39.04-.72.07.91,2.65,2.2,5.04,3.52,7.42,2.96,5.34,6.42,10.33,10.68,14.73.11.11.15.29.22.44-1.18.53-2.31,1.14-3.22,2.08-1.45-2.72-2.94-5.43-4.32-8.18-.42-.84-.82-1.02-1.56-.51-2.72.25-3.17,2.76-4.45,4.46-.33.36-.09.69.09,1,1.6,2.68,3.21,5.36,4.81,8.04-.07.28-.14.55-.21.83-.24-.26-.54-.48-.72-.77-1.79-2.86-3.56-5.74-5.36-8.59-.19-.31-.27-1.08-.97-.51-.17.06-.35.12-.52.18-1.94-6.35-3.87-12.7-5.81-19.05-.61-2.01-1.2-4.03-1.8-6.04,6.09,1.56,12.18.89,18.21-.25,8.14-1.54,16.12-3.63,22.9-8.79,0,.2-.01.39-.02.59Z"/>
  <path class="cls-105" d="M93.67,40.8s.1-.04.15-.05c.04,4.11,2.61,6.71,5.49,9.11,3.29,2.74,7.13,4.46,11.06,6.03,5.01,4.49,9.36,9.53,12.58,15.46.47.86.89,1.01,1.78.76,4.84-1.31,9.71-2.44,14.77-2.37,2.01.71,4.04,1.36,6.03,2.14.88.35,2.14.81,2.09,1.78-.05,1.08-1.37,1.42-2.34,1.75-3.44,1.17-6.97,1.13-10.48.54-6.95-1.16-13.69-3.03-19.89-6.52-4.06-2.28-7.46-5.31-10.66-8.67-3.43-3.59-7.33-6.73-10-11.03-2.36-3.82-2.59-6.39-.58-8.94Z"/>
  <path class="cls-42" d="M40.59,184.15c3.16-2.51,6.32-5.03,9.49-7.54,2.33-1.85,4.67-3.69,7.01-5.53.21.23.48.44.63.71,2.99,5.35,5.95,10.72,8.97,16.04.41.71.58,1.75,1.67,1.92.4.02.8.03,1.2.05-2.79.57-5.44-.28-8.11-.84-6.48-1.37-12.94-2.8-19.41-4.23-.5-.11-.97-.39-1.46-.59Z"/>
  <path class="cls-100" d="M61.05,23.31c5.64-.86,11.29-1.66,16.96-.38,1.7.39,3.53.83,4.01,2.97-.33,2.9-2.6,4.23-4.77,5.37-10.33,5.4-21.34,7.98-33.01,7.26-2.54-.16-5.39-.35-6.64-3.36-.12-1.88,1.17-2.92,2.43-3.89,4.19-3.21,9.11-4.82,14.08-6.32.96-.29,1.94-.52,2.9-.77.1.31.2.62.3.93-.04.7-.62.68-1.08.82-4.09,1.21-8.11,2.58-11.45,5.37-.8.67-1.79,1.39-1.47,2.65.33,1.31,1.52,1.61,2.64,1.84,5.86,1.19,11.56.15,17.2-1.36,4.4-1.18,8.78-2.5,12.27-5.64,1.54-1.39,1.27-2.78-.69-3.49-4.36-1.59-8.81-1.04-13.26-.39-.14-.53-.28-1.07-.43-1.6Z"/>
  <path class="cls-94" d="M93.67,40.8c-2.01,2.55-1.78,5.12.58,8.94,2.66,4.31,6.57,7.44,10,11.03,3.21,3.36,6.6,6.39,10.66,8.67,6.21,3.49,12.94,5.36,19.89,6.52,3.5.59,7.04.63,10.48-.54.97-.33,2.29-.68,2.34-1.75.05-.97-1.21-1.43-2.09-1.78-1.98-.78-4.02-1.44-6.03-2.14,0,0,0,0,0,0,.28,0,.56,0,.84-.01.5,0,1-.03,1.5,0,2.7.19,5.37.49,7.72,2.03-.48.67-.41,1.44-.4,2.21-.15.07-.36.1-.43.22-3.35,5.48-8.65,5.35-14.06,4.87-.07,0-.13,0-.2,0-.73-.14-1.46-.29-2.19-.43-1-.81-2.25-1.03-3.42-1.36-11.42-3.22-21.33-9.2-30.14-16.95-3.9-3.43-7.24-7.51-8.87-12.66-.71-2.34-.18-4.34,1.67-5.96.62-.54,1.28-.97,2.16-.88Z"/>
  <path class="cls-43" d="M37.6,35.17c1.25,3,4.11,3.2,6.64,3.36,11.67.72,22.68-1.86,33.01-7.26,2.17-1.14,4.44-2.47,4.77-5.37.41,1.66,1.29,3.24,1.09,5-.09.83-.73,1.47-1.3,2.09-6.78,5.15-14.76,7.24-22.9,8.79-6.03,1.14-12.12,1.81-18.21.25-3.43-1.2-2.52-4.37-3.1-6.85Z"/>
  <path class="cls-78" d="M61.05,23.31c.14.53.28,1.07.43,1.6.41,1.78.79,3.57,1.25,5.34.47,1.82-.67,2.14-2.03,2.3-.1-.59-.18-1.18-.29-1.77-1.21-6.17-3.89-12.07-3.76-18.32-3.24,3.04-.82-2.27-2.31-1.91,0,.13-.04.36,0,.57.29,1.41-.12,2.14-1.71,2.36-4.52.62-9.04,1.28-13.52,2.17-2,.4-2.56-.29-2.55-2.04.03-.6.44-.74.95-.82,5.31-.9,10.6-1.83,15.92-2.7,2.88-.47,4.64.81,5.28,3.58.75,3.22,1.57,6.42,2.36,9.63Z"/>
  <path class="cls-80" d="M101.27,28.79c-.17,3.92,2.09,6.77,4.56,9.28,11.39,11.57,24.79,19.75,40.76,23.32,3.33.74,6.8,1.12,9.79-1.32-.02.26.05.58-.07.78-1,1.7-2.12,3.33.19,4.97.42.3.05,1.09-.4,1.5-.66.6-1.37,1.08-2.33.65-.06-.3-.12-.6-.18-.9.82.41,1.57.36,2.13-.43.44-.62.05-1.08-.4-1.47-.97-.85-2.65-1.53.29-3.24-1.38.46-1.87.69-2.39.78-4.69.82-9.11-.49-13.47-1.91-11.04-3.6-20.72-9.67-29.63-16.97-4.07-3.33-7.91-7-9.52-12.28-.37-1.21-1.15-1.7-2.21-1.52-1.11.19-.16,1.19-.5,1.92-.41,0-.9-.02-1.39,0-1.37.07-2.09.65-1.11,1.94.89,1.17.9,2.39.68,3.7.06.07.12.13.18.2,0,0,.01.01.01.01-.18.12-.37.24-.55.36-.14-.42-.28-.84-.41-1.26.75-.9-.15-1.49-.47-2.13-1.19-2.33-1.1-2.65,1.32-3.54.09-.03.26-.04.28-.1.91-2.71,2.89-1.17,4.55-1.16.09-.37.19-.78.28-1.18Z"/>
  <path class="cls-69" d="M95.31,36.91c.14.42.28.84.42,1.26,0,0-.08.01-.08.01-.87.39-.48,1.18-.57,1.81.06,1.48.81,2.68,1.68,3.78,3.6,4.6,8.43,7.41,13.87,9.27,2.26.77,4.54,1.46,6.97,1.44,2.53-.51,2.91.68,2.19,2.76-2.31.23-4.56-.18-6.81-.6-.87-.25-1.74-.5-2.61-.76-3.92-1.57-7.77-3.29-11.06-6.03-2.88-2.4-5.45-4.99-5.49-9.11.19-1.4.36-2.81,1.49-3.84Z"/>
  <path class="cls-57" d="M119.79,57.25c.72-2.07.34-3.27-2.19-2.75-.14-.14-.27-.28-.41-.42-.46-1.25-.49-3.06-2.7-1.86-.56.3-.87-.25-1.02-.77-.04-.8-.09-1.61-.13-2.41-.01-.78-.61-.67-1.12-.8-1.28-.33-2.57.67-3.83-.07-1.02-.95-.77-3.04-2.79-3.07-.96-.1-1.92-.21-2.87-.31-.71-.52-.98-1.29-1.19-2.1.05-.35.09-.69.14-1.04.42-2.16-1.41-1.83-2.52-2.29-1.15-.44-2.57-.07-3.5-1.18,0,0,.08-.01.08-.01.18-.12.37-.24.55-.36,1.41.27,2.85.43,4.22.84,1.31.4,2.43,1.23,2.06,2.84-.46,2.05-.02,2.78,2.1,2.73,1.77-.04,3.06.48,3.62,2.29.27.85.81,1.14,1.77,1,3.28-.47,3.63-.17,4.11,3.16.08.58.37.71.81.47,1.54-.84,2.03.13,2.32,1.35.26,1.09.73,1.63,1.95,1.15.98-.39,1.49.22,1.54,1.12.04.76-.12,1.53-.23,2.28-.27,1.8.9,2.8,2.67,2.3.76-.22,1.38-.64,2.01-1.09,1.47-1.05,2.53-.7,3.09.95.16.47.37.91.59,1.48,1.11-1.02,2.17-2.44,3.28-.23.22.43.11,1.01.31,1.46.46,1.02.96,1.88,2.08.45,1.15-1.47,2.68-1.15,3.36.62.42,1.09.64,2.27,1.17,3.29.57,1.08,1.49,2.02,2.87,1.83,1.32-.19,1.18-1.39,1.36-2.37.26-1.41,1.21-1.47,2.26-.91.55.29,1.02.76,1.49,1.18.93.84,1.74.9,2.66-.1,1.54-1.69,2.03-1.61,3.27.36.18.28.38.55.57.82.06.3.12.6.18.9-.14-.03-.27-.05-.41-.08-.07-.05-.15-.09-.22-.14-.2-.05-.4-.1-.6-.15-.74-1.52-1.47-2.76-2.94-.5-.56.86-1.54.53-2.38.22-.47-.42-.91-.87-1.41-1.25-.46-.34-.93-.91-1.57-.61-.58.27-.25.96-.37,1.45-.32.61-.64,1.23-.95,1.84-.87.38-1.73.28-2.59-.01-.21-.13-.42-.25-.64-.38-.28-.27-.55-.55-.83-.82-.45-1.03-.9-2.06-1.35-3.09-.03-1.05-.51-1.8-1.55-2.02-.78-.17-1.07.48-1.3,1.09-1.33.84-2.84-.24-3.2-2.33-.14-.8-.55-1.52-1.25-.78-1.73,1.83-2.05.2-2.45-.92-.44-1.21-1.09-1.15-1.98-.62-1.36,1.13-2.81,1.94-4.63,1.18-1.24-.52-1.5-1.58-1.38-2.8Z"/>
  <path class="cls-27" d="M84.18,64.53c-.16-1.58-.42-3.16-.43-4.74,0-1.01,1.32-.97,1.81-1.67.43-.14.86-.28,1.29-.42,0,.54-.04,1.08.02,1.6,1.03,8.64,1.66,17.33,3,25.93-.88.06-1.75.13-2.63.19-.51-5.73-.98-11.47-1.55-17.19-.13-1.32.67-3.15-1.49-3.7Z"/>
  <path class="cls-104" d="M87.65,57.9c.37-.26.09-.55.02-.8-.82-3.01-.23-5.74,1.57-8.25.46,1.07.91,2.15,1.37,3.22.23,2.1,1.3,3.89,2.26,5.69,1.28,2.38,2.78,4.63,4.18,6.94-1.08,0-2.13-.55-3.23-.17-.56.14-.26,1.16-1.07,1.04-.95-1.09-1.9-2.18-2.88-3.31-.03.19-.05.32-.07.45-.46-1.72-.9-3.45-2.16-4.8Z"/>
  <path class="cls-112" d="M90.62,52.07c-.46-1.07-.91-2.15-1.37-3.22.2-.4.39-.8.59-1.21,1.63,5.15,4.97,9.23,8.87,12.66,8.82,7.75,18.73,13.73,30.14,16.95,1.17.33,2.42.55,3.42,1.36-1.49-.26-2.97-.52-4.46-.78-7.66-2.11-14.68-5.6-21.2-10.09-6.22-4.3-12.17-8.91-16-15.67Z"/>
  <path class="cls-64" d="M87.65,57.9c1.26,1.36,1.7,3.09,2.16,4.8.22,2.22.44,4.45.67,6.67.19,1.94.38,3.88.57,5.82,0,.11.02.23.03.34-.14.66-.06,1.61-.47,1.92-1.32,1.02-.9,2.22-.7,3.45.23,1.44.47,2.88.7,4.33-.25,0-.51,0-.76.01-1.34-8.61-1.96-17.29-3-25.93-.06-.53-.02-1.07-.02-1.6.27.07.54.13.81.2Z"/>
  <path class="cls-109" d="M56.68,86.04c-.9-.45-2.06-.16-2.83-1-1.41-2.15-2.82-4.29-4.23-6.44-1.39-2.02-2.78-4.04-4.17-6.07-.16-.24-.41-.48-.09-.78.75-.48,1.51-.96,2.26-1.44.15.13.33.24.44.4,3.28,5.16,6.55,10.33,9.82,15.5-.35-.05-.71-.09-1.06-.14-.04,0-.09-.02-.13-.04Z"/>
  <path class="cls-98" d="M36.55,13.61c0,1.75.56,2.44,2.55,2.04,4.47-.89,9-1.55,13.52-2.17,1.59-.22,2-.95,1.71-2.36-.04-.21,0-.44,0-.57,1.5-.36-.93,4.95,2.31,1.91-.13,6.26,2.55,12.15,3.76,18.32.12.59.2,1.18.29,1.77-1.06.07-1.69-.25-1.92-1.46-.37-2.01-.96-3.99-1.46-5.98-.1-.31-.2-.62-.3-.93-.77-3.28-1.54-6.55-2.3-9.83-.12-.5-.4-.49-.82-.41-5.04.84-10.08,1.65-15.12,2.49-2.52.42-3.07-.27-2.23-2.81Z"/>
  <path class="cls-40" d="M140.33,68.74c.86.29,1.72.4,2.59.01,1.77.51,3.53,1.09,5.43.84-.2.09-.4.17-.64.27.76.52,1.75.56,2.28,1.35-.02.28-.11.5-.43.54-2.35-1.53-5.02-1.84-7.72-2.03-.5-.03-1,0-1.5,0-.28-.18-.56-.2-.84.01,0,0,0,0,0,0-5.06-.07-9.93,1.06-14.77,2.37-.89.24-1.31.1-1.78-.76-3.23-5.93-7.58-10.97-12.58-15.46.87.25,1.74.5,2.61.76-.07.6.48.74.8,1.04,3.88,4.08,7.36,8.47,10.02,13.46.27.5.62.35,1.02.26,2.54-.58,5.06-1.23,7.62-1.67,2.61-.45,5.26-.67,7.9-.99Z"/>
  <path class="cls-95" d="M148.35,69.59c-1.89.26-3.65-.32-5.43-.84.32-.61.64-1.23.95-1.84,1.12.14,2.24.27,3.35.41.83.31,1.82.64,2.38-.22,1.47-2.26,2.19-1.02,2.94.5-.53,1.09-1.72,1.22-2.61,1.78-.53.07-1.06.14-1.59.21Z"/>
  <path class="cls-38" d="M49.63,78.6c1.41,2.15,2.82,4.29,4.23,6.44-2.67-.26-5.36-2.36-5.45-4.26.05-.93.97-1.36,1.23-2.17Z"/>
  <path class="cls-32" d="M47.62,70.31c-.75.48-1.51.96-2.26,1.44.74-1.7,1.01-3.7,2.94-4.65.17-.06.35-.12.52-.18.26,1.37-.65,2.31-1.21,3.39Z"/>
  <path class="cls-26" d="M148.35,69.59c.53-.07,1.06-.14,1.59-.21-.14.62.67,1.21.05,1.84-.54-.79-1.52-.84-2.28-1.35.24-.1.44-.19.64-.27Z"/>
  <path class="cls-80" d="M153.14,67.75c.07.05.15.09.22.14-.07-.05-.15-.09-.22-.14Z"/>
  <path class="cls-46" d="M91.8,147.06c-5.75-1.8-9.51-5.4-11.58-10.67-3.65-9.28-.36-19.61,8.09-25.81.47-.34.81-.67.71-1.29-.1-.61.3-.7.79-.76,13.45-1.72,26.91-3.42,40.35-5.21,2.67-.36,4.65-.56,7.01,1.93,6.03,6.34,7.62,16.31,3.03,24.78-.93,1.72-1.91,3.44-3.32,4.76-1.3,1.22-1.67,2.55-1.57,4.25.13,2.24.06,4.49.02,6.73-.05,2.77-1.56,4.42-4.31,4.79q-4.9.66-4.91-4.3c0-3.65.01-7.3-.03-10.96-.01-1,.37-1.38,1.33-1.43,1.7-.09,3.4-.28,5.1-.36.56-.03.58-.31.57-.71-.02-8.78-.04-17.56-.04-26.34,0-.67-.28-.78-.86-.7-13.15,1.69-26.3,3.38-39.46,5.04-.86.11-1.07.44-1.06,1.27.06,11.16.09,22.32.13,33.47,0,.42,0,.85,0,1.51ZM89.02,113.58c-5.35,4.56-7.66,10.1-7.16,16.73.39,5.16,2.65,9.36,7.16,12.41v-29.14ZM135.73,108.08c-.27,2.47-.14,23.37.13,24.08,5.85-6.74,6.65-18.07-.13-24.08ZM129.09,142.26c0,1.44-.05,2.88.03,4.32.03.6-.48,1.62.56,1.74,1.1.12,2.32-.26,2.51-1.52.47-3.25.36-6.54.05-9.81-.1-1.05-1.08-1.11-1.98-1.04-.93.08-1.22.59-1.19,1.48.05,1.61.01,3.21.02,4.82Z"/>
  <path class="cls-70" d="M56.68,86.04s.09.03.13.04c1.46,8.84,2.84,17.69,4.41,26.5,1.6,8.96,2.67,17.98,3.52,27.03,1.18,12.52,1.88,25.08,2.62,37.63.02.3.1.59.16.89.28,3.88.56,7.76.85,11.63-1.09-.17-1.26-1.21-1.67-1.92-3.03-5.33-5.98-10.7-8.97-16.04-.15-.27-.42-.47-.63-.71.12-2.06.34-4.12.36-6.18.1-13.28.23-26.57.18-39.85-.03-7.65-.34-15.3-.58-22.95-.15-4.97-.39-9.94-.57-14.92-.01-.38.13-.76.2-1.14Z"/>
  <path class="cls-108" d="M73.75,71.31c-1.01-1.72.53-2.33,1.4-3.23,1.87,5.04,3.73,10.08,5.76,15.55.16-5.36-1.03-9.96-2.4-14.55-.4-1.33-1.1-2.04-2.3-2.49-.35.47-.68.92-1.02,1.36-.45-2.85-.87-5.71-1.36-8.56-.35-2.02.6-3.86,2.54-4.72.96,5.38,1.37,10.88,3.59,16.5.13-2.24-.99-4.17.84-5.6.72-.42,1.09-1.31,2.02-1.44.01.27.02.53.04.8.66,6.89,1.31,13.78,1.97,20.67-1.2,0-2.4.02-3.6.03-1.29-3.17-3.19-6.01-4.77-9.02-.25-.47-.59-.32-.91-.06-.53.15-1.06.3-1.59.45-.02-1.67-2.12-3.38.08-5.03.04-.03-.19-.43-.3-.66Z"/>
  <path class="cls-5" d="M111.77,132.26c-1.74.15-1.28-1.16-1.62-1.92-.26-.57.31-1.77-.89-1.63-1.16.14-2.95-.35-2.88,1.8.07,2.02-.85,2.91-2.85,2.81-.66-.03-.91-.26-.82-.91.86-6.13,1.72-12.25,2.55-18.38.18-1.35,1.25-1.08,2.11-1.35,2.3-.71,3.22.06,3.56,2.47.7,4.96,1.63,9.9,2.63,14.81.38,1.89-.37,2.36-1.78,2.29ZM108.24,118.08c-.11,0-.22,0-.34,0-.32,2.34-.64,4.67-.96,7.01-.09.64.29.85.84.78.65-.08,1.67.08,1.55-.93-.26-2.3-.72-4.57-1.11-6.86Z"/>
  <path class="cls-91" d="M127.82,77.83c1.49.26,2.97.52,4.46.78.73.14,1.46.29,2.19.43-3.68.79-7.36,1.59-11.04,2.36-1.4.3-2.81.54-4.22.81-2.43-1.13-4.87-2.26-7.3-3.38-3.93-1.74-7.62-3.89-11.16-6.33-.79-.54-1.62-1.02-2.43-1.53v-3.18c.41.27.67.42.91.59,5.24,3.81,10.95,6.66,17.23,8.31,3.72.98,7.52,1.31,11.36,1.13Z"/>
  <path class="cls-23" d="M124.09,143.06c0,1.8.21,3.64-.05,5.4-.46,3.15-4.62,5.08-7.46,3.6-1.06-.55-1.51-1.53-1.59-2.64-.27-3.57-.31-7.16-.03-10.73.21-2.74,2.48-4.18,6.04-4.03,2.05.08,3.08,1.41,3.16,4.18.04,1.4,0,2.81,0,4.22-.03,0-.05,0-.08,0ZM121.21,143.34s-.02,0-.03,0c0-1.34.02-2.68,0-4.01-.02-1.01.03-2.16-1.43-2.17-1.43,0-1.99.88-1.98,2.22,0,2.84,0,5.68,0,8.53,0,1.04.16,2.04,1.5,2.02,1.31-.01,1.92-.82,1.94-2.08.02-1.5,0-3.01,0-4.51Z"/>
  <path class="cls-23" d="M112.98,144.41c0,1.71.11,3.42-.02,5.12-.26,3.43-4.54,5.69-7.6,4.07-1.17-.62-1.59-1.71-1.6-2.93-.04-3.42-.09-6.84,0-10.25.08-2.93,2.22-4.44,5.93-4.37,2.22.04,3.29,1.43,3.33,4.34.02,1.34,0,2.68,0,4.02-.01,0-.02,0-.04,0ZM106.7,145.24h0c0,1.3,0,2.61,0,3.91.01,1.06-.17,2.35,1.45,2.31,1.47-.04,1.96-1.07,1.95-2.41,0-2.81,0-5.61-.03-8.42-.01-.98,0-2.09-1.42-2.06-1.36.02-1.95.86-1.96,2.16,0,1.5,0,3.01,0,4.51Z"/>
  <path class="cls-49" d="M123.08,125.83c.02,4.38-3.55,7.01-7.51,5.87-1.86-.53-1.31-2.06-1.13-3.16.2-1.26,1.19-.42,1.85-.27,1.25.28,2.4.14,3.07-1.05.65-1.15.26-2.2-.7-3.04-1.13-.99-2.41-1.85-3.38-2.98-1.87-2.17-2.17-4.73-1.02-7.33.98-2.22,3.04-2.75,5.26-2.78,1.6-.02,2.07.89,1.96,2.34-.11,1.47-1.06,1.11-1.97,1.02-.93-.09-1.86.02-2.34.98-.48.97-.32,1.94.42,2.69.74.76,1.61,1.4,2.42,2.1,1.82,1.56,3.23,3.32,3.06,5.6Z"/>
  <path class="cls-5" d="M94.67,124.2c0-2.91.02-5.83-.01-8.74-.01-.86.32-1.19,1.14-1.28,1.93-.22,3.85-.5,5.77-.75.58-.08,1.28-.18,1.28.65,0,.82.49,1.9-.82,2.27-.06.02-.13.01-.2.03-1.22.25-3.14-.23-3.53.77-.58,1.45-.2,3.28-.21,4.96,0,.47.37.51.72.47.6-.06,1.2-.13,1.79-.23.79-.12,1.65-.49,1.75.85.08,1.15,0,2.15-1.54,2.06-2.09-.13-3.06.65-2.73,2.91.21,1.41-.06,2.88.07,4.31.17,1.96-1.24,1.74-2.38,1.83-1.44.12-1.02-1.03-1.03-1.77-.03-2.78-.01-5.56-.01-8.34h-.05Z"/>
  <path class="cls-49" d="M125.42,121.98c0-2.35-.04-4.69.02-7.04.03-1.09-.27-1.5-1.38-1.17-.59.17-1.43.45-1.42-.58,0-.9-.71-2.25.96-2.5,2.28-.35,4.58-.63,6.87-.93.61-.08,1.28-.1,1.17.75-.12.85.71,2.31-.95,2.36-1.58.05-1.87.73-1.84,2.12.07,4.62,0,9.25.06,13.87.02,2.02-1.54,1.36-2.52,1.56-1.14.23-.95-.72-.95-1.4,0-2.35,0-4.69,0-7.04Z"/>
  <path class="cls-1" d="M55.63,62.48c.74-.51,1.14-.33,1.56.51,1.38,2.76,2.87,5.46,4.32,8.18.14.34.28.68.42,1.02.42.8.81,1.62,1.26,2.39,2.25,3.83,4.52,7.65,6.78,11.48-.94.06-1.89.12-2.83.18-3.42-5.64-6.82-11.29-10.29-16.9-.81-1.31-1.29-2.86-2.59-3.84.27-.33.66-.62.79-1,.23-.66,1.38-1.09.57-2.03Z"/>
  <path class="cls-5" d="M94.82,146.59c0-2.58.02-5.15-.01-7.73,0-.71.26-1.05.95-1.13,1.83-.21,3.65-.44,5.48-.66.49-.06,1.03-.08,1.03.59,0,.71.41,1.59-.61,2-.12.05-.26.05-.39.07-3.52.57-3.5.57-3.39,4.24.02.69.2,1,.94.83.55-.13,1.12-.16,1.69-.24.56-.08,1.15-.15,1.18.64.03.7.24,1.78-.82,1.7-2.98-.22-3.27,1.44-3,3.76.13,1.06-.03,2.14.03,3.21.05.85-.31,1.14-1.1,1.33-1.56.38-2.08-.06-1.98-1.71.14-2.3.04-4.61.04-6.92h-.03Z"/>
  <path class="cls-59" d="M111.91,78.83c2.43,1.13,4.87,2.26,7.3,3.38-5.26.99-10.55,1.73-15.9,2.03.02-1.36.04-2.72.06-4.08.33-.06.65-.12.98-.17,2.52-.39,5.04-.78,7.56-1.17Z"/>
  <path class="cls-13" d="M84.84,85.61c-.66-6.89-1.31-13.78-1.97-20.67-.03-.27-.03-.53-.04-.8.28.08.56.16.83.23.03.06.08.09.15.1.12.02.25.04.37.06,2.17.55,1.36,2.38,1.49,3.7.58,5.73,1.05,11.46,1.55,17.19-.8.06-1.59.12-2.39.18Z"/>
  <path class="cls-6" d="M47.62,70.31c.56-1.07,1.47-2.02,1.21-3.39.7-.57.78.2.97.51,1.8,2.86,3.56,5.73,5.36,8.59.18.29.48.52.72.77-.07.41-.14.81-.21,1.22-.6.54-.3,1.06.02,1.6,1.34,2.2,2.66,4.41,3.99,6.62-.6,0-1.21-.02-1.81-.03-3.27-5.17-6.54-10.34-9.82-15.5-.1-.16-.29-.27-.44-.4Z"/>
  <path class="cls-2" d="M54.26,65.51c1.3.98,1.78,2.53,2.59,3.84,3.47,5.61,6.86,11.26,10.29,16.9-.2,0-.41,0-.61,0-2.44-3.84-4.88-7.67-7.34-11.5-.2-.3-.28-.92-.93-.61-.72.61-1.45,1.23-2.17,1.84-1.61-2.68-3.22-5.36-4.81-8.04-.18-.31-.42-.63-.09-1,1.03-.48,2.05-.96,3.08-1.43Z"/>
  <path class="cls-68" d="M64.91,69.13c.14,0,.27,0,.41.01.35.57.75,1.11,1.05,1.7,1.67,3.39,3.32,6.79,4.97,10.19.74,1.66,1.48,3.33,2.22,4.99-.73,0-1.46,0-2.18.01-2.04-3.89-4.05-7.81-6.16-11.66-.54-.99-.86-2.18-1.92-2.84.54-.8,1.07-1.6,1.61-2.4Z"/>
  <path class="cls-1" d="M58.26,74.13c.64-.31.73.31.93.61,2.46,3.82,4.9,7.66,7.34,11.5-1.07.06-2.15.12-3.22.18-.65-1.01-1.26-2.05-1.97-3.02-1.43-1.96-2.38-4.23-4.05-6.02.48-1.03,1.11-2.03.98-3.24Z"/>
  <path class="cls-108" d="M57.28,77.38c1.67,1.79,2.62,4.07,4.05,6.02.71.97,1.32,2.01,1.97,3.02-1.21-.06-2.43.21-3.62-.18-1.33-2.21-2.65-4.42-3.99-6.62-.33-.54-.63-1.06-.02-1.6.54-.21,1.07-.43,1.61-.64Z"/>
  <path class="cls-96" d="M63.3,71.53c1.05.66,1.37,1.85,1.92,2.84,2.11,3.86,4.11,7.77,6.16,11.66-.46.32-.94.21-1.41.03-2.26-3.82-4.53-7.64-6.78-11.48-.46-.78-.84-1.6-1.26-2.4.46-.22.92-.44,1.38-.66Z"/>
  <path class="cls-75" d="M73.56,86.03c-.74-1.66-1.48-3.33-2.22-4.99,0-.07,0-.13,0-.2.07-.06.13-.12.2-.18,1-.42,2.01-.84,3.01-1.27,1.53,2,2.6,4.27,3.83,6.44-1.61.07-3.22.13-4.84.2Z"/>
  <path class="cls-37" d="M90.62,85.22c-.23-1.44-.47-2.88-.7-4.33-.2-1.23-.62-2.43.7-3.45.41-.31.33-1.27.47-1.92.39.36.78.71,1.18,1.07.9,2.74,1.12,5.62,1.65,8.43-1.1.07-2.19.13-3.29.2Z"/>
  <path class="cls-24" d="M78.4,85.83c-1.23-2.17-2.31-4.44-3.83-6.44.45-.9,1.36-1.65.99-2.84.32-.26.66-.41.91.06,1.58,3.01,3.48,5.85,4.77,9.02-.92.4-1.89.11-2.84.19Z"/>
  <path class="cls-55" d="M103.37,80.16c-.02,1.36-.04,2.72-.06,4.08-1.13.12-2.27.24-3.4.37-.07-2.54-.15-5.07-.22-7.61,0,0,0,0,0,0,.07.13.13.27.2.4h0c.34.29.69.22,1.03.01.77-.06,1.57-.04,2.23-.54.34.27.13.61.13.93-.2.8-.38,1.6.09,2.38v-.02Z"/>
  <path class="cls-13" d="M93.91,85.02c-.53-2.81-.75-5.69-1.65-8.43.8-.65,1.77-1.13,2.19-2.16.14.13.29.26.43.39-.07.11-.13.21-.2.32.6,3.23,1.2,6.46,1.8,9.7-.86.06-1.71.13-2.57.19Z"/>
  <path class="cls-47" d="M99.69,77c.07,2.54.15,5.07.22,7.61-.8.07-1.6.14-2.39.2-.28-2.81-.56-5.61-.84-8.42,1.14-.5,2.42-1.66,3.01.61Z"/>
  <path class="cls-97" d="M96.67,76.4c.28,2.81.56,5.61.84,8.42-.35,0-.69.01-1.04.02-.6-3.23-1.2-6.46-1.8-9.7.66.42,1.33.84,1.99,1.26Z"/>
  <path class="cls-102" d="M136.9,149.85c-.1.54-.41.91-.99.9-.5,0-.81-.31-.82-.82-.02-.64.42-.91.96-.91.46,0,.82.26.86.82Z"/>
  <path class="cls-16" d="M136.19,38.57c.15,1.01-.3,1.4-1.03,1.56-.28.06-.62-.02-.57-.35.13-.84.81-1,1.59-1.2Z"/>
  <path class="cls-93" d="M138.87,32.18c1.12-.34,1.92-.25,2.67.57-1.02.47-1.77.16-2.67-.57Z"/>
  <path class="cls-25" d="M133.58,30.15c.84.27,1.43.68,1.96,1.28-1.07.57-1.86.06-1.96-1.28Z"/>
  <path class="cls-72" d="M112.97,27.49c-.34,0-.51-.12-.46-.42.12-.72.69-.94,1.28-1.08.31-.07.41.2.35.45-.16.62-.65.89-1.16,1.05Z"/>
  <path class="cls-9" d="M150.22,38.19c.78.69,1.05,1.32.83,2.1-.03.1-.39.24-.45.19-.74-.58-.41-1.35-.38-2.28Z"/>
  <path class="cls-53" d="M121.42,33.6c.53.21,1.03.48,1.17,1.1.06.26-.1.49-.39.44-.61-.11-1.01-.49-1.17-1.08-.07-.26.07-.45.39-.46Z"/>
  <path class="cls-110" d="M117.43,26.1c1.07-.24,1.82-.37,2.56.29-.92.83-1.6.38-2.56-.29Z"/>
  <path class="cls-52" d="M127.68,29.54c.68.98.33,1.52-.57,1.97-.49-.85-.17-1.4.57-1.97Z"/>
  <path class="cls-19" d="M134.01,34.6c.34.08.63.26.57.59-.1.55-.56.79-1.06.91-.34.08-.51-.15-.43-.46.13-.49.38-.91.92-1.04Z"/>
  <path class="cls-51" d="M122.85,30.34c.6.53.97,1.06.65,1.78-.13.28-.4.22-.57.02-.46-.53-.75-1.09-.08-1.8Z"/>
  <path class="cls-79" d="M124.47,24.29c-1.13.04-1.92-.08-2.64-1.12,1.15-.04,1.87.26,2.64,1.12Z"/>
  <path class="cls-77" d="M137.8,35.94c-.4-.05-.54-.3-.47-.63.09-.41.18-.9.74-.88.37.01.61.31.56.68-.06.47-.41.72-.84.83Z"/>
  <path class="cls-15" d="M118.22,29.91c-.38.02-.42-.24-.43-.52-.02-.56.27-.9.78-.99.38-.07.55.24.54.56-.03.54-.41.8-.89.95Z"/>
  <path class="cls-4" d="M147.66,35.66c.7.75.77,1.42.63,2.39-.84-.71-1.14-1.34-.63-2.39Z"/>
  <path class="cls-103" d="M118.54,20.54c1.05-.42,1.72-.15,2.52.46-1.04.53-1.69.1-2.52-.46Z"/>
  <path class="cls-41" d="M111.91,20.94c.77-.37,1.44-.38,2.11-.02.04.02-.03.44-.1.47-.69.19-1.39.32-2-.44Z"/>
  <path class="cls-14" d="M110.76,23.4c1.05-.13,1.78-.19,2.19.83-.89.14-1.59.11-2.19-.83Z"/>
  <path class="cls-114" d="M125.58,21.16c.99.09,1.75.2,2.1,1.25-1.06.15-1.55-.4-2.1-1.25Z"/>
  <path class="cls-85" d="M141.24,40.69c-.3-.74-.05-1.26.58-1.61.26-.15.47.03.48.31.02.71-.24,1.22-1.06,1.3Z"/>
  <path class="cls-63" d="M142.96,35.43c.66.45.84,1,.64,1.66-.07.24-.37.38-.56.18-.54-.55-.38-1.16-.08-1.84Z"/>
  <path class="cls-74" d="M130.99,29.34c.87.48,1.01,1.13.7,2.13-.85-.58-.97-1.22-.7-2.13Z"/>
  <path class="cls-99" d="M145.49,46.62c-.31-.76-.14-1.31.49-1.68.26-.15.48.02.52.28.11.76-.33,1.14-1.01,1.4Z"/>
  <path class="cls-90" d="M137.42,27.96c1.05.09,1.75.26,2.2,1.31-1.07,0-1.63-.42-2.2-1.31Z"/>
  <path class="cls-54" d="M137.54,26.99c-1.01-.34-1.46-.86-1.72-1.92,1,.34,1.51.8,1.72,1.92Z"/>
  <path class="cls-50" d="M134,28.66c-.91-.53-1.22-1.1-1.01-2.03.9.37,1.17.96,1.01,2.03Z"/>
  <path class="cls-92" d="M146.51,41.95c-.53-.69-.24-1.18.22-1.61.23-.21.46-.08.54.17.23.69-.09,1.11-.76,1.44Z"/>
  <path class="cls-65" d="M128.85,25.77c-.68.7-1.33.61-2.26.45.73-.88,1.35-1.04,2.26-.45Z"/>
  <path class="cls-28" d="M150.03,45.58c-.11-1.01-.03-1.6.64-2.33.47,1.03.22,1.61-.64,2.33Z"/>
  <path class="cls-73" d="M124.78,27.19c.29-.02.6.05.54.39-.11.53-.58.67-1.05.73-.28.03-.6-.06-.55-.4.09-.57.64-.57,1.06-.72Z"/>
  <path class="cls-81" d="M148.76,34.57c-.01-.06-.03-.12-.04-.18-.05-.08-.1-.15-.14-.23-.08-.34-.16-.69-.32-1.35.89.82,1.57,1.36,1.52,2.38-.34-.2-.67-.41-1.01-.61Z"/>
  <path class="cls-35" d="M116.47,23.08c.98-.26,1.67-.3,2.31.44-.85.35-1.5.18-2.31-.44Z"/>
  <path class="cls-3" d="M141.87,30.49c.82-.25,1.28.05,1.58.63.04.07-.18.4-.28.4-.62,0-1.03-.32-1.3-1.02Z"/>
  <path class="cls-113" d="M129.23,24.24c.91-.27,1.39.09,1.89.8-.98.33-1.43-.1-1.89-.8Z"/>
  <path class="cls-18" d="M146.12,34.16c-.16.33-.35.72-.8.7-.31-.01-.41-.31-.31-.6.12-.35.28-.69.73-.68.35,0,.43.24.39.58Z"/>
  <path class="cls-66" d="M133.03,24.56c-.7-.47-1.28-.74-1.3-1.63.85.19,1.32.56,1.3,1.63Z"/>
  <path class="cls-17" d="M71.35,80.83c0,.07,0,.13,0,.2-1.66-3.4-3.3-6.8-4.97-10.19-.29-.6-.69-1.14-1.05-1.7-1.08-2.84-1.96-5.77-3.29-8.49-1.07-2.18-.22-3.74.86-5.41.14.23.31.44.41.68,3.09,7.43,6.18,14.86,9.27,22.29-.35.73-.69,1.46-1.04,2.19-.06.15-.13.29-.19.44Z"/>
  <path class="cls-48" d="M72.58,78.2c-3.09-7.43-6.17-14.86-9.27-22.29-.1-.24-.27-.45-.41-.68,1.62-.16,3-.25,3.78,1.8,1.87,4.96,4,9.82,6.05,14.78.38-.19.7-.34,1.02-.5.11.23.34.63.3.66-2.21,1.65-.1,3.36-.08,5.03-.46.4-.93.8-1.39,1.2Z"/>
  <path class="cls-56" d="M80.8,65.58c-1.82,1.44-.7,3.36-.84,5.6-2.23-5.62-2.63-11.12-3.59-16.5,2.41.04,3.43,1.2,3.51,3.67.07,2.42.6,4.82.92,7.23Z"/>
  <path class="cls-87" d="M75.19,67.96c.33-.45.67-.9,1.02-1.36,1.2.44,1.9,1.15,2.3,2.49,1.37,4.59,2.57,9.19,2.4,14.55-2.03-5.47-3.9-10.51-5.76-15.55,0-.04.02-.08.04-.12Z"/>
  <path class="cls-58" d="M63.3,71.53c-.46.22-.92.44-1.38.66-.14-.34-.28-.68-.42-1.02.91-.94,2.04-1.55,3.22-2.08.06,0,.12.02.18.04-.54.8-1.07,1.6-1.61,2.4Z"/>
  <path class="cls-27" d="M83.8,64.47c-.07,0-.12-.04-.15-.1.07,0,.12.04.15.1Z"/>
  <path class="cls-61" d="M156.33,46.89c-.66-.79-.7-1.47-.21-2.38.79.76.88,1.44.21,2.38Z"/>
  <path class="cls-86" d="M154.85,40.34c.81.51,1.25,1.02,1.02,1.98-.89-.36-1.11-.98-1.02-1.98Z"/>
  <path class="cls-12" d="M148.57,34.16c.05.08.1.15.14.23-.05-.08-.1-.15-.14-.23Z"/>
  <path class="cls-31" d="M54.26,65.51c-1.03.48-2.05.96-3.08,1.43,1.27-1.7,1.73-4.21,4.45-4.46.81.95-.34,1.37-.57,2.03-.13.38-.52.67-.79,1Z"/>
  <path class="cls-60" d="M57.28,77.38c-.54.21-1.07.43-1.61.64.07-.41.14-.81.21-1.22.07-.28.14-.55.21-.83.72-.61,1.45-1.23,2.17-1.84.13,1.22-.49,2.21-.98,3.24Z"/>
  <path class="cls-107" d="M57.32,25.11c.5,1.99,1.09,3.97,1.46,5.98.22,1.21.85,1.53,1.92,1.46,1.36-.17,2.5-.49,2.03-2.3-.45-1.77-.83-3.56-1.25-5.34,4.44-.65,8.9-1.2,13.26.39,1.96.71,2.24,2.1.69,3.49-3.49,3.15-7.88,4.46-12.27,5.64-5.64,1.51-11.34,2.55-17.2,1.36-1.12-.23-2.31-.54-2.64-1.84-.31-1.26.67-1.98,1.47-2.65,3.34-2.79,7.36-4.16,11.45-5.37.46-.14,1.04-.12,1.08-.82Z"/>
  <path class="cls-105" d="M139.5,69.74c.28-.21.55-.19.84-.01-.28,0-.56,0-.84.01Z"/>
  <path class="cls-101" d="M153.6,67.07c-.19-.27-.39-.54-.57-.82-1.24-1.96-1.73-2.05-3.27-.36-.92,1.01-1.73.94-2.66.1-.47-.42-.94-.89-1.49-1.18-1.05-.56-2-.5-2.26.91-.18.98-.04,2.18-1.36,2.37-1.38.2-2.3-.75-2.87-1.83-.54-1.02-.76-2.2-1.17-3.29-.68-1.77-2.21-2.09-3.36-.62-1.12,1.43-1.62.57-2.08-.45-.2-.44-.1-1.03-.31-1.46-1.11-2.2-2.18-.79-3.28.23-.23-.56-.43-1.01-.59-1.48-.56-1.66-1.62-2.01-3.09-.95-.63.45-1.25.87-2.01,1.09-1.76.5-2.93-.5-2.67-2.3.11-.76.27-1.53.23-2.28-.05-.9-.56-1.51-1.54-1.12-1.22.48-1.69-.06-1.95-1.15-.3-1.22-.78-2.19-2.32-1.35-.44.24-.73.11-.81-.47-.48-3.33-.83-3.63-4.11-3.16-.96.14-1.51-.15-1.77-1-.57-1.81-1.85-2.33-3.62-2.29-2.12.05-2.56-.68-2.1-2.73.36-1.61-.76-2.44-2.06-2.84-1.36-.42-2.81-.57-4.22-.84,0,0-.01-.01-.01-.01-.06-.07-.12-.13-.18-.2.22-1.31.22-2.53-.68-3.7-.98-1.28-.26-1.87,1.11-1.94.49-.02.98,0,1.39,0,.33-.73-.61-1.72.5-1.92,1.06-.18,1.85.31,2.21,1.52,1.6,5.29,5.44,8.95,9.52,12.28,8.92,7.3,18.59,13.37,29.63,16.97,4.36,1.42,8.78,2.73,13.47,1.91.52-.09,1.01-.32,2.39-.78-2.94,1.71-1.26,2.4-.29,3.24.45.39.84.85.4,1.47-.56.79-1.31.84-2.13.43Z"/>
  <path class="cls-57" d="M96.08,37.59c.06.07.12.13.18.2-.06-.07-.12-.13-.18-.2Z"/>
  <path class="cls-84" d="M113.46,51.44c.15.52.46,1.07,1.02.77,2.21-1.2,2.24.61,2.7,1.86-1.05-.21-2.1-.39-3.14-.63-6.65-1.54-12.51-4.48-16.88-9.89-.86-1.06-1.4-2.37-2.09-3.57.09-.64-.31-1.42.57-1.81.92,1.11,2.35.74,3.5,1.18-.44.41-.88.82-1.51,1.4,1.48.33,2.75.61,4.03.9-.05.35-.09.69-.14,1.04-.97-.1-1.93-.49-3.04-.15.92,1.8,2.26,2.6,4.23,2.24.96.1,1.92.21,2.87.31.13.09.26.17.39.26-.15.1-.29.24-.46.29-.91.28-1.93.04-2.94.67.84.67,1.23,2.16,2.62,1.05.87-.7,1.46-.29,2.26.14-.84.26-1.55.48-2.72.85,1.59.44,2.75,2.3,3.65-.19,1.26.73,2.55-.27,3.83.07.51.13,1.1.02,1.12.8-.35-.08-.72-.14-1.06-.25-1.1-.38-1.83.12-2.09,1.1-.26.97.71,1.05,1.33,1.23.63.19,1.31.23,1.96.34Z"/>
  <path class="cls-82" d="M113.78,57.69c-.32-.3-.87-.44-.8-1.04,2.25.42,4.5.83,6.81.6-.11,1.22.15,2.28,1.38,2.8,1.82.76,3.27-.05,4.63-1.18,3.07,4.83,7.42,7.74,13.07,8.68.28.27.55.55.83.82-1.97-.21-3.84-.81-5.74-1.36-4.93-1.43-8.26-6.02-13.68-6.66-2.24-.26-4.34-1.73-6.5-2.65Z"/>
  <path class="cls-45" d="M95.08,39.99c.69,1.2,1.23,2.51,2.09,3.57,4.37,5.4,10.23,8.35,16.88,9.89,1.04.24,2.09.42,3.14.63.14.14.27.28.41.42-2.43.01-4.71-.67-6.97-1.44-5.43-1.87-10.27-4.67-13.87-9.27-.86-1.1-1.62-2.3-1.68-3.78Z"/>
  <path class="cls-33" d="M113.78,57.69c2.16.92,4.26,2.39,6.5,2.65,5.42.64,8.75,5.23,13.68,6.66,1.89.55,3.76,1.16,5.74,1.36.21.13.42.25.64.38-2.63.32-5.29.55-7.9.99-2.56.44-5.08,1.09-7.62,1.67-.4.09-.75.25-1.02-.26-2.66-4.99-6.14-9.38-10.02-13.46Z"/>
  <path class="cls-7" d="M138.87,67.54c-5.66-.94-10-3.85-13.07-8.68.89-.54,1.55-.6,1.98.62.4,1.12.72,2.75,2.45.92.7-.74,1.11-.02,1.25.78.35,2.09,1.86,3.18,3.2,2.33.84.63,1.73,1.14,2.84.94.45,1.03.9,2.06,1.35,3.09Z"/>
  <path class="cls-44" d="M108.38,48.17c-.9,2.49-2.06.63-3.65.19,1.18-.37,1.89-.59,2.72-.85-.8-.44-1.38-.84-2.26-.14-1.39,1.11-1.78-.38-2.62-1.05,1.01-.64,2.04-.39,2.94-.67.17-.05.31-.19.46-.29-.13-.09-.26-.17-.39-.26,2.02.03,1.77,2.13,2.79,3.07Z"/>
  <path class="cls-34" d="M113.46,51.44c-.66-.11-1.33-.14-1.96-.34-.62-.19-1.59-.26-1.33-1.23.26-.97,1-1.47,2.09-1.1.34.12.71.17,1.06.25.04.8.09,1.61.13,2.41Z"/>
  <path class="cls-30" d="M102.72,44.78c-1.97.36-3.3-.44-4.23-2.24,1.11-.34,2.07.04,3.04.15.21.8.48,1.57,1.19,2.1Z"/>
  <path class="cls-8" d="M101.67,41.65c-1.28-.28-2.55-.57-4.03-.9.63-.58,1.07-.99,1.51-1.4,1.12.46,2.95.13,2.52,2.29Z"/>
  <path class="cls-71" d="M137.52,64.45c-1.12.2-2-.31-2.84-.94.23-.61.51-1.25,1.3-1.09,1.04.22,1.52.97,1.55,2.02Z"/>
  <path class="cls-76" d="M147.23,67.32c-1.12-.14-2.24-.27-3.35-.41.12-.49-.21-1.17.37-1.45.63-.3,1.11.27,1.57.61.5.37.94.83,1.41,1.25Z"/>
  <path class="cls-22" d="M127.82,77.83c-3.84.18-7.64-.15-11.36-1.13-6.27-1.65-11.98-4.51-17.23-8.31-.24-.17-.49-.32-.91-.59,0,1.16,0,2.17,0,3.18-.01,1.14-.02,2.27-.03,3.41-.93-.15-1.9.23-2.81-.22.43-2.47.09-4.95.2-7.43.87-.09,1.75-.19,2.86-.31-.56-.66-1.02-1.2-1.47-1.74-1.41-2.31-2.91-4.57-4.18-6.94-.96-1.79-2.03-3.58-2.26-5.69,3.83,6.76,9.78,11.37,16,15.67,6.51,4.5,13.53,7.99,21.2,10.09Z"/>
  <path class="cls-21" d="M95.68,66.74c-.11,2.47.23,4.96-.2,7.43-.2.22-.4.43-.59.65-.14-.13-.29-.26-.43-.39-1.13.25-2.26.51-3.39.76-.19-1.94-.38-3.88-.57-5.82.75.2,1.49.41,2.39.65-.28-1.6.45-3.03-.11-4.46.81.12.51-.9,1.07-1.04.61.74,1.22,1.48,1.84,2.21Z"/>
  <path class="cls-106" d="M95.68,66.74c-.61-.74-1.22-1.48-1.84-2.21,1.1-.38,2.15.17,3.23.17.45.54.91,1.07,1.47,1.74-1.11.12-1.99.21-2.86.31Z"/>
  <path class="cls-67" d="M91.06,75.19c1.13-.25,2.26-.51,3.39-.76-.42,1.03-1.39,1.51-2.19,2.16-.39-.36-.78-.71-1.18-1.07,0-.11-.02-.23-.03-.34Z"/>
  <path class="cls-20" d="M89.02,113.58v29.14c-4.51-3.05-6.78-7.25-7.16-12.41-.5-6.63,1.81-12.17,7.16-16.73Z"/>
  <path class="cls-111" d="M135.73,108.08c6.78,6.01,5.98,17.34.13,24.08-.27-.71-.4-21.61-.13-24.08Z"/>
  <path class="cls-83" d="M129.09,142.26c0-1.61.04-3.22-.02-4.82-.03-.9.26-1.4,1.19-1.48.9-.08,1.88-.01,1.98,1.04.31,3.26.42,6.55-.05,9.81-.18,1.26-1.41,1.64-2.51,1.52-1.04-.12-.53-1.13-.56-1.74-.08-1.44-.03-2.88-.03-4.32Z"/>
  <path class="cls-62" d="M72.58,78.2c.46-.4.93-.8,1.39-1.2.53-.15,1.06-.3,1.59-.45.37,1.19-.54,1.93-.99,2.84-1,.42-2.01.84-3.01,1.27,0-.09,0-.17-.01-.26.35-.73.69-1.46,1.04-2.19Z"/>
  <path class="cls-10" d="M108.24,118.08c.38,2.28.84,4.56,1.11,6.86.12,1.01-.9.85-1.55.93-.56.07-.93-.14-.84-.78.31-2.34.64-4.67.96-7.01.11,0,.22,0,.34,0Z"/>
  <path class="cls-115" d="M121.21,143.34c0,1.5.02,3.01,0,4.51-.02,1.25-.63,2.06-1.94,2.08-1.35.01-1.5-.98-1.5-2.02,0-2.84,0-5.68,0-8.53,0-1.35.56-2.23,1.98-2.22,1.46,0,1.41,1.16,1.43,2.17.02,1.34,0,2.67,0,4.01,0,0,.02,0,.03,0Z"/>
  <path class="cls-115" d="M106.7,145.24c0-1.5,0-3.01,0-4.51,0-1.3.6-2.14,1.96-2.16,1.42-.02,1.41,1.08,1.42,2.06.03,2.81.02,5.61.03,8.42,0,1.34-.48,2.37-1.95,2.41-1.62.04-1.44-1.24-1.45-2.31-.01-1.3,0-2.61,0-3.91h0Z"/>
  <path class="cls-68" d="M71.54,80.4c0,.09,0,.17.01.26-.07.06-.13.12-.2.18.06-.14.13-.29.19-.44Z"/>
  <path class="cls-11" d="M98.29,74.39c.14.33.37.68.72.53,2.14-.91,3.11.59,4.15,1.96-.66.51-1.46.49-2.23.54-.34,0-.69,0-1.03-.01,0,0,0,0,0,0-.07-.13-.13-.27-.2-.4,0,0,0,0,0,0-.59-2.27-1.87-1.1-3.01-.61-.66-.42-1.33-.84-1.99-1.26.07-.11.13-.22.2-.32.2-.22.4-.43.59-.65.91.45,1.88.07,2.81.22Z"/>
  <path class="cls-59" d="M103.29,77.8c.03.79.06,1.59.09,2.38-.47-.78-.28-1.58-.09-2.38Z"/>
  <path class="cls-47" d="M99.89,77.41c.34,0,.69,0,1.03.01-.35.2-.69.28-1.03-.01Z"/>
  <path class="cls-47" d="M99.69,77c.07.13.14.27.2.4-.07-.13-.14-.27-.2-.4Z"/>
</svg>